<svg width="45" height="45" viewBox="0 0 45 45" xmlns="http://www.w3.org/2000/svg" xmlns:xlink="http://www.w3.org/1999/xlink"><title>1C860934-0DA3-41AA-8FD2-9CA10B468C30</title><defs><path id="a" d="M14.915 1.8V.06H0V1.8h14.915z"/><path id="c" d="M6.556.067H.061v9.729h6.495V.066z"/><path id="e" d="M.014 3.455h2.259V.072H.014z"/></defs><g fill="none" fill-rule="evenodd"><path d="M39.188 8h-3.823v3.81h-3.81V8h-3.823v3.81h-2.99l-.735 3.413a.328.328 0 0 0 .32.396h3.412v-3.81h3.81v3.81h3.823v-3.81h3.81v3.81h3.488a.328.328 0 0 0 .32-.396l-.734-3.413h-3.068V8z" fill="#00A9FF"/><g transform="translate(4 33.33)"><mask id="b" fill="#fff"><use xlink:href="#a"/></mask><path d="M14.051 1.8H.864A.867.867 0 0 1 0 .93C0 .45.387.06.864.06h13.187c.477 0 .864.39.864.87s-.387.87-.864.87" fill="#070E23" mask="url(#b)"/></g><g transform="translate(10.483 27.061)"><mask id="d" fill="#fff"><use xlink:href="#c"/></mask><path d="M4.956 9.381L.188 1.391A.873.873 0 0 1 .473.196.861.861 0 0 1 1.66.481l4.767 7.99c.25.41.123.945-.284 1.196a.861.861 0 0 1-1.188-.286" fill="#00A9FF" mask="url(#d)"/></g><g transform="translate(16.076 36.785)"><mask id="f" fill="#fff"><use xlink:href="#e"/></mask><path d="M1.928 3.427c.007.032.05.038.065.009C2.741 1.94 1.753.49 1.753.49h-.001A.948.948 0 0 0 .504.193a.961.961 0 0 0-.37 1.302c.57 1.194 1.425.315 1.794 1.932" fill="#00A9FF" mask="url(#f)"/></g><path fill="#00A9FF" d="M7.01 37.656l3.553-6.087-1.49-.881-3.553 6.087zM11.112 30.627a.873.873 0 0 0-.307-1.19.861.861 0 0 0-1.183.31l-.356.61 1.49.88.356-.61zM4.784 39.508l.532-2.463 1.49.88-1.877 1.668c-.064.057-.163-.001-.145-.085"/><g fill="#00A9FF"><path d="M17.327 8.42a1.974 1.974 0 0 1-2.792-2.792l-1.623-1.623-8.907 8.907 1.623 1.623a1.974 1.974 0 0 1 2.792 2.792l1.624 1.624 8.907-8.907-1.624-1.624z"/><path d="M14.916 14.079l-6.04-6.04" stroke="#061122" stroke-linecap="round" stroke-dasharray="1,3"/></g><g transform="translate(26 27)"><path d="M2.71 2.879c-.199-.52.091-.94.638-.94h11.578c.552 0 .92.443.826.978l-1.11 6.286c-.095.54-.618.978-1.164.978H3.342c-.548 0-.916-.449-.826-.983l.803-4.736-.608-1.583z" fill="#00A9FF"/><path stroke="#061122" stroke-width="1.4" stroke-linecap="round" stroke-linejoin="round" d="M0 0h1.927l1.036 2.393"/><ellipse fill="#061122" cx="12.848" cy="12.363" rx="1.212" ry="1.212"/><ellipse fill="#061122" cx="3.151" cy="12.363" rx="1.212" ry="1.212"/></g><path d="M0 0h45v45H0z"/></g></svg>