<svg width="45" height="45" viewBox="0 0 45 45" xmlns="http://www.w3.org/2000/svg" xmlns:xlink="http://www.w3.org/1999/xlink"><title>FA70F881-1381-4C40-B502-DBB1B0D99058</title><defs><path d="M.14 6.984A.842.842 0 0 1 .998 6h36.006c.55 0 .935.434.856.984l-1.718 12.032c-.078.543-.596.984-1.14.984H2.999a1.178 1.178 0 0 1-1.14-.984L.141 6.984z" id="a"/><mask id="c" x="0" y="0" width="38" height="14" fill="#fff"><use xlink:href="#a"/></mask><path d="M.499 1.272C.223.791.453.4.997.4h36.006c.55 0 .77.396.498.872L34 7.4H4L.499 1.272z" id="b"/><mask id="d" x="0" y="0" width="37.236" height="7" fill="#fff"><use xlink:href="#b"/></mask></defs><g fill="none" fill-rule="evenodd"><path d="M0 0h45v45H0z"/><g transform="translate(4 18)"><use stroke="#00A9FF" mask="url(#c)" stroke-width="2.8" fill="#FFF" xlink:href="#a"/><path d="M28.67 15.293a2.61 2.61 0 0 1-1.249.315c-1.436 0-2.6-1.153-2.6-2.575 0-1.422 1.164-2.575 2.6-2.575.502 0 .97.14 1.367.384" stroke="#00A9FF" stroke-width="1.4" stroke-linecap="round" stroke-linejoin="round"/><path d="M33.416 13.033c0 1.422-1.165 2.575-2.601 2.575s-2.6-1.153-2.6-2.575c0-1.422 1.164-2.575 2.6-2.575 1.436 0 2.6 1.153 2.6 2.575z" stroke="#00A9FF" stroke-width="1.4" stroke-linecap="round" stroke-linejoin="round"/><path d="M5 12h6" stroke="#00A9FF" stroke-width="1.4" stroke-linecap="round"/><path d="M5 15h13" stroke="#061122" stroke-width="1.4" stroke-linecap="round"/><use stroke="#00A9FF" mask="url(#d)" stroke-width="2.8" fill="#FFF" transform="matrix(1 0 0 -1 0 7.8)" xlink:href="#b"/></g><path d="M30.034 24a6.5 6.5 0 1 1 6.931 0h-6.93z" fill="#11D392"/><text font-family="GothamPro-Medium, Gotham Pro" font-size="8" font-weight="400" fill="#FFF" transform="translate(27 12)"><tspan x="4" y="9">$</tspan></text><path d="M9.034 24a6.5 6.5 0 1 1 6.931 0h-6.93z" fill="#2A4EA7"/><path d="M12.834 21.783c1.02 0 1.656-.52 2.166-1.262l-.787-.573c-.412.537-.77.85-1.37.85-.698 0-1.217-.438-1.458-1.136h1.933v-.76h-2.094c-.01-.117-.018-.233-.018-.359 0-.152.009-.286.018-.402h2.094v-.76h-1.924c.25-.672.742-1.093 1.378-1.093.626 0 .993.287 1.378.815l.832-.618c-.474-.68-1.092-1.181-2.183-1.181-1.262 0-2.184.868-2.542 2.076h-.841v.76h.698c-.018.126-.018.27-.018.403 0 .135 0 .242.01.358h-.69v.761h.814c.34 1.262 1.28 2.12 2.604 2.12z" fill="#FFF"/><g transform="translate(16 6)"><circle fill="#00A9FF" cx="6.5" cy="6.5" r="6.5"/><g stroke="#FFF" stroke-linecap="square"><path d="M3.5 4.5h6M3.5 6.5h6M6.5 6.5v4"/></g></g><g fill="#FFCC01"><path d="M17.174 24a6.5 6.5 0 1 1 12.652 0H17.174z"/></g></g></svg>