<svg width="45" height="45" viewBox="0 0 45 45" xmlns="http://www.w3.org/2000/svg"><title>C83C3BE5-B9A7-4E9B-B17D-03021981106E</title><g fill="none" fill-rule="evenodd"><g stroke-width="1.4" stroke-linecap="round"><path d="M25.766 5.565s-2.947.903-3.29.988L9.327 9.826C8.546 10.02 8 10.636 8 11.324v8.724c0 4.61 1.652 9.032 4.778 12.787 2.424 2.912 5.662 5.317 9.365 6.953.268.119.563.178.857.178" stroke="#061122"/><path d="M19.58 5.53s3.374.938 3.717 1.023l13.149 3.273c.781.195 1.327.81 1.327 1.498v8.724c0 4.61-1.652 9.032-4.778 12.787-2.423 2.912-5.662 5.317-9.365 6.953a2.125 2.125 0 0 1-.857.178" stroke="#00A9FF"/></g><g transform="translate(17.75 14.68)"><rect stroke="#061122" stroke-width="1.4" x="1.544" width="7.412" height="10.104" rx="3.706"/><ellipse fill="#00A9FF" cx="5.25" cy="9.689" rx="5.25" ry="5.205"/><path d="M4.594 9.806a.865.865 0 0 0-.224.581c0 .481.394.873.88.873.485 0 .88-.39.88-.873a.865.865 0 0 0-.224-.581.653.653 0 0 0 .004-.073v-.655a.658.658 0 0 0-.66-.654.657.657 0 0 0-.66.654v.655c0 .025.001.05.004.073z" fill="#FFF"/></g><path d="M0 0h45v45H0z"/></g></svg>