<svg width="45" height="45" viewBox="0 0 45 45" xmlns="http://www.w3.org/2000/svg"><title>95851CB7-18AA-45BA-864C-A03AB4986085</title><g fill="none" fill-rule="evenodd"><path d="M0 0h45v45H0z"/><g stroke-width="1.4" stroke-linecap="round"><path d="M2.411 10H40c1.105 0 1.893.89 1.762 1.983l-2.524 21.034C39.107 34.112 38.11 35 36.995 35l-31.015.14c-1.099.005-1.882-.888-1.753-1.97L5.99 18.477" stroke="#00A9FF" stroke-linejoin="round"/><path d="M30.67 30.293a2.61 2.61 0 0 1-1.249.315c-1.436 0-2.6-1.153-2.6-2.575 0-1.422 1.164-2.575 2.6-2.575.502 0 .97.14 1.367.384" stroke="#00A9FF" stroke-linejoin="round"/><path d="M9 27h6" stroke="#00A9FF"/><path d="M9 30h13" stroke="#061122"/><path d="M35.416 28.033c0 1.422-1.165 2.575-2.601 2.575s-2.6-1.153-2.6-2.575c0-1.422 1.164-2.575 2.6-2.575 1.436 0 2.6 1.153 2.6 2.575z" stroke="#00A9FF" stroke-linejoin="round"/></g></g></svg>