<?xml version="1.0" encoding="UTF-8"?>
<svg width="44px" height="40px" viewBox="0 0 44 40" version="1.1" xmlns="http://www.w3.org/2000/svg" xmlns:xlink="http://www.w3.org/1999/xlink">
    <!-- Generator: Sketch 41 (35326) - http://www.bohemiancoding.com/sketch -->
    <title>p2cash</title>
    <desc>Created with Sketch.</desc>
    <defs></defs>
    <g id="Symbols" stroke="none" stroke-width="1" fill="none" fill-rule="evenodd">
        <g id="Icons/transfers/p2cash-1,4-Copy" transform="translate(0.000000, -4.000000)">
            <g id="p2cash">
                <rect id="Rectangle-4" x="0" y="0" width="45" height="45"></rect>
                <g id="card" transform="translate(1.000000, 5.000000)" stroke="#061122" stroke-width="1.4">
                    <rect id="Rectangle" x="0" y="0" width="34" height="23" rx="2"></rect>
                    <path d="M0,6 L33.5037311,6" id="Path-2" stroke-linecap="round"></path>
                </g>
                <g id="atm" transform="translate(19.000000, 15.000000)" stroke-width="1.4">
                    <path d="M0.0798671371,10.7752157 L0.00869922084,2.95580663 C0.00389477384,2.4279292 0.44746922,2 1.00069463,2 L22.9993054,2 C23.5519738,2 24,2.42958608 24,2.95618895 L24,27.0438111 C24,27.5718996 23.5525308,28 22.9993054,28 L1.00069463,28 C0.448026248,28 0,27.5614853 0,27.0463207 L0,19.39576 L0.0798671371,10.7752157 Z" id="Rectangle-9" stroke="#00A9FF" fill="#FFFFFF"></path>
                    <path d="M4,9.08190079 L4,7.99217173 L4,7.99217173 C4,7.44421041 4.44463086,7 5.00087166,7 L18.9991283,7 C19.5518945,7 20,7.45576096 20,8.00247329 L20,17.9975267 C20,18.5511774 19.5553691,19 18.9991283,19 L5.00087166,19 C4.4481055,19 4,18.5455068 4,17.9972464 L4,17.0404168" id="Rectangle-9-Copy-2" stroke="#00A9FF" stroke-linecap="round" stroke-linejoin="round" fill="#FFFFFF"></path>
                    <polyline id="Path-2" stroke="#00A9FF" stroke-linecap="round" points="4 24 7.44194186 24 13 24"></polyline>
                    <polyline id="Path-2-Copy" stroke="#061122" stroke-linecap="round" points="17 24 18.1497726 24 20.0064288 24"></polyline>
                    <rect id="Rectangle-9-Copy" stroke="#00A9FF" fill="#FFFFFF" x="4" y="0" width="16" height="4" rx="1"></rect>
                </g>
                <path d="M15,28 L24.5131488,28" id="Path-2" stroke="#061122" stroke-width="1.4" stroke-linecap="round"></path>
            </g>
        </g>
    </g>
</svg>