<?xml version="1.0" encoding="UTF-8"?>
<svg width="45px" height="45px" viewBox="0 0 45 45" version="1.1" xmlns="http://www.w3.org/2000/svg" xmlns:xlink="http://www.w3.org/1999/xlink">
    <!-- Generator: Sketch 41 (35326) - http://www.bohemiancoding.com/sketch -->
    <title>Icons/transfers/p2abroad 1px</title>
    <desc>Created with Sketch.</desc>
    <defs></defs>
    <g id="Symbols" stroke="none" stroke-width="1" fill="none" fill-rule="evenodd">
        <g id="Icons/transfers/p2abroad-1px">
            <g id="international">
                <rect id="Rectangle-4" x="0" y="0" width="45" height="45"></rect>
                <g id="card" transform="translate(1.000000, 5.000000)" stroke="#061122">
                    <path d="M16.9358758,23 L2.00927341,23 C0.899582349,23 0,22.0983727 0,20.9991358 L0,2.00086422 L0,2.00086422 C0,0.895817426 0.891941149,0 1.9999204,0 L32.0000796,0 C33.1046051,0 34,0.896381706 34,2.0022704 L34,10.5135775" id="Rectangle"></path>
                    <path d="M0,5.5 L33.5037311,5.5" id="Path-2" stroke-linecap="round"></path>
                </g>
                <g id="p2abroad" transform="translate(18.000000, 15.000000)" stroke="#00A9FF">
                    <g id="glob">
                        <circle id="Oval-3" stroke-linecap="round" stroke-linejoin="round" cx="13" cy="13" r="13"></circle>
                        <path d="M0,12.5 L25.672968,12.5" id="Path-3" stroke-linecap="round"></path>
                        <path d="M12.5,0.5 L12.5,25.5798724" id="Line" stroke-linecap="square"></path>
                        <path d="M6,1 C6,1 10.1882482,6.87037971 10.1387492,13.5296183 C10.0892502,20.1888568 6.10348102,25.3544899 6.10348102,25.3544899" id="Line-Copy-3" stroke-linecap="square" transform="translate(8.069592, 13.177245) scale(-1, 1) translate(-8.069592, -13.177245) "></path>
                        <path d="M15.611269,1 C15.611269,1 19.7995172,6.87037971 19.7500182,13.5296183 C19.7005192,20.1888568 15.71475,25.3544899 15.71475,25.3544899" id="Line-Copy-4" stroke-linecap="square"></path>
                    </g>
                </g>
                <g id="Group-2" transform="translate(35.000000, 19.000000) rotate(90.000000) translate(-35.000000, -19.000000) translate(30.000000, 18.000000)" stroke="#061122" stroke-linecap="round">
                    <path d="M0,1 L9.5131488,1" id="Path-2"></path>
                </g>
            </g>
        </g>
    </g>
</svg>