<?xml version="1.0" encoding="UTF-8"?>
<svg width="41px" height="37px" viewBox="0 0 41 37" version="1.1" xmlns="http://www.w3.org/2000/svg" xmlns:xlink="http://www.w3.org/1999/xlink">
    <!-- Generator: Sketch 41 (35326) - http://www.bohemiancoding.com/sketch -->
    <title>towhatsapp</title>
    <desc>Created with Sketch.</desc>
    <defs></defs>
    <g id="Symbols" stroke="none" stroke-width="1" fill="none" fill-rule="evenodd">
        <g id="Icons/transfers/to-whatsapp" transform="translate(0.000000, -4.000000)">
            <g id="towhatsapp">
                <rect id="Rectangle-4" x="0" y="0" width="45" height="45"></rect>
                <rect id="Rectangle" stroke="#061122" stroke-width="1.4" x="1" y="5" width="34" height="23" rx="2"></rect>
                <path d="M1,11 L34.5037311,11" id="Path-2" stroke="#061122" stroke-width="1.4" stroke-linecap="round"></path>
                <path d="M28.5,40 C34.8512746,40 40,34.8512746 40,28.5 C40,22.1487254 34.8512746,17 28.5,17 C22.1487254,17 17,22.1487254 17,28.5 C17,30.4786519 17.4997085,32.3405905 18.3798085,33.9664992 C18.7890193,34.7224807 17.3581648,38.8643554 17.3581648,38.8643554 C17.3581648,38.8643554 21.2128292,37.4499577 22.0171374,37.9998889 C23.8629054,39.2618995 26.0952564,40 28.5,40 Z" id="Oval" stroke="#00A9FF" stroke-width="1.4" fill="#FFFFFF"></path>
                <g id="phone" transform="translate(23.000000, 22.000000)" stroke="#00A9FF" stroke-width="1.4">
                    <path d="M0.758976623,3.64677857 C2.11774286,7.85465571 5.37072987,11.1563214 9.51708052,12.5348414" id="Stroke-1"></path>
                    <path d="M10.1264117,9.30635086 L8.43147662,8.56601943 C7.70478831,8.24855943 6.86215195,8.58889943 6.54933377,9.32637086 L6.54933377,9.32637086 C6.16686623,10.2284966 6.57711299,11.274848 7.46645065,11.6629909 L8.35538571,12.0895394 L9.74273636,12.6578623 C10.0422688,12.7886051 10.3897104,12.6480566 10.5189442,12.3440794 L10.9340221,11.3651423 C11.2713987,10.5704709 10.9094636,9.64873371 10.1264117,9.30635086 Z" id="Stroke-5"></path>
                    <path d="M3.55578052,1.994148 L4.16853377,3.76040229 C4.43142987,4.51789371 4.0393,5.34770229 3.29328701,5.61449943 L3.29328701,5.61449943 C2.3801961,5.94053943 1.37933896,5.45393086 1.05806623,4.52729086 L0.235157143,2.15471657 C0.126455844,1.842568 0.2883,1.50059371 0.595884416,1.390688 L1.58667662,1.03645657 C2.39106623,0.749230857 3.27275455,1.17782229 3.55578052,1.994148 Z" id="Stroke-3"></path>
                </g>
                <g id="Group-2" transform="translate(35.000000, 19.000000) rotate(90.000000) translate(-35.000000, -19.000000) translate(30.000000, 18.000000)" stroke="#061122" stroke-width="1.4" stroke-linecap="round">
                    <path d="M0,1 L9.5131488,1" id="Path-2"></path>
                </g>
            </g>
        </g>
    </g>
</svg>