<?xml version="1.0" encoding="UTF-8"?>
<svg width="272px" height="273px" viewBox="0 0 272 273" version="1.1" xmlns="http://www.w3.org/2000/svg" xmlns:xlink="http://www.w3.org/1999/xlink">
    <!-- Generator: Sketch 42 (36781) - http://www.bohemiancoding.com/sketch -->
    <title>1-tale</title>
    <desc>Created with Sketch.</desc>
    <defs>
        <linearGradient x1="0%" y1="13.1497529%" x2="85.8576056%" y2="32.1246436%" id="linearGradient-1">
            <stop stop-color="#FFFFFF" offset="0%"></stop>
            <stop stop-color="#FFFFFF" stop-opacity="0" offset="100%"></stop>
        </linearGradient>
    </defs>
    <g id="index✅" stroke="none" stroke-width="1" fill="none" fill-rule="evenodd">
        <g id="d_index" transform="translate(-411.000000, -1533.000000)">
            <g id="transfers-copy" transform="translate(-1.000000, 1420.000000)">
                <g id="circular-shapes-virtual-card">
                    <g id="transfers-art" transform="translate(278.000000, -15.000000)">
                        <g id="bg" transform="translate(5.000000, 0.000000)">
                            <g id="1-tale" transform="translate(130.000000, 130.000000)">
                                <path d="M270,135 C270,209.558472 209.558583,270 135.000248,270 C60.4414169,270 0,209.558472 0,135 C0,84.0828328 28.1883142,39.7494434 69.8110105,16.753949 C89.1368078,6.07693127 111.358829,0 135.000248,0 C156.423547,0 176.681325,4.99017449 194.674623,13.8715632 C239.302416,35.8995857 270,81.8648663 270,135 Z" id="Stroke-3" stroke="#FFFFFF" stroke-width="1.4" opacity="0.800000012"></path>
                                <g id="dot-tail-2" transform="translate(57.000000, 0.000000)" stroke-width="3">
                                    <path d="M12.8110105,16.753949 C32.1368078,6.07693127 54.358829,0 78.0002477,0 C99.4235469,0 119.681325,4.99017449 137.674623,13.8715632" id="Stroke-3-Copy" stroke="url(#linearGradient-1)"></path>
                                    <circle id="Oval-6" stroke="#FFFFFF" fill="#00A9FF" cx="7.5" cy="20.5" r="7.5"></circle>
                                </g>
                            </g>
                        </g>
                    </g>
                </g>
            </g>
        </g>
    </g>
</svg>