<?xml version="1.0" encoding="UTF-8"?>
<svg width="448px" height="324px" viewBox="0 0 448 324" version="1.1" xmlns="http://www.w3.org/2000/svg" xmlns:xlink="http://www.w3.org/1999/xlink">
    <!-- Generator: Sketch 42 (36781) - http://www.bohemiancoding.com/sketch -->
    <title>go-bonus-art</title>
    <desc>Created with Sketch.</desc>
    <defs>
        <rect id="path-1" x="78.830127" y="1.83012702" width="10" height="10"></rect>
        <mask id="mask-2" maskContentUnits="userSpaceOnUse" maskUnits="objectBoundingBox" x="0" y="0" width="10" height="10" fill="white">
            <use xlink:href="#path-1"></use>
        </mask>
        <rect id="path-3" x="342.071068" y="36.0710678" width="10" height="10"></rect>
        <mask id="mask-4" maskContentUnits="userSpaceOnUse" maskUnits="objectBoundingBox" x="0" y="0" width="10" height="10" fill="white">
            <use xlink:href="#path-3"></use>
        </mask>
        <polygon id="path-5" points="323.888843 161.614746 326.984337 175.984337 312.614746 172.888843"></polygon>
        <mask id="mask-6" maskContentUnits="userSpaceOnUse" maskUnits="objectBoundingBox" x="0" y="0" width="14.3695912" height="14.3695912" fill="white">
            <use xlink:href="#path-5"></use>
        </mask>
        <linearGradient x1="0%" y1="-7.10329976%" x2="100%" y2="100%" id="linearGradient-7">
            <stop stop-color="#FFFFFF" offset="0%"></stop>
            <stop stop-color="#ECF1F7" offset="100%"></stop>
        </linearGradient>
        <polygon id="path-8" points="9.94347458 1.19995192 9.94347458 0.0403287841 0 0.0403287841 2.2970385e-21 1.19995192 9.94347458 1.19995192"></polygon>
        <polygon id="path-10" points="4.37075885 0.0444401365 0.0403767394 0.0444401365 0.0403767394 6.53055339 4.37075885 6.53055339 4.37075885 0.0444401365"></polygon>
        <polygon id="path-12" points="0.00948638894 2.3030397 1.51518279 2.3030397 1.51518279 0.0482663166 0.00948638894 0.0482663166"></polygon>
        <path d="M4.13589002,3.95395657 C3.93811009,3.4393739 4.21964162,3.02222222 4.76977892,3.02222222 L23.9413322,3.02222222 C24.4891993,3.02222222 24.8553095,3.46435707 24.7592355,4.00877666 L22.8407645,14.8801122 C22.7446129,15.4249712 22.2183783,15.8666667 21.6644544,15.8666667 L4.77999008,15.8666667 C4.22648351,15.8666667 3.85271401,15.4246773 3.94526676,14.8787822 L5.28888889,6.95382235 L4.13589002,3.95395657 Z" id="path-14"></path>
        <mask id="mask-15" maskContentUnits="userSpaceOnUse" maskUnits="objectBoundingBox" x="0" y="0" width="20.8433483" height="12.8444444" fill="white">
            <use xlink:href="#path-14"></use>
        </mask>
    </defs>
    <g id="index✅" stroke="none" stroke-width="1" fill="none" fill-rule="evenodd">
        <g id="d_index" transform="translate(-890.000000, -1980.000000)">
            <g id="Group-2" transform="translate(0.000000, 1914.000000)">
                <g id="go-bonus-art" transform="translate(852.000000, 0.000000)">
                    <rect id="Rectangle" x="0" y="46" width="560" height="372" rx="4"></rect>
                    <g id="elements" transform="translate(71.000000, 104.000000)">
                        <path d="M94.9076079,70.342251 L93.3626028,70.342251 C92.829383,70.342251 92.3969747,69.8988902 92.3969747,69.3521642 L92.3969747,67.7680253 C92.3969747,67.2212994 91.9645664,66.7779385 91.4313465,66.7779385 L91.4313465,66.7779385 C90.8981267,66.7779385 90.4657184,67.2212994 90.4657184,67.7680253 L90.4657184,69.3521642 C90.4657184,69.8988902 90.0333101,70.342251 89.5000902,70.342251 L87.9550852,70.342251 C87.4218653,70.342251 86.9894571,70.7856119 86.9894571,71.3323379 L86.9894571,71.5303552 C86.9894571,72.0770812 87.4218653,72.520442 87.9550852,72.520442 L89.5000902,72.520442 C90.0333101,72.520442 90.4657184,72.9638029 90.4657184,73.5105289 L90.4657184,75.0946678 C90.4657184,75.6413937 90.8981267,76.0847546 91.4313465,76.0847546 L91.4313465,76.0847546 C91.9645664,76.0847546 92.3969747,75.6413937 92.3969747,75.0946678 L92.3969747,73.5105289 C92.3969747,72.9638029 92.829383,72.520442 93.3626028,72.520442 L94.9076079,72.520442 C95.4408277,72.520442 95.873236,72.0770812 95.873236,71.5303552 L95.873236,71.3323379 C95.873236,70.7856119 95.4408277,70.342251 94.9076079,70.342251" id="Page-1-Copy" fill="#00A9FF" transform="translate(91.431347, 71.431347) rotate(-315.000000) translate(-91.431347, -71.431347) "></path>
                        <use id="Rectangle-7" stroke="#00A9FF" mask="url(#mask-2)" stroke-width="2.8" transform="translate(83.830127, 6.830127) rotate(-30.000000) translate(-83.830127, -6.830127) " xlink:href="#path-1"></use>
                        <use id="Rectangle-7-Copy" stroke="#00A9FF" mask="url(#mask-4)" stroke-width="2.8" transform="translate(347.071068, 41.071068) rotate(-135.000000) translate(-347.071068, -41.071068) " xlink:href="#path-3"></use>
                        <use id="Rectangle-9" stroke="#11D392" mask="url(#mask-6)" stroke-width="2.8" transform="translate(319.799542, 168.799542) rotate(-105.000000) translate(-319.799542, -168.799542) " xlink:href="#path-5"></use>
                        <path d="M17.797959,147.797959 C17.797959,138.961403 10.634515,131.797959 1.79795897,131.797959" id="Oval-8" stroke="#11D392" stroke-width="1.4" stroke-linecap="round" stroke-linejoin="round" transform="translate(9.797959, 139.797959) rotate(-105.000000) translate(-9.797959, -139.797959) "></path>
                        <path d="M232.430079,230.151173 C236.001854,230.151173 236.001854,234.406558 239.573629,234.406558 C243.145404,234.406558 243.145404,230.151173 246.717268,230.151173 C250.288777,230.151173 250.288777,234.406558 253.860286,234.406558 C257.431972,234.406558 257.431972,230.151173 261.003569,230.151173 C264.575344,230.151173 264.575344,234.406558 268.147119,234.406558 C271.718983,234.406558 271.718983,230.151173 275.290846,230.151173 C278.862621,230.151173 278.862621,234.406558 282.434308,234.406558" id="Page-1" stroke="#FFCC01" stroke-width="1.4"></path>
                    </g>
                    <g id="card-back" transform="translate(135.304106, 193.680884)" stroke-linecap="round" stroke-width="1.4">
                        <g id="p2p-icon-copy">
                            <g id="card" transform="translate(0.835527, 0.584869)">
                                <g id="Group-2" stroke="#00A9FF" fill="#FFFFFF">
                                    <path d="M0.00415621886,43.6215887 L0.00415621886,2.50995569 C0.00415621886,1.12374544 1.1259824,-7.10542736e-15 2.51994864,-7.10542736e-15 L68.9328443,-7.10542736e-15 L68.7936607,43.855004" id="Rectangle"></path>
                                </g>
                                <path d="M1.0431317,23.4365459 L68.7234248,23.4365459" id="Path-2-Copy" stroke="#061122"></path>
                            </g>
                        </g>
                    </g>
                    <g id="card" transform="translate(110.238281, 237.546077)" stroke-width="1.4">
                        <g id="p2p-icon">
                            <g id="card" transform="translate(0.835527, 0.584869)">
                                <g id="Group-2" transform="translate(0.000000, -0.000000)">
                                    <path d="M137.448427,60.6643192 L137.448427,87.8176086 C137.448427,89.1999288 136.321875,90.3205208 134.945496,90.3205208 L2.50708723,90.3205208 C1.1247566,90.3205208 0.00415621886,89.1948846 0.00415621886,87.8105651 L0.00415621886,2.50995569 L0.00415621886,2.50995569 C0.00415621886,1.12374544 1.1259824,0 2.51994864,0 L94.0609648,0" id="Rectangle" stroke="#00A9FF" fill="#FFFFFF"></path>
                                    <rect id="Rectangle-5" stroke="#FFCC01" x="15.0436509" y="23.8125332" width="21.3059508" height="13.7862035" rx="1"></rect>
                                    <path d="M104.15124,73.3133307 C102.82895,74.0401741 101.310818,74.4535178 99.6963132,74.4535178 C94.5719163,74.4535178 90.4175857,70.2873722 90.4175857,65.1499779 C90.4175857,61.5949881 92.4068477,58.5050715 95.3302671,56.9388559" id="Stroke-210" stroke="#00A9FF" stroke-linecap="round" stroke-linejoin="round"></path>
                                    <path d="M118.801297,60.8827777 C119.460574,62.1609754 119.832917,63.6119513 119.832917,65.1499779 C119.832917,70.2873722 115.678587,74.4535178 110.552915,74.4535178 L110.552915,74.4535178 C105.428518,74.4535178 101.274187,70.2873722 101.274187,65.1499779 C101.274187,63.6104701 101.647248,62.1581808 102.307679,60.8790853" id="Stroke-208" stroke="#00A9FF" stroke-linecap="round" stroke-linejoin="round"></path>
                                </g>
                                <path d="M15.7079167,69.8083211 L41.3086887,69.8083211" id="Path-2" stroke="#061122" stroke-linecap="round"></path>
                                <path d="M15.7079167,58.5287001 L68.7584839,58.5287001" id="Path-2-Copy" stroke="#061122" stroke-linecap="round"></path>
                            </g>
                        </g>
                    </g>
                    <g id="wallet" transform="translate(204.235123, 74.710372)">
                        <g id="towallet" transform="translate(0.194956, 0.086186)">
                            <path d="M0.362061909,91.0469486 L0.362061909,73.5025281 C0.362061909,66.4177843 6.29208353,62.876134 12.3826191,62.876134 L136.714382,62.876134 C141.562781,62.876134 145.493186,66.8025233 145.493186,71.6580617 L145.493186,89.5833366 L0.362061909,91.0469486 Z" id="Rectangle-Copy" stroke="#061122" stroke-width="1.4" fill="#FFFFFF"></path>
                            <path d="M0.425319398,77.8889896 C0.425319398,77.8889896 -1.49360836,90.0190792 11.4493373,89.8832973 C22.301167,89.8390068 176.110537,89.7561249 176.110537,89.7561249 C179.981631,89.7539948 183.119773,92.8924563 183.119773,96.7527245 L183.119773,217.132482 C183.119773,220.998727 179.986123,224.132938 176.123129,224.132938 L7.35870634,224.132938 C3.49456632,224.132938 0.36341976,220.993745 0.365091638,217.128558 L0.425319398,77.8889896 Z" id="Rectangle" stroke="#00A9FF" stroke-width="1.4" stroke-linecap="round" stroke-linejoin="round" fill="#FFFFFF"></path>
                            <path d="M150.931735,154.327076 L150.939213,139.130328 C150.939485,138.577481 151.393049,138.129309 151.938276,138.129309 L193.894966,138.129309 C196.849959,138.129309 199.245454,140.483021 199.245454,143.520282 L199.245454,170.364924 C199.245454,173.342276 196.796154,175.755897 193.894966,175.755897 L151.930491,175.93095 C151.378894,175.933251 150.931735,175.483802 150.931735,174.936252 L150.931735,154.327076 Z" id="Rectangle-2" stroke="#061122" stroke-width="1.4" stroke-linecap="round" stroke-linejoin="round" fill="#FFFFFF"></path>
                            <path d="M145.461034,85.822224 L145.461034,116.819343" id="Path-8" stroke="#061122" stroke-width="1.4" stroke-linecap="round" stroke-linejoin="round"></path>
                            <rect id="Rectangle-16" fill="#00A9FF" x="161.618866" y="151.656986" width="10.7504536" height="10.7504536" rx="5.3752268"></rect>
                            <g id="Group-3" transform="translate(32.613423, 50.003745)" fill="#FFCC01">
                                <path d="M2.58637235,38.7537565 C0.927960401,35.2627176 0,31.3574331 0,27.2354119 C0,12.3921329 12.0328551,0.359277843 26.876134,0.359277843 C41.719413,0.359277843 53.752268,12.3921329 53.752268,27.2354119 C53.752268,31.3574331 52.8243076,35.2627176 51.1658957,38.7537565 L2.58636465,38.753755 Z" id="coin"></path>
                            </g>
                            <ellipse id="Oval-11" fill="#FFCC01" cx="115.438067" cy="56.438067" rx="13.438067" ry="13.438067"></ellipse>
                            <ellipse id="Oval-11-Copy" fill="#FFCC01" cx="13.438067" cy="13.438067" rx="13.438067" ry="13.438067"></ellipse>
                        </g>
                    </g>
                    <g id="payment5" transform="translate(441.000000, 215.000000)">
                        <circle id="Oval-7" fill="url(#linearGradient-7)" cx="22.5" cy="22.5" r="22.5"></circle>
                        <g id="Icons/marketing/where-to-use" transform="translate(9.000000, 9.000000)">
                            <g id="taxi" transform="translate(15.000000, 4.333333)" fill="#00A9FF">
                                <path d="M10.1253051,0 L7.5764166,0 L7.5764166,2.5397128 L5.0367038,2.5397128 L5.0367038,0 L2.48781527,0 L2.48781527,2.5397128 L0.494277266,2.5397128 L0.00495926714,4.81502237 C-0.0243157019,4.95107452 0.0794028917,5.07942559 0.218568229,5.07942559 L2.49240314,5.07942559 L2.49240314,2.5397128 L5.03211593,2.5397128 L5.03211593,5.07942559 L7.58100446,5.07942559 L7.58100446,2.5397128 L10.1207173,2.5397128 L10.1207173,5.07942559 L12.4464934,5.07942559 C12.5856041,5.07942559 12.6893227,4.95107452 12.6600477,4.81502237 L12.1707297,2.5397128 L10.1253051,2.5397128 L10.1253051,0 Z" id="Fill-1"></path>
                            </g>
                            <g id="app-store" transform="translate(1.666667, 17.000000)">
                                <g id="Group-3" transform="translate(0.000000, 4.220448)">
                                    <mask id="mask-9" fill="white">
                                        <use xlink:href="#path-8"></use>
                                    </mask>
                                    <g id="Clip-2"></g>
                                    <path d="M9.36744068,1.19995192 L0.576084746,1.19995192 C0.257949153,1.19995192 -1.69491523e-05,0.940390819 -1.69491523e-05,0.620097705 L-1.69491523e-05,0.620097705 C-1.69491523e-05,0.299889888 0.257949153,0.0403287841 0.576084746,0.0403287841 L9.36744068,0.0403287841 C9.68557627,0.0403287841 9.94354237,0.299889888 9.94354237,0.620097705 L9.94354237,0.620097705 C9.94354237,0.940390819 9.68557627,1.19995192 9.36744068,1.19995192" id="Fill-1" fill="#070E23" mask="url(#mask-9)"></path>
                                </g>
                                <g id="Group-6" transform="translate(4.322034, 0.040858)">
                                    <mask id="mask-11" fill="white">
                                        <use xlink:href="#path-10"></use>
                                    </mask>
                                    <g id="Clip-5"></g>
                                    <path d="M3.30370339,6.25405785 L0.125652542,0.9277241 C-0.0408728814,0.654856545 0.0439576271,0.297800093 0.315059322,0.130189981 L0.315059322,0.130189981 C0.586161017,-0.0373348325 0.94090678,0.048048232 1.1074322,0.320915788 L4.28548305,5.64724953 C4.45200847,5.92011709 4.36717797,6.27717354 4.09607627,6.44478365 L4.09607627,6.44478365 C3.82488983,6.61230847 3.47014407,6.5269254 3.30370339,6.25405785" id="Fill-4" fill="#00A9FF" mask="url(#mask-11)"></path>
                                </g>
                                <g id="Group-9" transform="translate(8.050847, 6.523488)">
                                    <mask id="mask-13" fill="white">
                                        <use xlink:href="#path-12"></use>
                                    </mask>
                                    <g id="Clip-8"></g>
                                    <path d="M1.28533051,2.28470068 C1.29016102,2.30585453 1.31905932,2.30994882 1.32872034,2.29058623 C1.82736441,1.29362593 1.16804237,0.327202233 1.16804237,0.327202233 L1.16770339,0.327287531 C0.985245763,0.0573200993 0.625161017,-0.0330102357 0.336008475,0.128543734 C0.0297372881,0.299736352 -0.0806864407,0.688352978 0.0893135593,0.996619107 C0.468805085,1.79244727 1.03931356,1.20662221 1.28533051,2.28470068" id="Fill-7" fill="#00A9FF" mask="url(#mask-13)"></path>
                                </g>
                                <polygon id="Fill-10" fill="#00A9FF" points="2.00657627 7.1040245 4.37513559 3.04581266 3.38166102 2.45853753 1.01310169 6.51683468"></polygon>
                                <path d="M4.7414661,2.41794432 C4.9025678,2.14183545 4.81078814,1.78648496 4.5364661,1.6243339 L4.5364661,1.6243339 C4.26205932,1.46218285 3.90909322,1.55456033 3.74799153,1.8307545 L3.51044915,2.23788074 L4.50392373,2.82507056 L4.7414661,2.41794432 Z" id="Fill-12" fill="#00A9FF"></path>
                                <path d="M0.522898305,8.33858173 L0.877644068,6.69651442 L1.87111864,7.28370425 L0.619169492,8.39547534 C0.576627119,8.43326225 0.510864407,8.39436647 0.522898305,8.33858173" id="Fill-14" fill="#00A9FF"></path>
                            </g>
                            <g id="ticket" transform="translate(1.666667, 1.666667)" fill="#00A9FF">
                                <path d="M8.88487983,2.94679399 C8.37088841,3.46078541 7.53754077,3.46078541 7.02354936,2.94679399 C6.50955794,2.43280258 6.50955794,1.59945494 7.02354936,1.08546352 L5.94114592,0.00306008584 L0.00303433476,5.94112876 L1.08548069,7.02353219 C1.5994721,6.50954077 2.43281974,6.50954077 2.94681116,7.02353219 C3.46080258,7.53752361 3.46080258,8.37087124 2.94681116,8.88486266 L4.02921459,9.96730901 L9.96728326,4.02919742 L8.88487983,2.94679399 Z" id="Stroke-1"></path>
                                <path d="M7.27743634,6.71907868 L3.25125608,2.69289843" id="Stroke-3" stroke="#061122" stroke-linecap="round" stroke-dasharray="1,3"></path>
                            </g>
                            <g id="cart" transform="translate(15.333333, 17.000000)">
                                <path d="M2.92750503,2.23209786 C2.72812641,1.71335573 3.01528034,1.29283215 3.56956528,1.29283215 L10.613256,1.29283215 C11.1672347,1.29283215 11.5402384,1.72397922 11.4429738,2.27514518 L10.8200484,5.80505574 C10.7243102,6.34757225 10.189121,6.78736877 9.65590779,6.78736877 L3.55728935,6.78736877 C3.01009046,6.78736877 2.64065025,6.35000418 2.73296631,5.80550507 L3.21291418,2.97467374 L2.92750503,2.23209786 Z" id="Rectangle-23" fill="#00A9FF"></path>
                                <polyline id="Path-10" stroke="#061122" stroke-linecap="round" stroke-linejoin="round" points="0.996622721 0 2.28107748 0 2.97203175 1.59537151"></polyline>
                                <ellipse id="Oval-15" fill="#061122" cx="9.56501298" cy="8.24180494" rx="0.808020092" ry="0.808020092"></ellipse>
                                <ellipse id="Oval-15-Copy" fill="#061122" cx="3.10085224" cy="8.24180494" rx="0.808020092" ry="0.808020092"></ellipse>
                            </g>
                        </g>
                    </g>
                    <g id="payment4" transform="translate(71.000000, 340.000000)">
                        <circle id="Oval-7" fill="url(#linearGradient-7)" cx="20" cy="20" r="20"></circle>
                        <g id="Icons/cards/paypass" transform="translate(8.000000, 8.000000)">
                            <rect id="BG-container" x="0" y="0" width="25" height="25"></rect>
                            <g id="paypass" transform="translate(2.777778, 2.222222)" stroke-linecap="round" stroke-linejoin="round">
                                <g id="waves" transform="translate(15.932039, 10.292332) rotate(-315.000000) translate(-15.932039, -10.292332) translate(8.932039, 3.292332)">
                                    <path d="M1.03028697e-13,8.96527778 C1.17833333,8.96527778 2.30944444,9.43361111 3.14277778,10.2669444 C3.97611111,11.1002778 4.44444444,12.2313889 4.44444444,13.4097222" id="Stroke-3" stroke="#1D1D1B"></path>
                                    <path d="M4.24549285e-13,4.48266667 C2.36666667,4.48266667 4.63888889,5.42377778 6.31222222,7.09711111 C7.98611111,8.771 8.92722222,11.0432222 8.92722222,13.4098889" id="Stroke-7" stroke="#00A9FF"></path>
                                    <path d="M-2.18491891e-13,-2.14939178e-13 C3.555,-2.14939178e-13 6.96833333,1.41388889 9.48222222,3.92777778 C11.9961111,6.44166667 13.4094444,9.85444444 13.4094444,13.4094444" id="Stroke-11" stroke="#1D1D1B"></path>
                                </g>
                                <g id="card" transform="translate(0.000000, 3.333333)" stroke="#00A9FF">
                                    <g id="Group-2">
                                        <path d="M0.200000074,4.54747351e-13 L6.38886706,4.54747351e-13 C6.8476443,4.54747351e-13 7.21955674,0.371494227 7.21955674,0.837534433 L7.21955674,13.0513545 C7.21955674,13.513912 6.84311795,13.8888889 6.38392485,13.8888889 L0.200000074,13.8888889" id="Rectangle"></path>
                                        <path d="M2.59426989,10.7180808 C2.38839804,10.8298499 2.15203465,10.8934111 1.90066685,10.8934111 C1.10283167,10.8934111 0.456029467,10.252769 0.456029467,9.46277467 C0.456029467,8.67278035 1.10283167,8.0321382 1.90066685,8.0321382 C2.17927776,8.0321382 2.43945567,8.11022351 2.66011253,8.24548823" id="Stroke-210"></path>
                                        <path d="M5.2309341,9.46277467 C5.2309341,10.252769 4.5841319,10.8934111 3.78609825,10.8934111 C2.98826307,10.8934111 2.34146086,10.252769 2.34146086,9.46277467 C2.34146086,8.67278035 2.98826307,8.0321382 3.78609825,8.0321382 C4.5841319,8.0321382 5.2309341,8.67278035 5.2309341,9.46277467 L5.2309341,9.46277467 Z" id="Stroke-208"></path>
                                    </g>
                                </g>
                            </g>
                        </g>
                    </g>
                    <g id="payment3" transform="translate(38.000000, 118.000000)">
                        <circle id="Oval-7" fill="url(#linearGradient-7)" cx="25" cy="25" r="25"></circle>
                        <g id="Icons/cards/avia-Copy" transform="translate(8.000000, 8.000000)">
                            <rect id="BG-container" x="0" y="0" width="34" height="34"></rect>
                            <g id="Page-1" transform="translate(0.755556, 8.311111)" stroke-linecap="round">
                                <path d="M16.3333333,0.359683155 L16.3333333,3.94561803" id="Path-2" stroke="#061122"></path>
                                <path d="M11.3906621,3.5 L21.1586243,3.5" id="Path-3" stroke="#061122"></path>
                                <path d="M21.5270628,9.59205573 C21.5270628,12.4522825 19.1591533,14.770921 16.2381467,14.770921 C13.3171401,14.770921 10.9491604,12.4522825 10.9491604,9.59205573 C10.9491604,6.73182894 13.3171401,4.41319047 16.2381467,4.41319047 C19.1591533,4.41319047 21.5270628,6.73182894 21.5270628,9.59205573 Z" id="Stroke-1" stroke="#00A9FF"></path>
                                <path d="M13.2288366,9.31480676 C13.2288366,7.69831611 14.5873001,6.36811937 16.2381411,6.36811937 C17.8889822,6.36811937 19.2473866,7.69831611 19.2473866,9.31480676" id="Stroke-3" stroke="#000000"></path>
                                <polyline id="Stroke-7" stroke="#00A9FF" points="10.9491814 11.182699 1.26664913 11.182699 0.0262687771 9.80828379"></polyline>
                                <polyline id="Stroke-9" stroke="#00A9FF" points="21.5270628 11.182699 31.2095951 11.182699 32.4499755 9.80828379"></polyline>
                                <path d="M8.8213403,12.8148171 C8.8213403,13.7162273 8.0751049,14.4469351 7.15453972,14.4469351 C6.23397453,14.4469351 5.48773914,13.7162273 5.48773914,12.8148171 C5.48773914,11.9134069 6.23397453,11.182699 7.15453972,11.182699 C8.0751049,11.182699 8.8213403,11.9134069 8.8213403,12.8148171 Z" id="Stroke-13" stroke="#000000"></path>
                                <path d="M26.9885051,12.8148171 C26.9885051,13.7162273 26.2422697,14.4469351 25.3217046,14.4469351 C24.4011394,14.4469351 23.654904,13.7162273 23.654904,12.8148171 C23.654904,11.9134069 24.4011394,11.182699 25.3217046,11.182699 C26.2422697,11.182699 26.9885051,11.9134069 26.9885051,12.8148171 Z" id="Stroke-15" stroke="#000000"></path>
                            </g>
                        </g>
                    </g>
                    <g id="payment2" transform="translate(406.000000, 330.000000)">
                        <circle id="Oval-7" fill="url(#linearGradient-7)" cx="30" cy="30" r="30"></circle>
                        <g id="Icons/payments/alseko" transform="translate(11.000000, 11.000000)">
                            <g id="alseko">
                                <rect id="Rectangle-4" x="0" y="0" width="38" height="38"></rect>
                                <g id="home" transform="translate(5.911111, 3.377778)">
                                    <path d="M0,11.6346683 C0,10.8055039 0.547388507,9.73420139 1.20996019,9.25108287 L11.5292632,1.72669491 C12.1975058,1.23944143 13.2803766,1.24357639 13.9467996,1.73510216 L24.1257571,9.24267562 C24.7926831,9.73457229 25.3333333,10.8118275 25.3333333,11.6346683 L25.3333333,29.7431094 C25.3333333,30.5722739 24.6636895,31.2444444 23.828629,31.2444444 L21.1654423,31.2444444 L10.9223934,31.2444444 L1.4958104,31.2444444 C0.669697127,31.2444444 0,30.5659503 0,29.7431094 L0,11.6346683 Z" id="Rectangle-6" stroke="#00A9FF"></path>
                                    <rect id="Rectangle-8" stroke="#00A9FF" x="12.6666667" y="21.1111111" width="5.91111111" height="10.1333333" rx="1.5"></rect>
                                    <polyline id="Path-6" stroke="#061122" stroke-linecap="round" stroke-linejoin="round" points="6.79188184 4.99956129 6.79188184 6.24936399e-16 3.37777778 0 3.37777778 15.1578967"></polyline>
                                </g>
                            </g>
                        </g>
                    </g>
                    <g id="payment1" transform="translate(436.000000, 66.000000)">
                        <circle id="Oval-7" fill="url(#linearGradient-7)" cx="25" cy="25" r="25"></circle>
                        <g id="Icons/cards/online-payments" transform="translate(8.000000, 8.000000)">
                            <rect id="BG-container" x="0" y="0" width="34" height="34"></rect>
                            <g id="cart" transform="translate(3.777778, 6.044444)">
                                <use id="Rectangle-23" stroke="#00A9FF" mask="url(#mask-15)" stroke-width="2" fill="#FFFFFF" xlink:href="#path-14"></use>
                                <polyline id="Path-10" stroke="#061122" stroke-linecap="round" stroke-linejoin="round" points="0 0 3.0026386 0 4.61786557 3.72946111"></polyline>
                                <path d="M10.5846155,3.76271935 L8.49151636,15.2274823" id="Path-11" stroke="#00A9FF"></path>
                                <path d="M15.1179488,3.76271935 L13.0248497,15.2274823" id="Path-11-Copy" stroke="#00A9FF"></path>
                                <path d="M19.6512822,3.76271935 L17.558183,15.2274823" id="Path-11-Copy-2" stroke="#00A9FF"></path>
                                <circle id="Oval-15" stroke="#061122" cx="20.0222222" cy="19.2666667" r="1.88888889"></circle>
                                <ellipse id="Oval-15-Copy" stroke="#061122" cx="4.91111111" cy="19.2666667" rx="1.88888889" ry="1.88888889"></ellipse>
                                <path d="M5.33413444,9.5 L23.1929071,9.5" id="Path-12" stroke="#00A9FF"></path>
                            </g>
                        </g>
                    </g>
                </g>
            </g>
        </g>
    </g>
</svg>