<?xml version="1.0" encoding="UTF-8"?>
<svg width="368px" height="243px" viewBox="0 0 368 243" version="1.1" xmlns="http://www.w3.org/2000/svg" xmlns:xlink="http://www.w3.org/1999/xlink">
    <!-- Generator: Sketch 42 (36781) - http://www.bohemiancoding.com/sketch -->
    <title>card visual</title>
    <desc>Created with Sketch.</desc>
    <defs>
        <linearGradient x1="0%" y1="-7.10329976%" x2="100%" y2="100%" id="linearGradient-1">
            <stop stop-color="#F6FAFF" offset="0%"></stop>
            <stop stop-color="#DCE3EA" offset="100%"></stop>
        </linearGradient>
        <rect id="path-2" x="20" y="88" width="328" height="131" rx="4"></rect>
        <filter x="-50%" y="-50%" width="200%" height="200%" filterUnits="objectBoundingBox" id="filter-3">
            <feOffset dx="0" dy="8" in="SourceAlpha" result="shadowOffsetOuter1"></feOffset>
            <feGaussianBlur stdDeviation="8" in="shadowOffsetOuter1" result="shadowBlurOuter1"></feGaussianBlur>
            <feColorMatrix values="0 0 0 0 0   0 0 0 0 0   0 0 0 0 0  0 0 0 0.16 0" type="matrix" in="shadowBlurOuter1"></feColorMatrix>
        </filter>
        <linearGradient x1="0%" y1="0%" x2="101.999998%" y2="100.999999%" id="linearGradient-4">
            <stop stop-color="#3023AE" offset="0%"></stop>
            <stop stop-color="#C96DD8" offset="100%"></stop>
        </linearGradient>
        <linearGradient x1="100%" y1="5.27121187%" x2="-7.67913495%" y2="28.9965951%" id="linearGradient-5">
            <stop stop-color="#FFE300" offset="0%"></stop>
            <stop stop-color="#ECAE38" offset="100%"></stop>
        </linearGradient>
    </defs>
    <g id="index✅" stroke="none" stroke-width="1" fill="none" fill-rule="evenodd">
        <g id="d_index" transform="translate(-656.000000, -1060.000000)">
            <g id="Virtual-card-2" transform="translate(0.000000, 840.000000)">
                <g id="circular-shapes" transform="translate(518.000000, 8.000000)">
                    <g id="index-virtual-card">
                        <g id="card-visual" transform="translate(138.000000, 212.000000)">
                            <rect id="Rectangle-6" fill="url(#linearGradient-4)" x="0" y="0" width="368" height="220" rx="4"></rect>
                            <rect id="cc" fill="url(#linearGradient-5)" x="30" y="75" width="40" height="30" rx="2"></rect>
                            <g id="master-card" opacity="0.200000003" transform="translate(288.000000, 160.000000)" stroke="#FFFFFF" stroke-width="8" stroke-linecap="round" stroke-linejoin="round">
                                <path d="M22.1824724,27.7011424 C20.0467226,28.8538598 17.5946483,29.509391 14.9869156,29.509391 C6.71003683,29.509391 1.77635684e-15,22.902206 1.77635684e-15,14.7546955 C1.77635684e-15,6.60718508 6.71003683,0 14.9869156,0 C17.8772729,0 20.5764031,0.805323347 22.8655352,2.20035969" id="Stroke-210"></path>
                                <path d="M49.5356785,14.7546955 C49.5356785,22.902206 42.8256416,29.509391 34.5467039,29.509391 C26.2698251,29.509391 19.5597882,22.902206 19.5597882,14.7546955 C19.5597882,6.60718508 26.2698251,0 34.5467039,0 C42.8256416,0 49.5356785,6.60718508 49.5356785,14.7546955 L49.5356785,14.7546955 Z" id="Stroke-208"></path>
                            </g>
                        </g>
                    </g>
                </g>
            </g>
        </g>
    </g>
</svg>