<?xml version="1.0" encoding="UTF-8"?>
<svg width="45px" height="45px" viewBox="0 0 45 45" version="1.1" xmlns="http://www.w3.org/2000/svg" xmlns:xlink="http://www.w3.org/1999/xlink">
    <!-- Generator: Sketch 41.2 (35397) - http://www.bohemiancoding.com/sketch -->
    <title>Icons/payments/alseko white</title>
    <desc>Created with Sketch.</desc>
    <defs></defs>
    <g id="Symbols" stroke="none" stroke-width="1" fill="none" fill-rule="evenodd">
        <g id="Icons/payments/alseko-white">
            <rect id="Rectangle-4" x="0" y="0" width="45" height="45"></rect>
            <g id="home" transform="translate(7.000000, 4.000000)" stroke="#FFFFFF" stroke-width="1.4">
                <path d="M0,13.507562 C0,12.6749585 0.536915968,11.6085042 1.20904307,11.1184183 L13.8768794,1.88158174 C14.5446155,1.39469759 15.63441,1.40454148 16.2937709,1.89085848 L28.7921516,11.1091415 C29.4592278,11.6011491 30,12.6686896 30,13.507562 L30,35.492438 C30,36.3250415 29.3313451,37 28.4917359,37 L1.50826408,37 C0.675272828,37 0,36.3313104 0,35.492438 L0,13.507562 Z" id="Rectangle-6"></path>
                <rect id="Rectangle-8" x="15" y="25" width="7" height="12" rx="1.5"></rect>
                <polyline id="Path-6" stroke-linecap="round" stroke-linejoin="round" points="8.04301797 5.92053311 8.04301797 7.40056262e-16 4 0 4 17.9501408"></polyline>
            </g>
        </g>
    </g>
</svg>