<?xml version="1.0" encoding="UTF-8"?>
<svg width="45px" height="45px" viewBox="0 0 45 45" version="1.1" xmlns="http://www.w3.org/2000/svg" xmlns:xlink="http://www.w3.org/1999/xlink">
    <!-- Generator: Sketch 41 (35326) - http://www.bohemiancoding.com/sketch -->
    <title>Icons/payments/Loans 1.4 </title>
    <desc>Created with Sketch.</desc>
    <defs>
        <rect id="path-1" x="0" y="0" width="38" height="28.5"></rect>
        <line id="path-3" x1="0" y1="23.0769231" x2="38" y2="23.0769231"/>
        <line id="path-5" x1="0" y1="25.50" x2="38" y2="25.50"/>
    </defs>
    <g id="Symbols" stroke="none" stroke-width="1" fill="none" fill-rule="evenodd">
        <g id="Icons/payments/Loans-1.4-">
            <rect id="Rectangle-4" x="0" y="0" width="45" height="45"></rect>
            <g id="tenge" transform="translate(4.000000, 6.000000)">
                <g id="bg" transform="translate(0.000000, 2.000000)" stroke="#00A9FF" stroke-width="1.4"  stroke-linecap="round" stroke-linejoin="round">
                    <use id="1" xlink:href="#path-1"></use>
                    <use id="2" xlink:href="#path-3"></use>
                    <use id="3" xlink:href="#path-5"></use>
                </g>
                <g id="corners-left" transform="translate(0.000000, 2.000000)" stroke-width="1.4">
                    <path d="M7.15445134,1.12522947 L1.15461507,6.95502989" id="Line" stroke="#00A9FF" stroke-linecap="square"></path>
                    <path d="M9.03330004,16.153268 L1.15461507,24.031953" id="Line-Copy" stroke="#061122" stroke-linecap="round" stroke-linejoin="round" transform="translate(5.500000, 20.076923) scale(1, -1) translate(-5.500000, -20.076923) "></path>
                </g>
                <g id="corners-righ" transform="translate(32.500000, 13.000000) scale(-1, 1) translate(-32.500000, -13.000000) translate(27.000000, 0.000000)" stroke-width="1.4">
                    <path d="M10.0659491,0.0436958176 L1.15461507,8.95502989" id="Line" stroke="#061122" stroke-linecap="round" stroke-linejoin="round"></path>
                    <path d="M7.15445134,18.1252295 L1.15461507,23.9550299" id="Line-Copy" stroke="#00A9FF" stroke-linecap="square" transform="translate(4.156250, 21.038462) scale(1, -1) translate(-4.156250, -21.038462) "></path>
                </g>
                <g id="sign" transform="translate(13.062500, 7.769231)" stroke="#061122" stroke-width="1.4" stroke-linecap="square">
                    <path d="M0.609011807,0.915384615 L10.3532007,0.915384615" id="Line"></path>
                    <path d="M0.609011807,4.37692308 L10.3532007,4.37692308" id="Line-Copy-2"></path>
                    <path d="M5.58125,4.72911245 L5.58125,10.9661489" id="Line"></path>
                </g>
            </g>
        </g>
    </g>
</svg>