<?xml version="1.0" encoding="UTF-8"?>
<svg width="45px" height="45px" viewBox="0 0 45 45" version="1.1" xmlns="http://www.w3.org/2000/svg" xmlns:xlink="http://www.w3.org/1999/xlink">
    <!-- Generator: Sketch 41 (35326) - http://www.bohemiancoding.com/sketch -->
    <title>Icons/payments/PDD true</title>
    <desc>Created with Sketch.</desc>
    <defs></defs>
    <g id="Symbols" stroke="none" stroke-width="1" fill="none" fill-rule="evenodd">
        <g id="Icons/payments/PDD-true">
            <rect id="bg" x="0" y="0" width="45" height="45"></rect>
            <g id="car" transform="translate(1.000000, 7.000000)" stroke-width="1.4">
                <path d="M26.0001377,12.0978589 C26.0001377,12.0978589 25.9149705,8 29.9804399,8 C34.0459092,8 33.890902,12.057372 33.890902,12.057372" id="Path-7" stroke="#061122"></path>
                <path d="M3,21 L40.9628931,21" id="Path-5" stroke="#00A9FF"></path>
                <path d="M3,17 L11.5146932,17" id="Path-5-Copy" stroke="#061122" stroke-linecap="round"></path>
                <path d="M32,17 L40.5146932,17" id="Path-5-Copy-2" stroke="#061122" stroke-linecap="round"></path>
                <path d="M9.22970764,1.84870166 C9.65512836,0.827691924 10.8970262,0 12.0049466,0 L31.9950534,0 C33.1023548,0 34.3436702,0.824808598 34.7702924,1.84870166 L39,12 L22.1893419,12 L5,12 L9.22970764,1.84870166 Z" id="Rectangle-Copy-2" stroke="#00A9FF"></path>
                <rect id="Rectangle-10-Copy-2" stroke="#061122" x="6" y="26" width="6" height="5" rx="1"></rect>
                <rect id="Rectangle-10-Copy" stroke="#061122" x="32" y="26" width="6" height="5" rx="1"></rect>
                <rect id="Rectangle-Copy-3" stroke="#00A9FF" stroke-linecap="round" x="3" y="12" width="38" height="14" rx="2"></rect>
                <path d="M10.9990902,24 C10.9990902,24 10.999724,24.437973 11.0005418,25.0031392 L11.0077704,29.9983256 C11.0085721,30.5523441 10.5582469,31.0014648 10.0184441,31.0014648 L6,31.0014648" id="Rectangle-10-Copy-4" stroke="#061122" stroke-linecap="round" transform="translate(8.503886, 27.500732) scale(-1, 1) translate(-8.503886, -27.500732) "></path>
            </g>
        </g>
    </g>
</svg>