<?xml version="1.0" encoding="UTF-8"?>
<svg width="45px" height="45px" viewBox="0 0 45 45" version="1.1" xmlns="http://www.w3.org/2000/svg" xmlns:xlink="http://www.w3.org/1999/xlink">
    <!-- Generator: Sketch 41.2 (35397) - http://www.bohemiancoding.com/sketch -->
    <title>Icons/payments/Qiwi 1.4</title>
    <desc>Created with Sketch.</desc>
    <defs></defs>
    <g id="Symbols" stroke="none" stroke-width="1" fill="none" fill-rule="evenodd">
        <g id="Icons/payments/Qiwi-1.4">
            <rect id="Rectangle-4" x="0" y="0" width="45" height="45"></rect>
            <g id="Page-1" transform="translate(4.000000, 3.000000)">
                <path d="M36.3495482,37.6506 C30.2245482,31.8776 24.0055482,32.4726 22.0705482,32.8746 C19.7835482,33.3506 17.4135482,33.8246 14.8905482,33.5026 C7.51654815,32.5616 1.56754815,26.6036 0.636548153,19.2286 C-0.742451847,8.3066 8.52154815,-0.8664 19.4685482,0.6686 C26.8165482,1.6986 32.6685482,7.7136 33.5265482,15.0836 C33.8295482,17.6856 33.5285482,20.1866 32.7455482,22.4626 C32.5765482,22.9546 32.2475482,23.8056 31.3555482,25.3336 C31.3555482,25.3336 30.8055482,19.6156 25.1265482,18.3816 C24.9895482,18.3516 24.9965482,18.1546 25.1365482,18.1376 C26.3295482,17.9856 28.4805482,17.6246 29.3045482,17.4846 C29.4985482,17.4516 29.6415482,17.2816 29.6415482,17.0846 C29.6395482,10.4566 24.2615482,4.7886 17.6065482,4.5116 C10.4315482,4.2116 4.49954815,9.9616 4.49954815,17.0706 C4.49954815,24.0026 10.1395482,29.6426 17.0705482,29.6426 C18.1705482,29.6426 17.2455482,25.9496 17.4255482,24.6936 C17.4525482,24.5016 17.7005482,24.4396 17.8225482,24.5916 C18.5745482,25.5346 20.7507411,28.8903079 25.4605482,30.4576 C30.6066484,32.1700783 34.0985482,35.6796 36.3495482,37.6506 Z" id="Stroke-1" stroke="#00A9FF" stroke-width="1.4" stroke-linecap="round" stroke-linejoin="round"></path>
                <path d="M27.0297262,27.4949424 C27.1987262,28.2329424 26.6047262,28.8099424 25.7037262,28.7819424 C24.8017262,28.7549424 24.0407262,28.0889424 24.0017262,27.2949424 C23.9637262,26.5019424 24.5577262,25.9249424 25.3277262,26.0079424 C26.0987262,26.0909424 26.8607262,26.7569424 27.0297262,27.4949424" id="Fill-3" fill="#061122"></path>
                <path d="M28.8842744,25.2422297 C29.3702744,25.5822297 29.7702744,25.3282297 29.7692744,24.6592297 C29.7632744,23.9822297 29.3532744,23.2602297 28.8602744,23.0602297 C28.3712744,22.8672297 27.9882744,23.1542297 28.0002744,23.6902297 C28.0112744,24.2242297 28.4042744,24.9132297 28.8842744,25.2422297" id="Fill-5" fill="#061122"></path>
            </g>
        </g>
    </g>
</svg>