<?xml version="1.0" encoding="UTF-8"?>
<svg width="45px" height="45px" viewBox="0 0 45 45" version="1.1" xmlns="http://www.w3.org/2000/svg" xmlns:xlink="http://www.w3.org/1999/xlink">
    <!-- Generator: Sketch 41 (35326) - http://www.bohemiancoding.com/sketch -->
    <title>Icons/payments/onai true</title>
    <desc>Created with Sketch.</desc>
    <defs></defs>
    <g id="Symbols" stroke="none" stroke-width="1" fill="none" fill-rule="evenodd">
        <g id="Icons/payments/onai-true">
            <g id="bus">
                <rect id="Rectangle-4" x="0" y="0" width="45" height="45"></rect>
                <g transform="translate(3.000000, 5.000000)" stroke-width="1.4">
                    <rect id="Rectangle-10" stroke="#061122" x="8" y="30" width="6" height="5" rx="1"></rect>
                    <rect id="Rectangle-10-Copy" stroke="#061122" x="25" y="30" width="6" height="5" rx="1"></rect>
                    <path d="M5,3.00457094 C5,1.34519223 6.3405687,0 7.99428189,0 L31.0057181,0 C32.6594143,0 34,1.34731857 34,3.00001915 L34,26.9999809 C34,28.6568457 32.6594313,30 31.0057181,30 L7.99428189,30 C6.34058566,30 5,28.6499951 5,27.0054221 L5,17.1583997 L5,14.0862245 L5,3.00457094 Z" id="Rectangle" stroke="#00A9FF"></path>
                    <polyline id="Path-3-Copy" stroke="#061122" stroke-linecap="round" stroke-linejoin="round" transform="translate(36.049751, 8.987852) scale(-1, 1) translate(-36.049751, -8.987852) " points="38.0995012 6 34 6 34 11.9757039 35.9786306 11.9757039"></polyline>
                    <g id="Group-2" transform="translate(19.500000, 13.000000) rotate(90.000000) translate(-19.500000, -13.000000) translate(13.000000, 12.000000)" stroke="#00A9FF">
                        <path d="M0,1 L13,1" id="Path-4-Copy-2"></path>
                    </g>
                    <path d="M0.49626766,6 L33.9891887,6" id="Path-4" stroke="#061122" stroke-linecap="round"></path>
                    <path d="M8.49432018,19 L30.5049015,19" id="Path-4-Copy" stroke="#00A9FF" stroke-linecap="round"></path>
                    <path d="M8.49432018,3 L30.5049015,3" id="Path-4-Copy-4" stroke="#00A9FF" stroke-linecap="round"></path>
                    <path d="M5,23 L14.5131488,23" id="Path-4-Copy-3" stroke="#00A9FF" stroke-linecap="round"></path>
                    <path d="M24,23 L33.5131488,23" id="Path-4-Copy-5" stroke="#00A9FF" stroke-linecap="round"></path>
                    <path d="M30.9990902,28 C30.9990902,28 30.999724,28.437973 31.0005418,29.0031392 L31.0077704,33.9983256 C31.0085721,34.5523441 30.5582469,35.0014648 30.0184441,35.0014648 L26,35.0014648" id="Rectangle-10-Copy-4" stroke="#061122" stroke-linecap="round"></path>
                </g>
            </g>
        </g>
    </g>
</svg>