<?xml version="1.0" encoding="UTF-8"?>
<svg width="45px" height="45px" viewBox="0 0 45 45" version="1.1" xmlns="http://www.w3.org/2000/svg" xmlns:xlink="http://www.w3.org/1999/xlink">
    <!-- Generator: Sketch 41.2 (35397) - http://www.bohemiancoding.com/sketch -->
    <title>Icons/payments/TV 1.4</title>
    <desc>Created with Sketch.</desc>
    <defs></defs>
    <g id="Symbols" stroke="none" stroke-width="1" fill="none" fill-rule="evenodd">
        <g id="Icons/payments/TV-1.4">
            <rect id="Rectangle-4" x="0" y="0" width="45" height="45"></rect>
            <g id="car" transform="translate(5.000000, 7.000000)" stroke-width="1.4" stroke-linecap="round" stroke-linejoin="round">
                <path d="M31.6216216,19.7 L32.6138633,19.7" id="Line-Copy" stroke="#061122"></path>
                <path d="M27.7297297,19.7 L28.7219714,19.7" id="Line-Copy-2" stroke="#061122"></path>
                <path d="M12.7328587,24 L11.7438723,24 L1.94710547,24 C0.871748811,24 0,23.1103261 0,22.008845 L0,1.991155 C0,0.891470458 0.877476444,0 1.94872789,0 L34.0512721,0 C35.1275248,0 36,0.889673948 36,1.991155 L36,22.008845 C36,23.1085295 35.1293756,24 34.0532525,24 L24.3585156,24 L23.459437,24" id="Rectangle" stroke="#00A9FF"></path>
                <polyline id="Triangle" stroke="#061122" points="15.383493 32 11.6756757 32 18 21 18 21 19.3876386 23.4135423 21.2389681 26.6335898 21.717797 27.4664247 24.3243243 32 17.955124 32"></polyline>
            </g>
        </g>
    </g>
</svg>