<?xml version="1.0" encoding="UTF-8"?>
<svg width="22px" height="27px" viewBox="0 0 22 27" version="1.1" xmlns="http://www.w3.org/2000/svg" xmlns:xlink="http://www.w3.org/1999/xlink">
    <!-- Generator: sketchtool 42 (36781) - http://www.bohemiancoding.com/sketch -->
    <title>48260E7B-23CB-4B41-AB2D-1947C1C62118</title>
    <desc>Created with sketchtool.</desc>
    <defs></defs>
    <g id="bank-cards" stroke="none" stroke-width="1" fill="none" fill-rule="evenodd">
        <g id="d_bank-cards_my-card_overview" transform="translate(-661.000000, -2018.000000)" fill="#00A9FF">
            <g id="benefits-copy-5" transform="translate(462.000000, 1834.000000)">
                <g id="фpp" transform="translate(20.000000, 173.000000)">
                    <g id="button_primary-copy" transform="translate(165.000000, 0.000000)">
                        <g id="appstore" transform="translate(14.608696, 11.368421)">
                            <path d="M17.5708138,13.7859802 C17.5414212,10.5109589 20.245544,8.91765033 20.3691958,8.84347206 C18.8377379,6.60491422 16.4640289,6.29905588 15.6298861,6.27466851 C13.6362544,6.06432739 11.7024214,7.47066605 10.6868551,7.47066605 C9.65101793,7.47066605 8.08712683,6.29499132 6.40161101,6.3295401 C4.23263696,6.36307274 2.20353133,7.62207101 1.0906652,9.57712561 C-1.2060148,13.5634454 0.506866579,19.4214962 2.70726035,22.6436782 C3.807964,24.2217446 5.09414534,25.9837325 6.77763408,25.9217479 C8.42463541,25.8536665 9.03985375,24.8690262 11.0274043,24.8690262 C12.9967111,24.8690262 13.5744285,25.9217479 15.291364,25.8821185 C17.0589765,25.8536665 18.1718426,24.296939 19.2340318,22.7046467 C20.5060236,20.8959163 21.0168474,19.1146217 21.0371182,19.0231691 C20.995563,19.0089431 17.6042606,17.7113315 17.5708138,13.7859802 L17.5708138,13.7859802 Z" id="Shape"></path>
                            <path d="M14.3274882,4.15499911 C15.2133215,3.04435738 15.819418,1.53335624 15.6511704,0 C14.3690433,0.0569038763 12.7656241,0.889123068 11.8422898,1.97537742 C11.0253772,2.93258191 10.2956289,4.50150307 10.4841472,5.9769393 C11.9243865,6.0846502 13.4031403,5.24836645 14.3274882,4.15499911 L14.3274882,4.15499911 Z" id="Shape"></path>
                        </g>
                    </g>
                </g>
            </g>
        </g>
    </g>
</svg>