<?xml version="1.0" encoding="UTF-8" standalone="no"?>
<svg width="137px" height="41px" viewBox="0 0 137 41" version="1.1" xmlns="http://www.w3.org/2000/svg" xmlns:xlink="http://www.w3.org/1999/xlink">
    <!-- Generator: sketchtool 39 (31667) - http://www.bohemiancoding.com/sketch -->
    <title>C0DAE92C-E09D-41ED-891B-32ABA06A3401</title>
    <desc>Created with sketchtool.</desc>
    <defs></defs>
    <g id="Symbols" stroke="none" stroke-width="1" fill="none" fill-rule="evenodd">
        <g id="Elements/footer/mobile/footer" transform="translate(-14.000000, -71.000000)">
            <g id="footer">
                <g id="apps" transform="translate(15.000000, 15.000000)">
                    <g id="App-store-badge" transform="translate(0.000000, 57.000000)">
                        <g id="RU_Download_on_the">
                            <g id="Group">
                                <path d="M135.022432,35.0077458 C135.022432,37.1578994 133.285226,38.8995645 131.136523,38.8995645 L3.96876337,38.8995645 C1.82107364,38.8995645 0.0777860866,37.1578994 0.0777860866,35.0077458 L0.0777860866,3.97176199 C0.0777860866,1.82262452 1.82107364,0.074862607 3.96876337,0.074862607 L131.135509,0.074862607 C133.285226,0.074862607 135.021419,1.82262452 135.021419,3.97176199 L135.022432,35.0077458 L135.022432,35.0077458 L135.022432,35.0077458 Z" id="Shape" stroke="#A6A6A6" fill="#000000"></path>
                                <g transform="translate(12.119591, 5.267341)" id="Shape" fill="#FFFFFF">
                                    <path d="M17.5920569,14.0064827 C17.5626643,10.7314614 20.2667871,9.13815285 20.3904389,9.06397459 C18.858981,6.82541674 16.485272,6.5195584 15.6511292,6.49517103 C13.6574974,6.28482991 11.7236645,7.69116857 10.7080981,7.69116857 C9.67226101,7.69116857 8.1083699,6.51549384 6.42285409,6.55004262 C4.25388003,6.58357526 2.2247744,7.84257353 1.11190828,9.79762813 C-1.18477172,13.7839479 0.528109655,19.6419987 2.72850342,22.8641807 C3.82920708,24.4422472 5.11538842,26.204235 6.79887716,26.1422505 C8.44587848,26.074169 9.06109682,25.0895288 11.0486473,25.0895288 C13.0179542,25.0895288 13.5956715,26.1422505 15.3126071,26.102621 C17.0802196,26.074169 18.1930857,24.5174416 19.2552749,22.9251492 C20.5272667,21.1164188 21.0380905,19.3351243 21.0583612,19.2436716 C21.0168061,19.2294456 17.6255037,17.931834 17.5920569,14.0064827 L17.5920569,14.0064827 Z"></path>
                                    <path d="M14.3487312,4.37550163 C15.2345646,3.2648599 15.840661,1.75385876 15.6724135,0.220502521 C14.3902863,0.277406397 12.7868672,1.10962559 11.8635329,2.19587994 C11.0466203,3.15308443 10.316872,4.72200559 10.5053903,6.19744182 C11.9456296,6.30515272 13.4243834,5.46886897 14.3487312,4.37550163 L14.3487312,4.37550163 Z"></path>
                                </g>
                                <g transform="translate(41.744386, 17.461029)" id="Shape" fill="#FFFFFF">
                                    <path d="M11.8026649,13.7219633 L9.50091718,13.7219633 L8.24007432,9.74986952 L3.85753049,9.74986952 L2.65648644,13.7219633 L0.415551103,13.7219633 L4.75755336,0.199163567 L7.43937829,0.199163567 L11.8026649,13.7219633 L11.8026649,13.7219633 Z M7.85999709,8.08339886 L6.7197654,4.55231011 C6.59915423,4.19158018 6.37313497,3.34208659 6.03968055,2.0048455 L5.99913898,2.0048455 C5.86636533,2.57998111 5.65250854,3.42947469 5.35858215,4.55231011 L4.23862125,8.08339886 L7.85999709,8.08339886 L7.85999709,8.08339886 Z"></path>
                                    <path d="M22.9688271,8.72661589 C22.9688271,10.3849574 22.5218563,11.6957789 21.6279146,12.6580641 C20.8272186,13.5146706 19.8329366,13.9424658 18.6460821,13.9424658 C17.3649684,13.9424658 16.4446748,13.481138 15.8841875,12.5584823 L15.843646,12.5584823 L15.843646,17.6950733 L13.6827802,17.6950733 L13.6827802,7.18106596 C13.6827802,6.13850566 13.6554147,5.06850956 13.6027106,3.97107765 L15.5030968,3.97107765 L15.6237079,5.51662758 L15.6642495,5.51662758 C16.3848759,4.3521304 17.4784848,3.77089795 18.9460897,3.77089795 C20.0934162,3.77089795 21.0512108,4.22511282 21.8174465,5.1345587 C22.5857092,6.04502072 22.9688271,7.2420344 22.9688271,8.72661589 L22.9688271,8.72661589 Z M20.7674198,8.80587486 C20.7674198,7.85679949 20.5545765,7.0743712 20.1268629,6.45858996 C19.6596213,5.81638907 19.0322405,5.49528863 18.2457341,5.49528863 C17.7126124,5.49528863 17.2281406,5.67412938 16.7953593,6.02673019 C16.3615645,6.38237941 16.0777735,6.84675569 15.9449999,7.4218913 C15.8781063,7.69015243 15.8446595,7.90963881 15.8446595,8.08238272 L15.8446595,9.70820776 C15.8446595,10.4174739 16.0615569,11.0159808 16.4953517,11.5047444 C16.9291465,11.9935081 17.4926744,12.2373818 18.1859352,12.2373818 C18.9998073,12.2373818 19.6332693,11.9223782 20.0863214,11.2944033 C20.540387,10.6654122 20.7674198,9.83624148 20.7674198,8.80587486 L20.7674198,8.80587486 Z"></path>
                                    <path d="M34.1552601,8.72661589 C34.1552601,10.3849574 33.7082893,11.6957789 32.8133341,12.6580641 C32.0136516,13.5146706 31.0193696,13.9424658 29.8325151,13.9424658 C28.5514014,13.9424658 27.6311078,13.481138 27.0716341,12.5584823 L27.0310925,12.5584823 L27.0310925,17.6950733 L24.8702268,17.6950733 L24.8702268,7.18106596 C24.8702268,6.13850566 24.8428612,5.06850956 24.7901572,3.97107765 L26.6905433,3.97107765 L26.8111545,5.51662758 L26.851696,5.51662758 C27.5713089,4.3521304 28.6649178,3.77089795 30.1335362,3.77089795 C31.2798491,3.77089795 32.2376438,4.22511282 33.0059065,5.1345587 C33.7711287,6.04502072 34.1552601,7.2420344 34.1552601,8.72661589 L34.1552601,8.72661589 Z M31.9538528,8.80587486 C31.9538528,7.85679949 31.739996,7.0743712 31.3122824,6.45858996 C30.8450408,5.81638907 30.2196871,5.49528863 29.432167,5.49528863 C28.8980318,5.49528863 28.4145736,5.67412938 27.9807788,6.02673019 C27.546984,6.38237941 27.2642065,6.84675569 27.1314329,7.4218913 C27.0655528,7.69015243 27.0310925,7.90963881 27.0310925,8.08238272 L27.0310925,9.70820776 C27.0310925,10.4174739 27.2479899,11.0159808 27.6797576,11.5047444 C28.1135524,11.9924919 28.6770803,12.2373818 29.3723682,12.2373818 C30.1862403,12.2373818 30.8197023,11.9223782 31.2727544,11.2944033 C31.72682,10.6654122 31.9538528,9.83624148 31.9538528,8.80587486 L31.9538528,8.80587486 Z"></path>
                                    <path d="M46.6623347,9.92972642 C46.6623347,11.0799976 46.2640138,12.0158632 45.4643313,12.7383392 C44.5855928,13.5278805 43.3622509,13.922143 41.7902514,13.922143 C40.3388632,13.922143 39.1753201,13.6416882 38.2945545,13.0797624 L38.7952429,11.2740805 C39.7439156,11.8492161 40.7848205,12.1378 41.9189709,12.1378 C42.732843,12.1378 43.366305,11.9528624 43.8213842,11.5850195 C44.2744362,11.2171766 44.5004555,10.7233323 44.5004555,10.107551 C44.5004555,9.55883508 44.3139642,9.09649109 43.9399682,8.72153519 C43.5679993,8.34657929 42.9466998,7.99804305 42.0791101,7.67592646 C39.7175636,6.79290024 38.5378039,5.49935319 38.5378039,3.79833374 C38.5378039,2.68667587 38.9513279,1.77519771 39.7793895,1.06593154 C40.6044105,0.355649227 41.7051141,0.00101614065 43.0815005,0.00101614065 C44.3088965,0.00101614065 45.3285171,0.215421818 46.1423891,0.643217031 L45.6021727,2.40926948 C44.8420182,1.99468409 43.9825369,1.7873914 43.0206881,1.7873914 C42.2605337,1.7873914 41.6665996,1.97537742 41.2409132,2.34931718 C40.8811067,2.68362745 40.7006967,3.09109985 40.7006967,3.57376666 C40.7006967,4.10825664 40.9064452,4.55027782 41.3199692,4.89779793 C41.6797757,5.21889837 42.3335085,5.56641847 43.2821813,5.94137437 C44.4426837,6.40981521 45.2950703,6.95751502 45.843395,7.58548994 C46.3896927,8.21143258 46.6623347,8.99487702 46.6623347,9.92972642 L46.6623347,9.92972642 Z"></path>
                                    <path d="M53.8067731,5.59690269 L51.4249558,5.59690269 L51.4249558,10.331102 C51.4249558,11.5352286 51.8445611,12.1367839 52.6857987,12.1367839 C53.0719571,12.1367839 53.3922355,12.1032513 53.6456204,12.036186 L53.7054192,13.6813177 C53.2797327,13.8408518 52.7192455,13.9211269 52.0249711,13.9211269 C51.171571,13.9211269 50.5046621,13.6599787 50.023231,13.1386986 C49.5438269,12.6164023 49.3026046,11.7404891 49.3026046,10.5099427 L49.3026046,5.59487041 L47.8836496,5.59487041 L47.8836496,3.96904537 L49.3026046,3.96904537 L49.3026046,2.18368625 L51.4249558,1.54148536 L51.4249558,3.96904537 L53.8067731,3.96904537 L53.8067731,5.59690269 L53.8067731,5.59690269 Z"></path>
                                    <path d="M64.55333,8.76624538 C64.55333,10.2650528 64.1256165,11.4955992 63.2722164,12.4578844 C62.3772612,13.4486215 61.1893932,13.9424658 59.7086123,13.9424658 C58.281549,13.9424658 57.1453715,13.4679282 56.2980526,12.5188528 C55.4507338,11.5697774 55.0270744,10.3717476 55.0270744,8.92781174 C55.0270744,7.41681059 55.4628963,6.17915128 56.3375807,5.21686609 C57.210238,4.25356475 58.3879706,3.77191409 59.8687515,3.77191409 C61.2958148,3.77191409 62.4441548,4.24645177 63.3107309,5.19654328 C64.139806,6.11818285 64.55333,7.30808354 64.55333,8.76624538 L64.55333,8.76624538 Z M62.3113812,8.83635908 C62.3113812,7.93707461 62.1198222,7.16582385 61.7316367,6.52260682 C61.2785846,5.74424309 60.630933,5.35607736 59.7917225,5.35607736 C58.9231194,5.35607736 58.2633053,5.74525923 57.8102532,6.52260682 C57.4220677,7.16683999 57.2305088,7.95028443 57.2305088,8.87700471 C57.2305088,9.77628918 57.4220677,10.5475399 57.8102532,11.1897408 C58.2774948,11.9681046 58.9302141,12.3562703 59.7724653,12.3562703 C60.5974863,12.3562703 61.2451379,11.9599754 61.7123795,11.169418 C62.1107004,10.5140073 62.3113812,9.73462741 62.3113812,8.83635908 L62.3113812,8.83635908 Z"></path>
                                    <path d="M71.5771572,5.87634137 C71.3633004,5.83671189 71.1352541,5.81638907 70.8960588,5.81638907 C70.1359044,5.81638907 69.5480516,6.10395688 69.1345276,6.68010862 C68.7747211,7.18817895 68.5943111,7.83037984 68.5943111,8.60569515 L68.5943111,13.7219633 L66.4344589,13.7219633 L66.4547297,7.04185469 C66.4547297,5.91800314 66.4273642,4.8947495 66.3736466,3.9720938 L68.255789,3.9720938 L68.3348451,5.83772803 L68.3946439,5.83772803 C68.6226902,5.19654328 68.9824967,4.68034383 69.4750768,4.29319424 C69.9565079,3.944658 70.4764536,3.77089795 71.0369408,3.77089795 C71.236608,3.77089795 71.417018,3.78512392 71.5771572,3.81052743 L71.5771572,5.87634137 L71.5771572,5.87634137 Z"></path>
                                    <path d="M81.2412542,8.38519263 C81.2412542,8.77335836 81.2159158,9.10055565 81.1621982,9.36780064 L74.679601,9.36780064 C74.7049394,10.331102 75.0181231,11.0678039 75.6201654,11.5758743 C76.1664631,12.0300891 76.8729,12.2577046 77.7404896,12.2577046 C78.7003113,12.2577046 79.5760092,12.1042674 80.3635292,11.7963768 L80.7020513,13.3002649 C79.7817577,13.7026566 78.6952436,13.9028364 77.4414955,13.9028364 C75.933349,13.9028364 74.7495352,13.4577667 73.8880268,12.5686437 C73.0285455,11.6795206 72.5977913,10.4855554 72.5977913,8.98776404 C72.5977913,7.51740852 72.9981393,6.29295904 73.7998489,5.31644787 C74.6390594,4.27388757 75.7732098,3.75260742 77.2002731,3.75260742 C78.601998,3.75260742 79.6631736,4.27388757 80.3838,5.31644787 C80.9544226,6.1446025 81.2412542,7.16887228 81.2412542,8.38519263 L81.2412542,8.38519263 Z M79.1807289,7.82326685 C79.1949184,7.18106596 79.0540365,6.62625317 78.7611236,6.15781233 C78.3871276,5.55524093 77.8124509,5.25446329 77.0391204,5.25446329 C76.3326835,5.25446329 75.7580067,5.54812794 75.3191442,6.13748952 C74.9593378,6.60593036 74.745481,7.16785614 74.679601,7.82225071 L79.1807289,7.82225071 L79.1807289,7.82326685 Z"></path>
                                </g>
                                <g transform="translate(42.757925, 6.047074)" id="Shape" fill="#FFFFFF">
                                    <path d="M0.429740653,0.51381463 C0.659814069,0.375619501 0.919280124,0.259779467 1.21117944,0.164262246 C1.50206521,0.0687450255 1.84464148,0.020986415 2.23890826,0.020986415 C2.87439739,0.020986415 3.37508579,0.172391372 3.74198701,0.474185144 C4.10888823,0.775978917 4.29233884,1.18345132 4.29233884,1.69660234 C4.29233884,2.10407474 4.16970058,2.445498 3.92442408,2.72188826 C3.67914757,2.99827852 3.3649504,3.18219997 2.98487317,3.27365263 L2.98487317,3.30312071 C3.1946758,3.33665335 3.3933295,3.39355723 3.57982072,3.47586462 C3.76732549,3.55817201 3.93151885,3.6679152 4.07138727,3.80611033 C4.21226923,3.94430546 4.32375855,4.10485568 4.40585523,4.28979328 C4.48693838,4.47371474 4.52849349,4.67694287 4.52849349,4.90150995 C4.52849349,5.26935286 4.45450512,5.57825962 4.30652839,5.82823022 C4.15855165,6.07820082 3.96597919,6.28142895 3.72678392,6.43994689 C3.48860219,6.59744869 3.22102782,6.71125645 2.92608789,6.77933787 C2.63114796,6.84741929 2.33620803,6.88298421 2.0412681,6.88298421 C1.72605739,6.88298421 1.41490083,6.84945157 1.10678489,6.78441857 C0.79866895,6.71938557 0.513864413,6.61065852 0.251357741,6.45925356 L0.516905031,5.64126034 C0.687179629,5.72661616 0.907117652,5.80892355 1.17570556,5.88818252 C1.44429347,5.96744149 1.71592199,6.00605484 1.99160468,6.00605484 C2.4436432,6.00605484 2.79331425,5.90444077 3.03859075,5.70121264 C3.28386726,5.49696837 3.40751905,5.22464268 3.40751905,4.88321942 C3.40751905,4.65255549 3.35785562,4.46456947 3.25954231,4.31621294 C3.16021546,4.1678564 3.03250951,4.05201637 2.87541093,3.96564441 C2.71831234,3.8802886 2.54297004,3.82135244 2.34938404,3.78883594 C2.15579804,3.75631944 1.96423912,3.73904505 1.77470727,3.73904505 L1.33179061,3.73904505 L1.33179061,2.92918095 L1.77470727,2.92918095 C1.97741513,2.92918095 2.16593343,2.90377744 2.34026219,2.84992198 C2.51357741,2.79809881 2.66459476,2.72392054 2.79230071,2.62840332 C2.92000666,2.5328861 3.02034704,2.41907835 3.09230833,2.2879962 C3.16325608,2.15691406 3.1997435,2.00855752 3.1997435,1.84394274 C3.1997435,1.54824581 3.09433541,1.31656574 2.88453278,1.14890253 C2.67473015,0.981239328 2.39296623,0.896899654 2.03924102,0.896899654 C1.79700514,0.896899654 1.55375571,0.936529139 1.31151982,1.01477197 C1.06928394,1.09403094 0.852386531,1.17938675 0.661841147,1.27083941 L0.429740653,0.51381463 L0.429740653,0.51381463 Z"></path>
                                    <path d="M8.87353636,6.77324102 L8.79549384,6.22147665 L8.7661012,6.22147665 C8.44582279,6.66146555 7.98060826,6.88196807 7.37045762,6.88196807 C7.15356021,6.88196807 6.95794713,6.84538701 6.78057776,6.77324102 C6.60320839,6.70109504 6.44915042,6.6025294 6.31840385,6.4775441 C6.18664374,6.3525588 6.08630335,6.2052184 6.01332853,6.03349063 C5.94136724,5.862779 5.90589336,5.67479298 5.90589336,5.47156485 C5.90589336,4.87407415 6.14812925,4.42493999 6.63361456,4.12619464 C7.11909988,3.82744928 7.80627951,3.67807661 8.69819407,3.67807661 L8.69819407,3.58967237 C8.69819407,2.95864903 8.36778027,2.64364543 7.70695266,2.64364543 C7.23565689,2.64364543 6.82010579,2.76253388 6.46131289,2.99827852 L6.24542902,2.29917375 C6.68429153,2.02379963 7.2305892,1.88560451 7.88432203,1.88560451 C9.13401596,1.88560451 9.75936969,2.54609593 9.75936969,3.86707877 L9.75936969,5.63109894 C9.75936969,6.12392715 9.7826811,6.50497989 9.82829036,6.77425717 L8.87353636,6.77425717 L8.87353636,6.77324102 Z M8.72657317,4.38835892 C8.13365269,4.38835892 7.69174957,4.46355333 7.40187734,4.61495829 C7.1120051,4.76636324 6.96706899,5.01328542 6.96706899,5.35470868 C6.96706899,5.60467928 7.03497612,5.79164916 7.17180392,5.91663446 C7.30863172,6.04161976 7.48194694,6.10360434 7.69073603,6.10360434 C7.82756383,6.10360434 7.95729686,6.07921696 8.08196219,6.02942607 C8.20561398,5.98065132 8.31406268,5.9125699 8.40832184,5.82721408 C8.50359453,5.74185827 8.57960997,5.63821192 8.63940879,5.51627504 C8.69819407,5.39433816 8.72657317,5.2652883 8.72657317,5.12709317 L8.72657317,4.38835892 L8.72657317,4.38835892 Z"></path>
                                    <polygon points="14.8817972 1.98315401 14.8817972 2.86008339 12.8952602 2.86008339 12.8952602 6.77324102 11.8340846 6.77324102 11.8340846 1.98315401"></polygon>
                                    <path d="M20.9569516,4.31926136 C20.9569516,4.7003141 20.9042476,5.04885034 20.799853,5.36385395 C20.6944449,5.67987369 20.5495088,5.94915096 20.3620041,6.17168576 C20.1755128,6.3952367 19.9525342,6.5700129 19.6940817,6.69398205 C19.4346156,6.81896735 19.1487975,6.88196807 18.8335868,6.88196807 C18.2041789,6.88196807 17.7521404,6.65536871 17.4764577,6.20216998 L17.456187,6.20216998 L17.456187,8.72524721 L16.3939978,8.72524721 L16.3939978,3.56020429 C16.3939978,3.30413685 16.3909572,3.04603713 16.3838624,2.78590512 C16.3777812,2.52678925 16.3676458,2.25852812 16.3554833,1.98213787 L17.288953,1.98213787 L17.3487518,2.74119493 L17.3690226,2.74119493 C17.7227478,2.17012389 18.2599236,1.88357222 18.9815636,1.88357222 C19.2623139,1.88357222 19.5238071,1.94250838 19.7630023,2.0603807 C20.0021976,2.17926915 20.2099732,2.34490008 20.3873425,2.55828961 C20.5647119,2.77167915 20.7035668,3.02774659 20.8049207,3.32750809 C20.9062747,3.62726958 20.9569516,3.95751529 20.9569516,4.31926136 L20.9569516,4.31926136 Z M19.8765187,4.35889084 C19.8765187,4.12213007 19.8481396,3.90365983 19.792395,3.70348013 C19.7366503,3.50330042 19.6545536,3.33258879 19.5471185,3.19134524 C19.4396833,3.05010169 19.3079232,2.93832622 19.1538652,2.85601882 C18.9998073,2.77371143 18.8275056,2.73306581 18.6369602,2.73306581 C18.4869564,2.73306581 18.3389797,2.76659845 18.1940435,2.83163145 C18.0491074,2.89666445 17.9234286,2.98608483 17.8159934,3.0978603 C17.7075447,3.20963577 17.6213939,3.34478248 17.5555138,3.50228428 C17.4896338,3.65978608 17.456187,3.82744928 17.456187,4.0052739 L17.456187,4.80396045 C17.456187,4.98076892 17.4835525,5.14538371 17.5403107,5.29678866 C17.5960554,5.44819362 17.6740979,5.57927576 17.7754518,5.69105123 C17.8768058,5.80282671 17.9984305,5.8902148 18.1393124,5.95219938 C18.2801944,6.0152001 18.4352659,6.04568432 18.6055405,6.04568432 C19.0058885,6.04568432 19.3170451,5.89326322 19.5400237,5.58740489 C19.7630023,5.28154655 19.8765187,4.87102573 19.8765187,4.35889084 L19.8765187,4.35889084 Z"></path>
                                    <path d="M26.6611507,1.98315401 L25.4509848,5.30491779 C25.1631396,6.09344293 24.8823892,6.73869224 24.6107607,7.24168186 C24.3381186,7.74467148 24.0786526,8.11048212 23.8293219,8.34114605 C23.4624207,8.66935948 23.0722081,8.87055532 22.6586841,8.94168517 L22.4032722,8.04544912 C22.6779413,7.97330313 22.940448,7.83205958 23.1897786,7.62171847 C23.4380958,7.41137735 23.637763,7.14921306 23.7897939,6.83319332 C23.8424979,6.72853084 23.8678364,6.65638485 23.8678364,6.61675537 C23.8678364,6.57712588 23.8475656,6.50193147 23.8090511,6.390156 L22.0779261,1.98417015 L23.2475504,1.98417015 L24.152641,4.65560391 C24.1992638,4.78058921 24.244873,4.92183276 24.2904823,5.07933456 C24.3371051,5.23683636 24.385755,5.41161256 24.438459,5.60163086 L24.4587298,5.60163086 C24.4911631,5.49595223 24.5276505,5.36385395 24.566165,5.20228758 C24.605693,5.04173736 24.6583971,4.85578362 24.7232636,4.64544251 L25.5300408,1.98417015 L26.6611507,1.98417015 L26.6611507,1.98315401 Z"></path>
                                    <path d="M28.4997109,3.97377354 L28.9902639,3.97377354 C29.3500704,3.97377354 29.6298072,3.90874054 29.8254203,3.77664225 C30.0210334,3.64454397 30.1203602,3.48399375 30.1203602,3.2929593 C30.1203602,3.09582802 30.03725,2.93832622 29.8690025,2.8204539 C29.702782,2.70258159 29.4706815,2.64262929 29.1757416,2.64262929 C28.9851962,2.64262929 28.7936373,2.67412965 28.6020784,2.73611423 C28.4084924,2.79911495 28.2301095,2.87634164 28.0659161,2.9677943 L27.791247,2.27885094 C28.0659161,2.12846212 28.3395717,2.02481577 28.6132273,1.96892804 C28.8848558,1.9130403 29.1574979,1.88458836 29.4331806,1.88458836 C29.6510915,1.88458836 29.8690025,1.90592732 30.087927,1.94860523 C30.3058379,1.99128313 30.501451,2.06342912 30.6717256,2.16504318 C30.8420002,2.26665725 30.9828821,2.39977167 31.0893038,2.56438646 C31.1977525,2.72900124 31.25147,2.93222937 31.25147,3.17610313 C31.25147,3.32750809 31.2220774,3.46062251 31.1622786,3.5754464 C31.1045069,3.6902703 31.0254508,3.79188436 30.9271375,3.8802886 C30.8298377,3.96869283 30.7193619,4.04185496 30.5987508,4.09672656 C30.4781396,4.15261429 30.3534742,4.19427606 30.230836,4.22069572 L30.230836,4.25016379 C30.386921,4.27048661 30.5399655,4.31011609 30.6879422,4.36905225 C30.8349054,4.42798841 30.9666655,4.5052151 31.0862631,4.60073232 C31.2028202,4.69624954 31.2980929,4.81107343 31.3710677,4.945204 C31.4420154,5.0803507 31.4774893,5.2327718 31.4774893,5.40348343 C31.4774893,5.68597053 31.4105957,5.9227313 31.2717408,6.1127496 C31.134913,6.30378405 30.9585572,6.45417286 30.7447004,6.56594833 C30.5328707,6.6777238 30.2977296,6.75799892 30.0423177,6.80778981 C29.7869058,6.85656456 29.5375751,6.88196807 29.2963528,6.88196807 C29.0014129,6.88196807 28.7085,6.85046771 28.4216684,6.78848313 C28.1328097,6.72548241 27.8733436,6.62894905 27.6432702,6.49786691 L27.9199664,5.797746 C28.090241,5.8902148 28.283827,5.96744149 28.5037651,6.02942607 C28.7237031,6.09141065 28.9476953,6.12291101 29.1767551,6.12291101 C29.5365616,6.12291101 29.8142714,6.05279731 30.0078574,5.91155375 C30.1994163,5.7703102 30.296716,5.59451787 30.296716,5.38417676 C30.296716,5.24598163 30.2652963,5.1301416 30.1994163,5.03462438 C30.1335362,4.93910715 30.0413042,4.86188046 29.9247471,4.80294431 C29.806163,4.74400815 29.6693352,4.70234638 29.5112231,4.67999129 C29.3551381,4.65662005 29.1828364,4.64544251 29.0003993,4.64544251 L28.4997109,4.64544251 L28.4997109,3.97377354 L28.4997109,3.97377354 Z"></path>
                                    <path d="M34.1714767,1.98315401 L34.1714767,3.67807661 C34.1714767,4.06624234 34.1653955,4.41477858 34.1512059,4.7226692 C34.1370164,5.03157595 34.1218133,5.35674096 34.1015425,5.69816422 L34.1218133,5.71747089 C34.2464786,5.46750029 34.3691169,5.22362654 34.489728,4.9828012 C34.6123663,4.74299201 34.7350045,4.49810211 34.8596699,4.24813151 L36.0394296,1.98112173 L37.4148024,1.98112173 L37.4148024,6.77120874 L36.4113985,6.77120874 L36.4113985,5.07628614 C36.4113985,4.72165306 36.4215339,4.36701997 36.436737,4.01238688 C36.4529536,3.65673766 36.4701838,3.29905615 36.4904546,2.93731008 L36.4407911,2.93731008 C36.3303154,3.23300701 36.218826,3.48907445 36.1063232,3.70652855 C35.9958474,3.92296651 35.8843581,4.14651745 35.7738823,4.37718138 C35.5701609,4.77144395 35.3684666,5.16570652 35.1677858,5.55996909 C34.9681186,5.95423166 34.7562889,6.35865564 34.5343238,6.77222488 L33.158951,6.77222488 L33.158951,1.98315401 L34.1714767,1.98315401 L34.1714767,1.98315401 Z"></path>
                                    <polygon points="43.0196746 1.98315401 43.0196746 2.86008339 41.5652457 2.86008339 41.5652457 6.77324102 40.5213003 6.77324102 40.5213003 2.86008339 39.0759933 2.86008339 39.0759933 1.98315401"></polygon>
                                    <path d="M48.4360285,4.15159815 C48.4360285,4.24305081 48.4319743,4.33043891 48.4258931,4.4127463 C48.4198118,4.49505369 48.4096765,4.56923196 48.3965004,4.63426496 L45.2109465,4.63426496 C45.225136,5.08746369 45.3670315,5.43803221 45.6386601,5.68393825 C45.9102886,5.92984429 46.270095,6.05381345 46.7150388,6.05381345 C47.1802533,6.05381345 47.609994,5.97861904 48.0032472,5.82721408 L48.1694676,6.56696447 C47.7164156,6.76409576 47.1832939,6.8626614 46.5660485,6.8626614 C46.1940796,6.8626614 45.8596116,6.80474139 45.5646717,6.68991749 C45.2697318,6.5750936 45.0204011,6.41251109 44.8166797,6.20216998 C44.6149854,5.99182887 44.4578868,5.73880984 44.3494381,5.44311292 C44.2430165,5.14741599 44.1892989,4.81615414 44.1892989,4.44831122 C44.1892989,4.08046831 44.2430165,3.74006119 44.3494381,3.42810601 C44.4578868,3.11615083 44.6109312,2.84484128 44.8065443,2.61519349 C45.0041845,2.38452956 45.2423662,2.20467267 45.5190624,2.07257438 C45.7977857,1.94149224 46.1089423,1.8754431 46.4494915,1.8754431 C46.7505127,1.8754431 47.0231547,1.92929855 47.2714718,2.0380256 C47.5167484,2.14573651 47.726551,2.30018989 47.8988527,2.50138574 C48.0731814,2.70156545 48.2059551,2.94239078 48.2971736,3.22081332 C48.3904192,3.49923586 48.4360285,3.81017489 48.4360285,4.15159815 L48.4360285,4.15159815 Z M47.4224892,3.87622404 C47.4224892,3.50126814 47.3332977,3.19744208 47.1528878,2.96474587 C46.9724778,2.73204967 46.7119982,2.61417735 46.371449,2.61417735 C46.0623195,2.61417735 45.8018399,2.73204967 45.585956,2.96881044 C45.3700722,3.20557121 45.2454068,3.50736498 45.21196,3.87622404 L47.4224892,3.87622404 L47.4224892,3.87622404 Z"></path>
                                    <path d="M52.7141778,2.02278349 C52.9047231,1.99026699 53.1459455,1.96384734 53.4408854,1.94352452 C53.7358254,1.92320171 54.0368465,1.91405644 54.345976,1.91405644 C54.5415891,1.91405644 54.7635542,1.92625013 55.0088307,1.94860523 C55.2541072,1.97096032 55.4902618,2.02379963 55.7112134,2.10610703 C55.9352056,2.18841442 56.1206833,2.31136744 56.2717006,2.47598222 C56.422718,2.64059701 56.499747,2.86313181 56.499747,3.14561891 C56.499747,3.29092702 56.4723814,3.42099303 56.4206909,3.53480078 C56.3669733,3.64962467 56.2980526,3.7502226 56.2088612,3.83557841 C56.1196697,3.92093422 56.0183158,3.99206407 55.9037859,4.04693566 C55.7892559,4.1028234 55.6706718,4.14448517 55.544993,4.16988868 L55.5551284,4.19935676 C55.9017588,4.25829292 56.1845362,4.38327822 56.4004201,4.57431266 C56.616304,4.7653471 56.7247527,5.02751139 56.7247527,5.3628378 C56.7247527,5.69816422 56.6315071,5.96439307 56.4500835,6.16152435 C56.2656194,6.35865564 56.0406137,6.50701217 55.7710122,6.60557782 C55.5014108,6.70414346 55.2186333,6.76714418 54.9196392,6.79356384 C54.6226722,6.81896735 54.3550979,6.83319332 54.1199567,6.83319332 C53.8564365,6.83319332 53.5989976,6.82709648 53.3476398,6.81287051 C53.094255,6.79966068 52.8844524,6.78645085 52.7141778,6.77324102 L52.7141778,2.02278349 L52.7141778,2.02278349 Z M53.7358254,3.93516019 L54.2760418,3.93516019 C54.4402351,3.93516019 54.5963202,3.92398265 54.7432834,3.90061141 C54.8912601,3.87825632 55.0199796,3.84167525 55.1314689,3.7929005 C55.2439718,3.74310961 55.3291091,3.67807661 55.3929621,3.59576922 C55.454788,3.51346182 55.4862077,3.41388004 55.4862077,3.29499158 C55.4862077,3.07855363 55.3970162,2.91901954 55.2145792,2.81740548 C55.0341692,2.71579142 54.7513917,2.66498438 54.3652332,2.66498438 C54.2547575,2.66498438 54.1574577,2.6680328 54.0743475,2.67514579 C53.9932643,2.68124263 53.8807615,2.69140404 53.7358254,2.70461387 L53.7358254,3.93516019 L53.7358254,3.93516019 Z M53.7358254,6.05381345 C53.8665719,6.06702327 53.9770477,6.07616854 54.0642121,6.08328152 C54.1534035,6.09039451 54.255771,6.09344293 54.3753686,6.09344293 C54.5203048,6.09344293 54.6662544,6.08429767 54.8172718,6.06397485 C54.9672756,6.04466818 55.1061305,6.00707098 55.2307958,5.95118324 C55.3554611,5.89631165 55.454788,5.82111724 55.5297899,5.72560002 C55.6047918,5.63109894 55.6443198,5.5050975 55.6443198,5.34861184 C55.6443198,5.07425386 55.5216816,4.8852517 55.2804592,4.78058921 C55.0372098,4.67592673 54.7108501,4.62410355 54.2963126,4.62410355 L53.7358254,4.62410355 L53.7358254,6.05381345 L53.7358254,6.05381345 Z"></path>
                                </g>
                            </g>
                        </g>
                    </g>
                </g>
            </g>
        </g>
    </g>
</svg>