<?xml version="1.0" encoding="UTF-8"?>
<svg width="60px" height="60px" viewBox="0 0 60 60" version="1.1" xmlns="http://www.w3.org/2000/svg" xmlns:xlink="http://www.w3.org/1999/xlink">
    <!-- Generator: sketchtool 42 (36781) - http://www.bohemiancoding.com/sketch -->
    <title>FCA77182-8FBA-4951-8D90-8AF8220F9478</title>
    <desc>Created with sketchtool.</desc>
    <defs>
        <rect id="path-1" x="0" y="0" width="38" height="23.0769231" rx="1"></rect>
        <mask id="mask-2" maskContentUnits="userSpaceOnUse" maskUnits="objectBoundingBox" x="0" y="0" width="38" height="23.0769231" fill="white">
            <use xlink:href="#path-1"></use>
        </mask>
    </defs>
    <g id="Symbols" stroke="none" stroke-width="1" fill="none" fill-rule="evenodd">
        <g id="Icons/onboarding/payments">
            <rect id="Rectangle-4" x="0" y="0" width="60" height="60"></rect>
            <g id="tenge" transform="translate(11.000000, 16.000000)">
                <g id="bg" transform="translate(0.000000, 2.000000)" stroke="#00A9FF" stroke-width="2.8" stroke-linecap="round" stroke-linejoin="round">
                    <use id="1" mask="url(#mask-2)" xlink:href="#path-1"></use>
                </g>
                <g id="corners-left" transform="translate(0.000000, 2.000000)" stroke-width="1.4">
                    <path d="M7.15445134,1.12522947 L1.15461507,6.95502989" id="Line" stroke="#00A9FF" stroke-linecap="square"></path>
                    <path d="M9.03330004,16.153268 L1.15461507,24.031953" id="Line-Copy" stroke="#061122" stroke-linecap="round" stroke-linejoin="round" transform="translate(5.500000, 20.076923) scale(1, -1) translate(-5.500000, -20.076923) "></path>
                </g>
                <g id="corners-righ" transform="translate(32.500000, 13.000000) scale(-1, 1) translate(-32.500000, -13.000000) translate(27.000000, 0.000000)" stroke-width="1.4">
                    <path d="M10.0659491,0.0436958176 L1.15461507,8.95502989" id="Line" stroke="#061122" stroke-linecap="round" stroke-linejoin="round"></path>
                    <path d="M7.15445134,18.1252295 L1.15461507,23.9550299" id="Line-Copy" stroke="#00A9FF" stroke-linecap="square" transform="translate(4.156250, 21.038462) scale(1, -1) translate(-4.156250, -21.038462) "></path>
                </g>
                <g id="sign" transform="translate(13.062500, 7.769231)" stroke="#061122" stroke-width="1.4" stroke-linecap="square">
                    <path d="M0.609011807,0.915384615 L10.3532007,0.915384615" id="Line"></path>
                    <path d="M0.609011807,4.37692308 L10.3532007,4.37692308" id="Line-Copy-2"></path>
                    <path d="M5.58125,4.72911245 L5.58125,10.9661489" id="Line"></path>
                </g>
            </g>
            <path d="M49.8701062,46.7692643 C53.6945877,42.2421961 56,36.390327 56,30 C56,15.6405965 44.3594035,4 30,4 C25.7088824,4 21.6605635,5.03954496 18.0931404,6.88053781" id="Path" stroke="#00A9FF" stroke-width="1.4" stroke-linecap="round"></path>
            <g id="black-line" transform="translate(4.000000, 3.000000)" stroke-linecap="round" stroke-width="1.4">
                <g id="arrow" transform="translate(16.000000, 2.500000) rotate(-180.000000) translate(-16.000000, -2.500000) translate(13.000000, -1.000000)" stroke="#00A9FF">
                    <path d="M5.5,1.5 L0.5,0.5" id="Line"></path>
                    <path d="M5.5,1.5 L4.5,6.5" id="Line-Copy-3"></path>
                </g>
                <path d="M7.09680059,9.1485996 C2.69731548,13.805644 0,20.0878261 0,27 C0,41.3594035 11.6405965,53 26,53 L26,53 C30.4375895,53 34.6155221,51.8882768 38.2704776,49.9281505" id="Oval-7" stroke="#061122"></path>
                <g id="arrow" transform="translate(33.000000, 48.000000)" stroke="#061122">
                    <path d="M5.5,1.5 L0.5,0.5" id="Line"></path>
                    <path d="M5.5,1.5 L4.5,6.5" id="Line-Copy-3"></path>
                </g>
            </g>
        </g>
    </g>
</svg>