<?xml version="1.0" encoding="UTF-8"?>
<svg width="60px" height="60px" viewBox="0 0 60 60" version="1.1" xmlns="http://www.w3.org/2000/svg" xmlns:xlink="http://www.w3.org/1999/xlink">
    <!-- Generator: sketchtool 42 (36781) - http://www.bohemiancoding.com/sketch -->
    <title>2A5813E1-3153-4D87-ABCE-43CD2A4D740D</title>
    <desc>Created with sketchtool.</desc>
    <defs></defs>
    <g id="Symbols" stroke="none" stroke-width="1" fill="none" fill-rule="evenodd">
        <g id="Icons/onboarding/Guarding">
            <rect id="Rectangle-4" x="0" y="0" width="60" height="60"></rect>
            <g id="safety" transform="translate(10.000000, 5.000000)">
                <g id="shield" stroke-width="1.4" stroke-linecap="round">
                    <path d="M23.6873511,0.758967695 C23.6873511,0.758967695 19.758764,1.97126581 19.3019825,2.08584275 L1.76995772,6.4805584 C0.727942578,6.74186582 0,7.56921933 0,8.49255353 L0,20.2078361 C0,26.3983503 2.20316613,32.3359555 6.37094441,37.3790207 C9.60229238,41.2893938 13.9201197,44.5178242 18.8573405,46.7155419 C19.2150303,46.8748699 19.6074446,46.9544138 20,46.9544138" id="Shape" stroke="#061122"></path>
                    <path d="M39.6977351,0.710906918 C39.6977351,0.710906918 35.1981753,1.97126581 34.7413938,2.08584275 L17.209369,6.4805584 C16.1673538,6.74186582 15.4394113,7.56921933 15.4394113,8.49255353 L15.4394113,20.2078361 C15.4394113,26.3983503 17.6425774,32.3359555 21.8103557,37.3790207 C25.0417036,41.2893938 29.359531,44.5178242 34.2967517,46.7155419 C34.6544416,46.8748699 35.0468558,46.9544138 35.4394113,46.9544138" id="Shape-Copy" stroke="#00A9FF" transform="translate(27.568573, 23.832660) scale(-1, 1) translate(-27.568573, -23.832660) "></path>
                </g>
                <g id="lock" transform="translate(13.000000, 13.000000)">
                    <rect id="Rectangle-5" stroke="#061122" stroke-width="1.4" x="2.05882353" y="0" width="9.88235294" height="13.5676393" rx="4.94117647"></rect>
                    <ellipse id="Oval-4" fill="#00A9FF" cx="7" cy="13.0106101" rx="7" ry="6.98938992"></ellipse>
                    <path d="M6.12523032,13.1679304 C5.93953837,13.3751664 5.82647059,13.6486943 5.82647059,13.9485245 C5.82647059,14.5943478 6.3518776,15.1202752 7,15.1202752 C7.6468036,15.1202752 8.17352941,14.5956646 8.17352941,13.9485245 C8.17352941,13.6490679 8.06056638,13.375389 7.87478548,13.167966 C7.8783281,13.1360056 7.88014706,13.1035284 7.88014706,13.0706285 L7.88014706,12.1899816 C7.88014706,11.7067871 7.4860918,11.3120855 7,11.3120855 C6.5148973,11.3120855 6.11985294,11.705133 6.11985294,12.1899816 L6.11985294,13.0706285 C6.11985294,13.1035043 6.12167711,13.1359704 6.12523032,13.1679304 L6.12523032,13.1679304 Z" id="Combined-Shape" fill="#FFFFFF"></path>
                </g>
            </g>
        </g>
    </g>
</svg>