<?xml version="1.0" encoding="UTF-8"?>
<svg width="24px" height="24px" viewBox="0 0 24 24" version="1.1" xmlns="http://www.w3.org/2000/svg" xmlns:xlink="http://www.w3.org/1999/xlink">
    <!-- Generator: Sketch 41 (35326) - http://www.bohemiancoding.com/sketch -->
    <title>icons/home blue</title>
    <desc>Created with Sketch.</desc>
    <defs></defs>
    <g id="Symbols" stroke="none" stroke-width="1" fill="none" fill-rule="evenodd">
        <g id="icons/home-blue">
            <g id="chevron-right">
                <rect id="container" x="0" y="0" width="24" height="24"></rect>
            </g>
            <g id="home" transform="translate(7.000000, 5.000000)" fill="#00A9FF">
                <path d="M0,5.53498957 C0,4.98577054 0.362937486,4.26744946 0.792529787,3.94420418 L4.73897512,0.974714737 C5.17667724,0.64536726 5.89030814,0.651469463 6.32667105,0.983592492 L10.2048339,3.93532643 C10.643992,4.26957695 11,4.99678993 11,5.53498957 L11,14 L0,14 L0,5.53498957 Z M5.5,10.4671526 C5.5,9.91061903 5.94707921,9.45945946 6.4996898,9.45945946 L7.06697687,9.45945946 C7.6190903,9.45945946 8.06666667,9.91142376 8.06666667,10.4671526 L8.06666667,14 L5.5,14 L5.5,10.4671526 Z" id="Combined-Shape"></path>
                <polyline id="Path-6" points="2.94910659 2.24020172 2.94910659 2.80021288e-16 1.46666667 0 1.46666667 6.79194518"></polyline>
            </g>
        </g>
    </g>
</svg>