<?xml version="1.0" encoding="UTF-8"?>
<svg width="24px" height="24px" viewBox="0 0 24 24" version="1.1" xmlns="http://www.w3.org/2000/svg" xmlns:xlink="http://www.w3.org/1999/xlink">
    <!-- Generator: sketchtool 41 (35326) - http://www.bohemiancoding.com/sketch -->
    <title>B044FB39-B790-452A-9FB7-7C74BA7B90FB</title>
    <desc>Created with sketchtool.</desc>
    <defs>
        <polyline id="path-1" points="9.01008489 6.8314568 9 4 17.8 4 21 7.02815773 21 20 9 20 9.01718374 17.1491843"></polyline>
        <mask id="mask-2" maskContentUnits="userSpaceOnUse" maskUnits="objectBoundingBox" x="0" y="0" width="12" height="16" fill="white">
            <use xlink:href="#path-1"></use>
        </mask>
    </defs>
    <g id="Symbols" stroke="none" stroke-width="1" fill="none" fill-rule="evenodd">
        <g id="icons/excel">
            <g id="excel">
                <rect id="container" x="0" y="0" width="24" height="24"></rect>
                <use id="Rectangle-14" stroke="#00A9FF" mask="url(#mask-2)" stroke-width="2" xlink:href="#path-1"></use>
                <path d="M5.21826172,11.8212891 L6.26416016,10.0234375 L7.26220703,10.0234375 L5.75830078,12.4912109 L7.29638672,15 L6.28808594,15 L5.21826172,13.1748047 L4.14501953,15 L3.14013672,15 L4.68164062,12.4912109 L3.17431641,10.0234375 L4.17236328,10.0234375 L5.21826172,11.8212891 Z M8.80029297,14.3095703 L11.0595703,14.3095703 L11.0595703,15 L7.93554688,15 L7.93554688,10.0234375 L8.80029297,10.0234375 L8.80029297,14.3095703 Z M14.3237305,13.7182617 C14.3237305,13.4995106 14.2468269,13.3308925 14.0930176,13.2124023 C13.9392082,13.0939122 13.6617859,12.9742845 13.2607422,12.8535156 C12.8596985,12.7327468 12.5406913,12.598308 12.3037109,12.4501953 C11.8502581,12.1653632 11.6235352,11.7939476 11.6235352,11.3359375 C11.6235352,10.9348938 11.7870264,10.6044935 12.1140137,10.3447266 C12.441001,10.0849596 12.8653945,9.95507812 13.387207,9.95507812 C13.7335629,9.95507812 14.0423164,10.0188796 14.3134766,10.1464844 C14.5846368,10.2740892 14.797688,10.4558094 14.9526367,10.6916504 C15.1075854,10.9274914 15.1850586,11.1889634 15.1850586,11.4760742 L14.3237305,11.4760742 C14.3237305,11.2163073 14.2422697,11.0129402 14.0793457,10.8659668 C13.9164217,10.7189934 13.6834325,10.6455078 13.3803711,10.6455078 C13.0978176,10.6455078 12.8785001,10.7058913 12.7224121,10.8266602 C12.5663241,10.947429 12.4882812,11.1160471 12.4882812,11.3325195 C12.4882812,11.5148121 12.5725903,11.6669102 12.7412109,11.7888184 C12.9098316,11.9107265 13.1878236,12.0292149 13.5751953,12.1442871 C13.962567,12.2593593 14.2735991,12.3903801 14.5083008,12.5373535 C14.7430025,12.6843269 14.9150385,12.852945 15.0244141,13.0432129 C15.1337896,13.2334808 15.1884766,13.4562162 15.1884766,13.7114258 C15.1884766,14.1261414 15.0295426,14.4559721 14.7116699,14.7009277 C14.3937972,14.9458834 13.9625678,15.0683594 13.4179688,15.0683594 C13.0579409,15.0683594 12.7269709,15.0017097 12.4250488,14.8684082 C12.1231267,14.7351068 11.8884286,14.5511079 11.7209473,14.3164062 C11.553466,14.0817046 11.4697266,13.8082698 11.4697266,13.4960938 L12.3344727,13.4960938 C12.3344727,13.7786472 12.4278962,13.9973951 12.6147461,14.1523438 C12.801596,14.3072924 13.0693342,14.3847656 13.4179688,14.3847656 C13.7187515,14.3847656 13.9449048,14.3238125 14.0964355,14.2019043 C14.2479663,14.0799961 14.3237305,13.9187836 14.3237305,13.7182617 Z" id="XLS" fill="#00A9FF"></path>
            </g>
        </g>
    </g>
</svg>