<?xml version="1.0" encoding="UTF-8"?>
<svg width="159px" height="119px" viewBox="0 0 159 119" version="1.1" xmlns="http://www.w3.org/2000/svg" xmlns:xlink="http://www.w3.org/1999/xlink">
    <!-- Generator: sketchtool 42 (36781) - http://www.bohemiancoding.com/sketch -->
    <title>5DD0F57C-20BE-41E8-858A-00EA90C261AF</title>
    <desc>Created with sketchtool.</desc>
    <defs>
        <path d="M0,4.0065556 C0,1.79379604 1.79778412,0 3.99793926,0 L86.0020607,0 C88.2100616,0 90,1.79333148 90,4.00310469 L90,56.2898942 L90,56.2898942 C90,58.338929 88.2117092,60 85.9969061,60 L52.9232075,60 L3.99953613,60 C1.79065332,60 0,58.2043192 0,55.9934444 L0,4.0065556 Z" id="path-1"></path>
        <filter x="-50%" y="-50%" width="200%" height="200%" filterUnits="objectBoundingBox" id="filter-2">
            <feOffset dx="0" dy="2" in="SourceAlpha" result="shadowOffsetOuter1"></feOffset>
            <feGaussianBlur stdDeviation="2" in="shadowOffsetOuter1" result="shadowBlurOuter1"></feGaussianBlur>
            <feComposite in="shadowBlurOuter1" in2="SourceAlpha" operator="out" result="shadowBlurOuter1"></feComposite>
            <feColorMatrix values="0 0 0 0 0   0 0 0 0 0   0 0 0 0 0  0 0 0 0.08 0" type="matrix" in="shadowBlurOuter1"></feColorMatrix>
        </filter>
        <mask id="mask-3" maskContentUnits="userSpaceOnUse" maskUnits="objectBoundingBox" x="0" y="0" width="90" height="60" fill="white">
            <use xlink:href="#path-1"></use>
        </mask>
        <path d="M0,4.0065556 C0,1.79379604 1.79778412,0 3.99793926,0 L86.0020607,0 C88.2100616,0 90,1.79333148 90,4.00310469 L90,56.2898942 L90,56.2898942 C90,58.338929 88.2117092,60 85.9969061,60 L52.9232075,60 L3.99953613,60 C1.79065332,60 0,58.2043192 0,55.9934444 L0,4.0065556 Z" id="path-4"></path>
        <mask id="mask-5" maskContentUnits="userSpaceOnUse" maskUnits="objectBoundingBox" x="0" y="0" width="90" height="60" fill="white">
            <use xlink:href="#path-4"></use>
        </mask>
        <path d="M0,4.0065556 C0,1.79379604 1.79778412,0 3.99793926,0 L86.0020607,0 C88.2100616,0 90,1.79333148 90,4.00310469 L90,56.2898942 L90,56.2898942 C90,58.338929 88.2117092,60 85.9969061,60 L52.9232075,60 L3.99953613,60 C1.79065332,60 0,58.2043192 0,55.9934444 L0,4.0065556 Z" id="path-6"></path>
        <filter x="-50%" y="-50%" width="200%" height="200%" filterUnits="objectBoundingBox" id="filter-7">
            <feOffset dx="0" dy="2" in="SourceAlpha" result="shadowOffsetOuter1"></feOffset>
            <feGaussianBlur stdDeviation="2" in="shadowOffsetOuter1" result="shadowBlurOuter1"></feGaussianBlur>
            <feComposite in="shadowBlurOuter1" in2="SourceAlpha" operator="out" result="shadowBlurOuter1"></feComposite>
            <feColorMatrix values="0 0 0 0 0   0 0 0 0 0   0 0 0 0 0  0 0 0 0.08 0" type="matrix" in="shadowBlurOuter1"></feColorMatrix>
        </filter>
        <mask id="mask-8" maskContentUnits="userSpaceOnUse" maskUnits="objectBoundingBox" x="0" y="0" width="90" height="60" fill="white">
            <use xlink:href="#path-6"></use>
        </mask>
        <path d="M0,4.0065556 C0,1.79379604 1.79778412,0 3.99793926,0 L86.0020607,0 C88.2100616,0 90,1.79333148 90,4.00310469 L90,56.2898942 L90,56.2898942 C90,58.338929 88.2117092,60 85.9969061,60 L52.9232075,60 L3.99953613,60 C1.79065332,60 0,58.2043192 0,55.9934444 L0,4.0065556 Z" id="path-9"></path>
        <mask id="mask-10" maskContentUnits="userSpaceOnUse" maskUnits="objectBoundingBox" x="0" y="0" width="90" height="60" fill="white">
            <use xlink:href="#path-9"></use>
        </mask>
    </defs>
    <g id="Cabinet" stroke="none" stroke-width="1" fill="none" fill-rule="evenodd">
        <g id="d_onboarding" transform="translate(-600.000000, -173.000000)">
            <g id="scroll*" transform="translate(590.000000, -17.000000)">
                <g id="settings*" transform="translate(0.000000, 131.000000)">
                    <g id="alert" transform="translate(1.000000, 29.000000)">
                        <g id="art*">
                            <g id="bg">
                                <path d="M154,77.5 L154,77.5 C154,73.91 151.09,71 147.5,71 L110.5,71 C106.91,71 104,68.09 104,64.5 L104,64.5 C104,60.91 106.91,58 110.5,58 L118.5,58 C122.09,58 125,55.09 125,51.5 L125,51.5 C125,47.91 122.09,45 118.5,45 L46.5,45 C42.91,45 40,47.91 40,51.5 L40,51.5 C40,55.09 42.91,58 46.5,58 L61.5,58 C65.09,58 68,60.91 68,64.5 L68,64.5 C68,68.09 65.09,71 61.5,71 L35.5,71 C31.91,71 29,73.91 29,77.5 L29,77.5 C29,81.09 31.91,84 35.5,84 L47.5,84 C51.09,84 54,86.91 54,90.5 L54,90.5 C54,94.09 51.09,97 47.5,97 L38,97 C34.686,97 32,99.686 32,103 L32,103 C32,106.314 34.686,109 38,109 L69.5,109 C73.09,109 76,111.91 76,115.5 L76,115.5 C76,119.09 73.09,122 69.5,122 L62.5,122 C58.91,122 56,124.91 56,128.5 L56,128.5 C56,132.09 58.91,135 62.5,135 L144.5,135 C148.09,135 151,132.09 151,128.5 L151,128.5 C151,124.91 148.09,122 144.5,122 L118.5,122 C114.91,122 112,119.09 112,115.5 L112,115.5 C112,111.91 114.91,109 118.5,109 L126,109 C129.314,109 132,106.314 132,103 L132,103 C132,99.686 129.314,97 126,97 L96.5,97 C92.91,97 90,94.09 90,90.5 L90,90.5 C90,86.91 92.91,84 96.5,84 L147.5,84 C151.09,84 154,81.09 154,77.5" id="bg1" fill="#F6FAFF" transform="translate(91.500000, 90.000000) rotate(-225.000000) translate(-91.500000, -90.000000) "></path>
                                <circle id="Oval-2" fill="#F6FAFF" cx="15" cy="78" r="6"></circle>
                                <circle id="Oval-2-Copy" fill="#00A9FF" cx="41.5" cy="130.5" r="3.5"></circle>
                                <circle id="Oval-2-Copy-2" fill="#F6FAFF" cx="65" cy="36" r="6"></circle>
                                <path d="M101.177574,36.9486115 L99.7464111,36.9486115 C99.2524811,36.9486115 98.8519345,36.5379193 98.8519345,36.0314784 L98.8519345,34.5640656 C98.8519345,34.0576247 98.4513878,33.6469325 97.9574579,33.6469325 L97.9574579,33.6469325 C97.4635279,33.6469325 97.0629813,34.0576247 97.0629813,34.5640656 L97.0629813,36.0314784 C97.0629813,36.5379193 96.6624346,36.9486115 96.1685047,36.9486115 L94.7373421,36.9486115 C94.2434121,36.9486115 93.8428655,37.3593037 93.8428655,37.8657445 L93.8428655,38.0491712 C93.8428655,38.555612 94.2434121,38.9663042 94.7373421,38.9663042 L96.1685047,38.9663042 C96.6624346,38.9663042 97.0629813,39.3769964 97.0629813,39.8834373 L97.0629813,41.3508501 C97.0629813,41.857291 97.4635279,42.2679832 97.9574579,42.2679832 L97.9574579,42.2679832 C98.4513878,42.2679832 98.8519345,41.857291 98.8519345,41.3508501 L98.8519345,39.8834373 C98.8519345,39.3769964 99.2524811,38.9663042 99.7464111,38.9663042 L101.177574,38.9663042 C101.671504,38.9663042 102.07205,38.555612 102.07205,38.0491712 L102.07205,37.8657445 C102.07205,37.3593037 101.671504,36.9486115 101.177574,36.9486115" id="Page-1-Copy" fill="#00A9FF" transform="translate(97.957458, 37.957458) rotate(-315.000000) translate(-97.957458, -37.957458) "></path>
                                <g id="Page-1" transform="translate(96.260931, 72.683766) rotate(-315.000000) translate(-96.260931, -72.683766) translate(41.260931, 25.683766)" fill="#00A9FF">
                                    <path d="M109.248939,23.0255302 L109.872335,24.2850413 C110.37503,25.3008357 109.300965,26.3751314 108.28494,25.8722056 L107.02566,25.2488089 C106.694307,25.0850979 106.30584,25.0850979 105.974487,25.2488089 L104.715207,25.8722056 C103.699182,26.3751314 102.625117,25.3008357 103.127812,24.2850413 L103.751209,23.0255302 C103.915151,22.6944085 103.915151,22.3057105 103.751209,21.9745888 L103.127812,20.7150777 C102.625117,19.6990521 103.699182,18.6249877 104.715207,19.1279134 L105.974487,19.7510789 C106.30584,19.9150211 106.694307,19.9150211 107.02566,19.7510789 L108.28494,19.1279134 C109.300965,18.6249877 110.37503,19.6990521 109.872335,20.7150777 L109.248939,21.9745888 C109.084996,22.3057105 109.084996,22.6944085 109.248939,23.0255302" id="Fill-1"></path>
                                    <path d="M6.90893852,89.9944114 L7.56186819,91.3135909 C8.08837751,92.3775078 6.96343006,93.5026975 5.89927094,92.975946 L4.58033363,92.3230163 C4.2332831,92.1515496 3.82641298,92.1515496 3.47936245,92.3230163 L2.16042514,92.975946 C1.09626602,93.5026975 -0.0286814325,92.3775078 0.497827881,91.3135909 L1.15075755,89.9944114 C1.32246643,89.647603 1.32246643,89.2404907 1.15075755,88.8936824 L0.497827881,87.5745029 C-0.0286814325,86.5103438 1.09626602,85.3853963 2.16042514,85.9121478 L3.47936245,86.5648353 C3.82641298,86.7365442 4.2332831,86.7365442 4.58033363,86.5648353 L5.89927094,85.9121478 C6.96343006,85.3853963 8.08837751,86.5103438 7.56186819,87.5745029 L6.90893852,88.8936824 C6.73722964,89.2404907 6.73722964,89.647603 6.90893852,89.9944114" id="Fill-1-Copy-2"></path>
                                    <path d="M68.8166472,3.02656846 L69.2024108,3.80596532 C69.5134827,4.4345481 68.8488419,5.09933198 68.220116,4.78811697 L67.4408623,4.40235344 C67.2358181,4.30104759 66.9954313,4.30104759 66.7903871,4.40235344 L66.0111333,4.78811697 C65.3824075,5.09933198 64.7177667,4.4345481 65.0288386,3.80596532 L65.4146021,3.02656846 C65.5160511,2.82166736 65.5160511,2.5811375 65.4146021,2.3762364 L65.0288386,1.59683954 C64.7177667,0.968113675 65.3824075,0.30347288 66.0111333,0.614687892 L66.7903871,1.00030833 C66.9954313,1.10175727 67.2358181,1.10175727 67.4408623,1.00030833 L68.220116,0.614687892 C68.8488419,0.30347288 69.5134827,0.968113675 69.2024108,1.59683954 L68.8166472,2.3762364 C68.7151983,2.5811375 68.7151983,2.82166736 68.8166472,3.02656846" id="Fill-1-Copy-3"></path>
                                    <path d="M109.182955,7.69463562 L109.600249,8.53773535 C109.936745,9.21769442 109.217781,9.93681344 108.537667,9.60016173 L107.694722,9.18286838 C107.472919,9.07328244 107.212885,9.07328244 106.991082,9.18286838 L106.148137,9.60016173 C105.468023,9.93681344 104.749059,9.21769442 105.085556,8.53773535 L105.502849,7.69463562 C105.61259,7.47298723 105.61259,7.21279802 105.502849,6.99114962 L105.085556,6.1480499 C104.749059,5.46793604 105.468023,4.7489718 106.148137,5.08562352 L106.991082,5.50276208 C107.212885,5.6125028 107.472919,5.6125028 107.694722,5.50276208 L108.537667,5.08562352 C109.217781,4.7489718 109.936745,5.46793604 109.600249,6.1480499 L109.182955,6.99114962 C109.073214,7.21279802 109.073214,7.47298723 109.182955,7.69463562" id="Fill-1-Copy"></path>
                                </g>
                                <circle id="Oval-2-Copy-3" fill="#F6FAFF" cx="162" cy="107" r="6"></circle>
                                <circle id="Oval-2-Copy-4" fill="#F6FAFF" cx="126" cy="143" r="6"></circle>
                            </g>
                            <g id="Group-2" transform="translate(43.000000, 58.000000)">
                                <g id="Rectangle-5-Copy-3">
                                    <use fill="black" fill-opacity="1" filter="url(#filter-2)" xlink:href="#path-1"></use>
                                    <use stroke="#00A9FF" mask="url(#mask-3)" stroke-width="2.8" fill="#FFFFFF" fill-rule="evenodd" xlink:href="#path-1"></use>
                                </g>
                                <path d="M80,0 L85.990237,0 C88.204768,0 90,1.79333148 90,4.00310469 L90,52.2867895 C90,54.4976432 90,58.0797423 90,60 L90,60 L85.8803564,60 L80,60 L80,60 C81.1045695,57.8408706 82,53.8597423 82,51.088968 L82,9.17514677 C82,6.41284911 81.0351498,2.16013221 80,0 L80,0 Z" id="Rectangle-5-Copy-4" fill="#F6FAFF"></path>
                                <use id="Rectangle-5-Copy-5" stroke="#00A9FF" mask="url(#mask-5)" stroke-width="2.8" xlink:href="#path-4"></use>
                                <g id="icons/user-hb" transform="translate(5.000000, 5.000000)">
                                    <g id="dropdown">
                                        <rect id="container" fill="#E0E6EF" opacity="0.400000006" x="0" y="0" width="24" height="24" rx="2"></rect>
                                        <circle id="Oval" fill="#00A9FF" cx="12" cy="9" r="3"></circle>
                                        <path d="M7,18 L7,18 C7,15.8001631 8.50767284,14 10.3507356,14 L13.6492644,14 C15.4923272,14 17,15.8001631 17,18 L17,18" id="Stroke-3" stroke="#00A9FF" stroke-width="1.4" stroke-linecap="round"></path>
                                    </g>
                                </g>
                            </g>
                            <g id="Group-4" transform="translate(43.000000, 58.000000)">
                                <g id="Rectangle-5-Copy-3">
                                    <use fill="black" fill-opacity="1" filter="url(#filter-7)" xlink:href="#path-6"></use>
                                    <use stroke="#00A9FF" mask="url(#mask-8)" stroke-width="2.8" fill="#FFFFFF" fill-rule="evenodd" xlink:href="#path-6"></use>
                                </g>
                                <path d="M80,0 L85.990237,0 C88.204768,0 90,1.79333148 90,4.00310469 L90,52.2867895 C90,54.4976432 88.6738425,57.4842171 87.0279068,58.9665287 L85.8803564,60 L80,60 L80,60 C81.1045695,57.8408706 82,53.8597423 82,51.088968 L82,9.17514677 C82,6.41284911 81.0351498,2.16013221 80,0 L80,0 Z" id="Rectangle-5-Copy-4" fill="#F6FAFF"></path>
                                <path d="M2,15 L89,15" id="Line" stroke="#00A9FF" stroke-width="1.4" stroke-linecap="square"></path>
                                <path d="M9,38 L45.5855163,38" id="Line-Copy" stroke="#00A9FF" stroke-width="1.4" stroke-linecap="round" stroke-linejoin="round"></path>
                                <path d="M9,44 L35.5047166,44" id="Line-Copy-2" stroke="#061122" stroke-width="1.4" stroke-linecap="round" stroke-linejoin="round"></path>
                                <use id="Rectangle-5-Copy-5" stroke="#00A9FF" mask="url(#mask-10)" stroke-width="2.8" xlink:href="#path-9"></use>
                            </g>
                            <g id="Group-6" transform="translate(111.000000, 111.000000)">
                                <rect id="Rectangle-2-Copy" stroke="#00A9FF" stroke-width="1.4" fill="#FFFFFF" x="0" y="0" width="38" height="25" rx="1"></rect>
                                <rect id="Rectangle-2-Copy-4" fill="#F6FAFF" x="33" y="0" width="5" height="25"></rect>
                                <rect id="Rectangle-2-Copy-5" stroke="#061122" stroke-width="1.4" x="0" y="0" width="38" height="25" rx="1"></rect>
                            </g>
                            <g id="Group-7" transform="translate(108.000000, 101.000000)">
                                <rect id="Rectangle-2" stroke="#00A9FF" stroke-width="1.4" fill="#FFFFFF" x="0" y="0" width="44" height="10" rx="1"></rect>
                                <rect id="Rectangle-2-Copy-2" fill="#F6FAFF" x="39" y="0" width="5" height="10"></rect>
                                <rect id="Rectangle-2-Copy-3" stroke="#00A9FF" stroke-width="1.4" x="0" y="0" width="44" height="10" rx="1"></rect>
                            </g>
                            <g id="gift" transform="translate(110.000000, 94.000000)" stroke-width="1.4">
                                <g id="Group-5" transform="translate(10.000000, 0.000000)" fill="#FFFFFF">
                                    <path d="M16.4098104,7.00002427 C18.342807,7.00002427 19.9098104,5.43302089 19.9098104,3.50002427 C19.9098104,1.56702764 18.342807,2.42674703e-05 16.4098104,2.42674703e-05 C11.1745049,-0.0150525185 8,7.00002427 8,7.00002427 L16.4098104,7.00002427 Z" id="Oval-5" stroke="#061122"></path>
                                    <path d="M8.40981035,7.00002427 C10.342807,7.00002427 11.9098104,5.43302089 11.9098104,3.50002427 C11.9098104,1.56702764 10.342807,2.42674703e-05 8.40981035,2.42674703e-05 C3.17450491,-0.0150525185 -1.13686838e-13,7.00002427 -1.13686838e-13,7.00002427 L8.40981035,7.00002427 Z" id="Oval-5-Copy" stroke="#00A9FF" transform="translate(5.954905, 3.500012) scale(-1, 1) translate(-5.954905, -3.500012) "></path>
                                </g>
                                <path d="M20.0007959,17.4945094 L20.0007959,40.3360429" id="Line" stroke="#00A9FF" stroke-linecap="square"></path>
                                <path d="M1,14 L1,19.3400002" id="Line-Copy-3" stroke="#061122" stroke-linecap="round"></path>
                            </g>
                        </g>
                    </g>
                </g>
            </g>
        </g>
    </g>
</svg>