<?xml version="1.0" encoding="UTF-8"?>
<svg width="24px" height="24px" viewBox="0 0 24 24" version="1.1" xmlns="http://www.w3.org/2000/svg" xmlns:xlink="http://www.w3.org/1999/xlink">
    <!-- Generator: sketchtool 41 (35326) - http://www.bohemiancoding.com/sketch -->
    <title>07BF6E14-91CC-46B8-B065-2C0A579AB7F6</title>
    <desc>Created with sketchtool.</desc>
    <defs></defs>
    <g id="Symbols" stroke="none" stroke-width="1" fill="none" fill-rule="evenodd">
        <g id="icons/menu/hamburger-blue">
            <g id="Group-4">
                <rect id="Rectangle-3" x="0" y="0" width="24" height="24"></rect>
                <path d="M6.25056739,5 C6.25056739,4.44771525 6.69857426,4 7.24816062,4 L22.0024068,4 C22.5533623,4 23,4.44386482 23,5 C23,5.55228475 22.5519931,6 22.0024068,6 L7.24816062,6 C6.6972051,6 6.25056739,5.55613518 6.25056739,5 Z M6.25056739,12 C6.25056739,11.4477153 6.69857426,11 7.24816062,11 L22.0024068,11 C22.5533623,11 23,11.4438648 23,12 C23,12.5522847 22.5519931,13 22.0024068,13 L7.24816062,13 C6.6972051,13 6.25056739,12.5561352 6.25056739,12 Z M6.25056739,19 C6.25056739,18.4477153 6.69857426,18 7.24816062,18 L22.0024068,18 C22.5533623,18 23,18.4438648 23,19 C23,19.5522847 22.5519931,20 22.0024068,20 L7.24816062,20 C6.6972051,20 6.25056739,19.5561352 6.25056739,19 Z M2.98329551,6 C3.52635462,6 3.96659101,5.55228475 3.96659101,5 C3.96659101,4.44771525 3.52635462,4 2.98329551,4 C2.44023639,4 2,4.44771525 2,5 C2,5.55228475 2.44023639,6 2.98329551,6 Z M2.98329551,13 C3.52635462,13 3.96659101,12.5522847 3.96659101,12 C3.96659101,11.4477153 3.52635462,11 2.98329551,11 C2.44023639,11 2,11.4477153 2,12 C2,12.5522847 2.44023639,13 2.98329551,13 Z M2.98329551,20 C3.52635462,20 3.96659101,19.5522847 3.96659101,19 C3.96659101,18.4477153 3.52635462,18 2.98329551,18 C2.44023639,18 2,18.4477153 2,19 C2,19.5522847 2.44023639,20 2.98329551,20 Z" id="Hamburger-menu" fill="#00A9FF"></path>
            </g>
        </g>
    </g>
</svg>