<?xml version="1.0" encoding="UTF-8" standalone="no"?>
<svg width="42px" height="38px" viewBox="0 0 42 38" version="1.1" xmlns="http://www.w3.org/2000/svg" xmlns:xlink="http://www.w3.org/1999/xlink">
    <!-- Generator: sketchtool 40.1 (33804) - http://www.bohemiancoding.com/sketch -->
    <title>A9D43FA5-BC55-4409-8B4A-925F96B7DF00</title>
    <desc>Created with sketchtool.</desc>
    <defs></defs>
    <g id="Register-login-mobile" stroke="none" stroke-width="1" fill="none" fill-rule="evenodd" opacity="0.5">
        <g id="Placeholder-mobile" transform="translate(-18.000000, -159.000000)" fill="#FFFFFF">
            <g id="search" transform="translate(0.000000, 159.000000)">
                <path d="M33.9212108,8.39054856 L38.3662516,11.6704137 C38.5510949,11.8111049 38.7711464,11.8726574 38.9911979,11.8726574 C39.2112495,11.8726574 39.431301,11.8023117 39.6161443,11.6704137 L44.0611851,8.39054856 C44.3340489,8.18830486 44.492486,7.88054272 44.492486,7.53760776 L44.492486,1.85719791 C44.492486,1.27684644 44.0171748,0.802013423 43.4362387,0.802013423 L34.5549592,0.802013423 C33.9740232,0.802013423 33.4987119,1.27684644 33.4987119,1.85719791 L33.4987119,7.53760776 C33.4987119,7.87174951 33.657149,8.18830486 33.9212108,8.39054856 L33.9212108,8.39054856 Z M35.6112065,2.91238241 L42.3975955,2.91238241 L42.3975955,7.00122231 L39,9.50728548 L35.6112065,7.01001551 L35.6112065,2.91238241 Z M55.0813654,5.28654751 L47.2035208,5.28654751 C46.6225848,5.28654751 46.1472735,5.76138053 46.1472735,6.341732 C46.1472735,6.92208347 46.6225848,7.39691649 47.2035208,7.39691649 L55.0813654,7.39691649 C56.3576642,7.39691649 57.3875054,8.43451458 57.3875054,9.70073597 L57.3875054,32.9851404 C57.3875054,34.260155 56.3488622,35.2889599 55.0813654,35.2889599 L22.9186346,35.2889599 C21.6423358,35.2889599 20.6124946,34.2513618 20.6124946,32.9851404 L20.6124946,9.70073597 C20.6124946,8.42572137 21.6511378,7.39691649 22.9186346,7.39691649 L30.7876771,7.39691649 C31.3686131,7.39691649 31.8439244,6.92208347 31.8439244,6.341732 C31.8439244,5.76138053 31.3686131,5.28654751 30.7876771,5.28654751 L22.9186346,5.28654751 C20.4804637,5.28654751 18.5,7.26501843 18.5,9.70073597 L18.5,32.9851404 C18.5,35.4208579 20.4804637,37.3993289 22.9186346,37.3993289 L55.0813654,37.3993289 C57.5195363,37.3993289 59.5,35.4208579 59.5,32.9851404 L59.5,9.70073597 C59.5,7.26501843 57.5195363,5.28654751 55.0813654,5.28654751 Z M26.148991,16.3396051 C26.148991,18.3708352 27.8037784,20.0239576 29.8370545,20.0239576 C31.8703306,20.0239576 33.5251181,18.3708352 33.5251181,16.3396051 C33.5251181,14.3083749 31.8703306,12.6552525 29.8370545,12.6552525 C27.8037784,12.6552525 26.148991,14.3083749 26.148991,16.3396051 Z M31.4126234,16.3396051 C31.4126234,17.2101323 30.7084586,17.9135886 29.8370545,17.9135886 C28.9656505,17.9135886 28.2614856,17.2101323 28.2614856,16.3396051 C28.2614856,15.4690779 28.9656505,14.7656215 29.8370545,14.7656215 C30.7084586,14.7656215 31.4126234,15.4690779 31.4126234,16.3396051 Z M29.8370545,20.7801731 C27.7509661,20.7801731 26.0609704,21.7474256 24.9519107,23.576412 C24.1509231,24.8953926 23.6492057,26.6804131 23.4467583,28.8787141 C23.3939459,29.4590656 23.8252469,29.9690714 24.4061829,30.0218306 C24.9871189,30.0745898 25.4976385,29.6437228 25.5504508,29.0633714 C25.9289395,24.9657383 27.3724775,22.8905421 29.8370545,22.8905421 C32.3016316,22.8905421 33.7451696,24.9657383 34.1236582,29.0633714 C34.1764706,29.60855 34.6341778,30.0218306 35.1711035,30.0218306 C35.2063117,30.0218306 35.2327179,30.0218306 35.2679261,30.0130374 C35.8488622,29.9602782 36.2801632,29.4502724 36.2273508,28.8699209 C36.0249034,26.6716199 35.5143839,24.8953926 34.7221984,23.5676188 C33.6131387,21.7474256 31.923143,20.7801731 29.8370545,20.7801731 Z M52.0622585,14.6249303 L40.2674968,14.6249303 C39.6865608,14.6249303 39.2112495,15.0997633 39.2112495,15.6801147 C39.2112495,16.2604662 39.6865608,16.7352992 40.2674968,16.7352992 L52.0622585,16.7352992 C52.6431945,16.7352992 53.1185058,16.2604662 53.1185058,15.6801147 C53.1185058,15.0997633 52.6431945,14.6249303 52.0622585,14.6249303 Z M53.1185058,23.2334771 C53.1185058,22.6531256 52.6431945,22.1782926 52.0622585,22.1782926 L40.2674968,22.1782926 C39.6865608,22.1782926 39.2112495,22.6531256 39.2112495,23.2334771 C39.2112495,23.8138285 39.6865608,24.2886616 40.2674968,24.2886616 L52.0622585,24.2886616 C52.6431945,24.2886616 53.1185058,23.8226217 53.1185058,23.2334771 Z M40.2674968,25.9417839 C39.6865608,25.9417839 39.2112495,26.4166169 39.2112495,26.9969684 C39.2112495,27.5773199 39.6865608,28.0521529 40.2674968,28.0521529 L46.1648776,28.0521529 C46.7458137,28.0521529 47.2211249,27.5773199 47.2211249,26.9969684 C47.2211249,26.4166169 46.7458137,25.9417839 46.1648776,25.9417839 L40.2674968,25.9417839 Z M52.0622585,18.3884216 L40.2674968,18.3884216 C39.6865608,18.3884216 39.2112495,18.8632546 39.2112495,19.4436061 C39.2112495,20.0239576 39.6865608,20.4987906 40.2674968,20.4987906 L52.0622585,20.4987906 C52.6431945,20.4987906 53.1185058,20.0239576 53.1185058,19.4436061 C53.1185058,18.8632546 52.6431945,18.3884216 52.0622585,18.3884216 Z" id="id-card"></path>
            </g>
        </g>
    </g>
</svg>