<?xml version="1.0" encoding="UTF-8" standalone="no"?>
<svg width="32px" height="32px" viewBox="0 0 32 32" version="1.1" xmlns="http://www.w3.org/2000/svg" xmlns:xlink="http://www.w3.org/1999/xlink">
    <!-- Generator: sketchtool 39 (31667) - http://www.bohemiancoding.com/sketch -->
    <title>622E95FA-7876-4BE1-BAD1-F19FE0656DC9</title>
    <desc>Created with sketchtool.</desc>
    <defs></defs>
    <g id="Alseko" stroke="none" stroke-width="1" fill="none" fill-rule="evenodd">
        <g id="Alseko-2" transform="translate(-9.000000, -3558.000000)">
            <g id="Input-forms" transform="translate(9.000000, 331.000000)">
                <g id="total" transform="translate(0.000000, 3112.000000)">
                    <g id="info" transform="translate(0.000000, 115.000000)">
                        <path d="M18.0214055,0.630670795 C17.3548192,0.543826424 16.6800645,0.5 16,0.5 C7.43958638,0.5 0.5,7.43958638 0.5,16 C0.5,24.5604136 7.43958638,31.5 16,31.5 C24.5604136,31.5 31.5,24.5604136 31.5,16 L30.5,16 C30.5,24.0081289 24.0081289,30.5 16,30.5 C7.99187113,30.5 1.5,24.0081289 1.5,16 C1.5,7.99187113 7.99187113,1.5 16,1.5 C16.636837,1.5 17.2684381,1.54102353 17.892215,1.62229059 C18.6081516,1.71556444 19.3126712,1.86171175 20.0014178,2.0590218 L20.2768167,1.09769177 C19.5402411,0.886679792 18.7868524,0.730394958 18.0214055,0.630670795 Z M25.0424993,3.40960081 L24.4584974,4.22135309 C25.9133747,5.26804079 27.1652765,6.57672579 28.1458657,8.07674242 L28.9828841,7.52956768 C27.9349254,5.92649526 26.5972334,4.52812884 25.0424993,3.40960081 Z" id="Oval" fill-opacity="0.2" fill="#00A9FF"></path>
                        <g id="info-sign" transform="translate(13.000000, 9.000000)">
                            <path d="M1.89691304,14 C1.20730435,14 0.701608696,13.54332 1.18434783,11.5339 L1.97608696,7.96992 C2.11395652,7.39914 2.13652174,7.17094 1.97608696,7.17094 C1.76895652,7.17094 0.873782609,7.56518 0.344347826,7.95354 L0,7.33684 C1.67778261,5.8072 3.60808696,4.91008 4.43530435,4.91008 C5.12465217,4.91008 5.23982609,5.80062 4.89508696,7.1708 L3.98869565,10.9172 C3.82773913,11.57926 3.897,11.80746 4.05743478,11.80746 C4.26430435,11.80746 4.94269565,11.53264 5.60908696,10.96172 L6,11.53278 C4.368,13.314 2.58652174,14 1.89691304,14 L1.89691304,14 Z" id="Shape" fill="#061122"></path>
                            <path d="M4.58634783,0 C5.45973913,0 5.89630435,0.63938 5.89630435,1.37046 C5.89630435,2.28354 5.13795652,3.12816 4.14965217,3.12816 C3.32217391,3.12816 2.83943478,2.60288 2.8623913,1.73558 C2.8623913,1.00464 3.43695652,0 4.58634783,0 L4.58634783,0 Z" id="Path" fill="#00A9FF"></path>
                        </g>
                    </g>
                </g>
            </g>
        </g>
    </g>
</svg>