<?xml version="1.0" encoding="UTF-8" standalone="no"?>
<svg width="20px" height="20px" viewBox="0 0 20 20" version="1.1" xmlns="http://www.w3.org/2000/svg" xmlns:xlink="http://www.w3.org/1999/xlink">
    <!-- Generator: sketchtool 39 (31667) - http://www.bohemiancoding.com/sketch -->
    <title>9E103CBC-7536-43FE-974A-9B418DE44759</title>
    <desc>Created with sketchtool.</desc>
    <defs></defs>
    <g id="Symbols" stroke="none" stroke-width="1" fill="none" fill-rule="evenodd" opacity="0.8">
        <g id="Elements/footer/mobile/footer" transform="translate(-210.000000, -1381.000000)" fill="#FF0000">
            <g id="footer">
                <g id="social-icons" transform="translate(16.000000, 1208.000000)">
                    <g transform="translate(4.000000, 163.000000)" id="facebook-copy-3">
                        <g transform="translate(180.000000, 0.000000)">
                            <g id="flaticon1468402494-svg" transform="translate(10.000000, 10.000000)">
                                <g id="Layer_1">
                                    <g id="Instagram">
                                        <path d="M14.0173188,0 L5.94768116,0 C2.66811594,0 0,2.66811594 0,5.94768116 L0,14.0173188 C0,17.2968841 2.66811594,19.965 5.94768116,19.965 L14.0173188,19.965 C17.2968841,19.965 19.965,17.2968841 19.965,14.0173188 L19.965,5.94768116 C19.9649638,2.66811594 17.2968478,0 14.0173188,0 L14.0173188,0 Z M17.9565217,14.0173188 C17.9565217,16.1928623 16.1928623,17.9565217 14.0173188,17.9565217 L5.94768116,17.9565217 C3.77213768,17.9565217 2.00847826,16.1928623 2.00847826,14.0173188 L2.00847826,5.94768116 C2.00847826,3.77210145 3.77213768,2.00847826 5.94768116,2.00847826 L14.0173188,2.00847826 C16.1928623,2.00847826 17.9565217,3.77210145 17.9565217,5.94768116 L17.9565217,14.0173188 L17.9565217,14.0173188 L17.9565217,14.0173188 Z" id="XMLID_17_"></path>
                                        <path d="M9.9825,4.81884058 C7.13525362,4.81884058 4.81884058,7.13525362 4.81884058,9.98246377 C4.81884058,12.8296739 7.13525362,15.1461232 9.9825,15.1461232 C12.8297464,15.1461232 15.1461594,12.8297101 15.1461594,9.98246377 C15.1461594,7.13521739 12.8297464,4.81884058 9.9825,4.81884058 L9.9825,4.81884058 Z M9.9825,13.1376812 C8.23992754,13.1376812 6.82731884,11.7250725 6.82731884,9.9825 C6.82731884,8.23992754 8.23996377,6.82731884 9.9825,6.82731884 C11.7250725,6.82731884 13.1376812,8.23992754 13.1376812,9.9825 C13.1376812,11.7250362 11.7250362,13.1376812 9.9825,13.1376812 L9.9825,13.1376812 Z" id="XMLID_81_"></path>
                                        <ellipse id="XMLID_83_" cx="15.1560145" cy="4.85768116" rx="1.23728261" ry="1.23728261"></ellipse>
                                    </g>
                                </g>
                            </g>
                        </g>
                    </g>
                </g>
            </g>
        </g>
    </g>
</svg>