<?xml version="1.0" encoding="UTF-8"?>
<svg width="24px" height="24px" viewBox="0 0 24 24" version="1.1" xmlns="http://www.w3.org/2000/svg" xmlns:xlink="http://www.w3.org/1999/xlink">
    <!-- Generator: Sketch 42 (36781) - http://www.bohemiancoding.com/sketch -->
    <title>Icons/small/eye dont show</title>
    <desc>Created with Sketch.</desc>
    <defs></defs>
    <g id="Symbols" stroke="none" stroke-width="1" fill="none" fill-rule="evenodd">
        <g id="Icons/small/eye-dont-show">
            <rect id="container" x="0" y="0" width="24" height="24"></rect>
            <g id="Eye-show-pass" transform="translate(4.000000, 6.000000)">
                <path d="M13.8584726,7.94761456 C14.4880101,7.48720374 15.0615553,6.99220911 15.5654063,6.49803924 C15.864029,6.20515429 16.0692476,5.98214734 16.1686946,5.86455828 L16.1695925,7.11115823 C16.0701868,6.99394453 15.8650104,6.77160275 15.5664295,6.47957235 C15.0626201,5.98681593 14.4891133,5.4932295 13.8596036,5.03411804 C12.1063093,3.75541245 10.2802522,3 8.5,3 C6.71974782,3 4.89369066,3.75541245 3.14039637,5.03411804 C2.51088673,5.4932295 1.93737994,5.98681593 1.43357053,6.47957235 C1.13498962,6.77160275 0.929813168,6.99394453 0.830407453,7.11115823 L0.83130543,5.86455828 C0.93075244,5.98214734 1.13597101,6.20515429 1.43459374,6.49803924 C1.93844468,6.99220911 2.5119899,7.48720374 3.14152739,7.94761456 C4.8946637,9.22976682 6.72041537,9.98715697 8.5,9.98715697 C10.2795846,9.98715697 12.1053363,9.22976682 13.8584726,7.94761456 Z M0,6.4873281 C0,6.4873281 3.80557963,2 8.5,2 C13.1944204,2 17,6.4873281 17,6.4873281 C17,6.4873281 13.1944204,10.987157 8.5,10.987157 C3.80557963,10.987157 0,6.4873281 0,6.4873281 Z" id="Oval" fill="#00A9FF" fill-rule="nonzero"></path>
                <circle id="Oval-2" fill="#071222" cx="8.5" cy="6.5" r="1.5"></circle>
                <path d="M15.5,0.5 L1.5,12.5" id="Line" stroke="#979797" stroke-linecap="round"></path>
            </g>
        </g>
    </g>
</svg>