<?xml version="1.0" encoding="UTF-8"?>
<svg width="24px" height="24px" viewBox="0 0 24 24" version="1.1" xmlns="http://www.w3.org/2000/svg" xmlns:xlink="http://www.w3.org/1999/xlink">
    <!-- Generator: sketchtool 41 (35326) - http://www.bohemiancoding.com/sketch -->
    <title>80483985-9BA9-4629-BA81-E2CC8CABB89B</title>
    <desc>Created with sketchtool.</desc>
    <defs>
        <polyline id="path-1" points="9.01008489 6.8314568 9 4 17.8 4 21 7.02815773 21 20 9 20 9.01718374 17.1491843"></polyline>
        <mask id="mask-2" maskContentUnits="userSpaceOnUse" maskUnits="objectBoundingBox" x="0" y="0" width="12" height="16" fill="white">
            <use xlink:href="#path-1"></use>
        </mask>
    </defs>
    <g id="Symbols" stroke="none" stroke-width="1" fill="none" fill-rule="evenodd">
        <g id="icons/pdf">
            <g id="pdf">
                <rect id="container" x="0" y="0" width="24" height="24"></rect>
                <use id="Rectangle-14" stroke="#00A9FF" mask="url(#mask-2)" stroke-width="2" xlink:href="#path-1"></use>
                <path d="M4.37060547,13.1508789 L4.37060547,15 L3.50585938,15 L3.50585938,10.0234375 L5.40966797,10.0234375 C5.96566033,10.0234375 6.40714355,10.1681301 6.73413086,10.4575195 C7.06111817,10.746909 7.22460938,11.1297177 7.22460938,11.605957 C7.22460938,12.0935897 7.06453611,12.4729804 6.74438477,12.7441406 C6.42423343,13.0153008 5.97591434,13.1508789 5.39941406,13.1508789 L4.37060547,13.1508789 Z M4.37060547,12.4570312 L5.40966797,12.4570312 C5.71728669,12.4570312 5.95198487,12.384685 6.11376953,12.2399902 C6.27555419,12.0952955 6.35644531,11.8862318 6.35644531,11.612793 C6.35644531,11.3439114 6.27441488,11.1291512 6.11035156,10.9685059 C5.94628824,10.8078605 5.72070456,10.7252604 5.43359375,10.7207031 L4.37060547,10.7207031 L4.37060547,12.4570312 Z M7.97998047,15 L7.97998047,10.0234375 L9.44970703,10.0234375 C9.88948788,10.0234375 10.2797021,10.1214183 10.6203613,10.3173828 C10.9610206,10.5133473 11.2247712,10.7913393 11.4116211,11.1513672 C11.598471,11.511395 11.6918945,11.9238258 11.6918945,12.3886719 L11.6918945,12.6381836 C11.6918945,13.1098656 11.5979013,13.524575 11.4099121,13.8823242 C11.2219229,14.2400734 10.9541847,14.5157868 10.6066895,14.7094727 C10.2591942,14.9031585 9.86100485,15 9.41210938,15 L7.97998047,15 Z M8.84472656,10.7207031 L8.84472656,14.3095703 L9.40869141,14.3095703 C9.86214419,14.3095703 10.2102039,14.167726 10.4528809,13.8840332 C10.6955579,13.6003404 10.8191732,13.1930365 10.8237305,12.6621094 L10.8237305,12.3852539 C10.8237305,11.8452121 10.7063814,11.4327814 10.4716797,11.1479492 C10.236978,10.8631171 9.89632385,10.7207031 9.44970703,10.7207031 L8.84472656,10.7207031 Z M15.4208984,12.8911133 L13.4179688,12.8911133 L13.4179688,15 L12.5532227,15 L12.5532227,10.0234375 L15.7148438,10.0234375 L15.7148438,10.7207031 L13.4179688,10.7207031 L13.4179688,12.2006836 L15.4208984,12.2006836 L15.4208984,12.8911133 Z" id="PDF" fill="#00A9FF"></path>
            </g>
        </g>
    </g>
</svg>