<?xml version="1.0" encoding="UTF-8"?>
<svg width="24px" height="24px" viewBox="0 0 24 24" version="1.1" xmlns="http://www.w3.org/2000/svg" xmlns:xlink="http://www.w3.org/1999/xlink">
    <!-- Generator: sketchtool 41 (35326) - http://www.bohemiancoding.com/sketch -->
    <title>D48E7696-719E-491D-9BF8-C36743D54721</title>
    <desc>Created with sketchtool.</desc>
    <defs></defs>
    <g id="Symbols" stroke="none" stroke-width="1" fill="none" fill-rule="evenodd">
        <g id="icons/plus">
            <g id="Plus">
                <rect id="container" x="0" y="0" width="24" height="24"></rect>
                <path d="M11,11 L6.00684547,11 C5.44994876,11 5,11.4477153 5,12 C5,12.5561352 5.45078007,13 6.00684547,13 L11,13 L11,17.9931545 C11,18.5500512 11.4477153,19 12,19 C12.5561352,19 13,18.5492199 13,17.9931545 L13,13 L17.9931545,13 C18.5500512,13 19,12.5522847 19,12 C19,11.4438648 18.5492199,11 17.9931545,11 L13,11 L13,6.00684547 C13,5.44994876 12.5522847,5 12,5 C11.4438648,5 11,5.45078007 11,6.00684547 L11,11 Z" id="Combined-Shape" fill="#00A9FF"></path>
            </g>
        </g>
    </g>
</svg>