<?xml version="1.0" encoding="UTF-8"?>
<svg width="24px" height="24px" viewBox="0 0 24 24" version="1.1" xmlns="http://www.w3.org/2000/svg" xmlns:xlink="http://www.w3.org/1999/xlink">
    <!-- Generator: sketchtool 42 (36781) - http://www.bohemiancoding.com/sketch -->
    <title>E4ED756D-1B52-4B82-97FD-02BC4316BF25</title>
    <desc>Created with sketchtool.</desc>
    <defs></defs>
    <g id="Symbols" stroke="none" stroke-width="1" fill="none" fill-rule="evenodd">
        <g id="icons/user-sad">
            <g id="sad-user" transform="translate(-0.002325, -0.004883)">
                <rect id="container" x="0.00232485778" y="0.00488252161" width="24" height="24"></rect>
                <path d="M16.368593,18.1392906 C16.1067373,18.1392906 15.8941122,17.9270885 15.8941122,17.6650897 C15.8941122,16.1752896 14.6722605,14.9634743 13.1703038,14.9634743 L11.5714422,14.9634743 C10.04388,14.9634743 8.84763379,16.1404885 8.84763379,17.6433036 C8.84763379,17.905161 8.63500867,18.1177874 8.37315299,18.1177874 C8.11129731,18.1177874 7.89867219,17.905161 7.89867219,17.6433036 C7.89867219,15.642238 9.54634001,14.0147896 11.5714422,14.0147896 L13.1703038,14.0147896 C15.195406,14.0147896 16.8430738,15.6524237 16.8430738,17.6650897 C16.8430738,17.9270885 16.6308731,18.1392906 16.368593,18.1392906" id="Fill-14" fill="#061122"></path>
                <path d="M11.9984042,21.9825107 C6.48882478,21.9825107 2.00643833,17.5006614 2.00643833,11.9913296 C2.00643833,9.24982022 3.09488653,6.6927852 5.0708996,4.7914546 C5.25933383,4.60980962 5.55981005,4.61560981 5.74173679,4.80432819 C5.92323914,4.99318804 5.91729752,5.29366618 5.72872182,5.47531116 C3.94001125,7.19598706 2.95525846,9.5102629 2.95525846,11.9913296 C2.95525846,16.9775125 7.01211175,21.033543 11.9984042,21.033543 C16.985121,21.033543 21.0418328,16.9775125 21.0418328,11.9913296 C21.0418328,7.00557106 16.985121,2.94925764 11.9984042,2.94925764 C10.6350853,2.94925764 9.32524101,3.24492587 8.10452103,3.8279157 C7.86897824,3.94080721 7.58519515,3.84050636 7.47202143,3.60425472 C7.35898918,3.36800307 7.45900645,3.08464256 7.69553952,2.97160959 C9.0449946,2.32736409 10.4924864,2.00057289 11.9984042,2.00057289 C17.5082665,2.00057289 21.9907944,6.48242221 21.9907944,11.9913296 C21.9907944,17.5006614 17.5082665,21.9825107 11.9984042,21.9825107" id="Fill-16" fill="#000000"></path>
                <path d="M16.0446899,11.9119943 C14.9081428,11.9119943 13.9478638,10.9289328 13.9478638,9.7657825 C13.9478638,9.50350073 14.1603475,9.29129865 14.4223446,9.29129865 C14.6842003,9.29129865 14.8968254,9.50350073 14.8968254,9.7657825 C14.8968254,10.4148379 15.4225174,10.9630266 16.0446899,10.9630266 C16.3065455,10.9630266 16.5191707,11.1756531 16.5191707,11.4375105 C16.5191707,11.6997922 16.3065455,11.9119943 16.0446899,11.9119943" id="Fill-17" fill="#00A9FF"></path>
                <path d="M7.84712156,11.8873081 C7.58526588,11.8873081 7.37264076,11.675106 7.37264076,11.4128243 C7.37264076,11.1505425 7.58526588,10.9383404 7.84712156,10.9383404 C8.49645575,10.9383404 9.04464094,10.4126452 9.04464094,9.79046867 C9.04464094,9.52861131 9.25726605,9.31598483 9.51912174,9.31598483 C9.78111889,9.31598483 9.99360254,9.52861131 9.99360254,9.79046867 C9.99360254,10.927023 9.01083029,11.8873081 7.84712156,11.8873081" id="Fill-18" fill="#00A9FF"></path>
            </g>
        </g>
    </g>
</svg>