<?xml version="1.0" encoding="UTF-8"?>
<svg width="24px" height="24px" viewBox="0 0 24 24" version="1.1" xmlns="http://www.w3.org/2000/svg" xmlns:xlink="http://www.w3.org/1999/xlink">
    <!-- Generator: sketchtool 41 (35326) - http://www.bohemiancoding.com/sketch -->
    <title>2F2AA080-FEBE-473C-B299-E5BB03A905A5</title>
    <desc>Created with sketchtool.</desc>
    <defs></defs>
    <g id="Symbols" stroke="none" stroke-width="1" fill="none" fill-rule="evenodd">
        <g id="icons/menu/hamburger-close-blue">
            <g id="Group-4">
                <rect id="Rectangle-3" x="0" y="0" width="24" height="24"></rect>
                <path d="M11.9269583,10.5127448 L5.56473797,4.1505244 C5.16663449,3.75242093 4.53930803,3.75825945 4.14878374,4.14878374 C3.75553678,4.54203069 3.75903877,5.17325233 4.1505244,5.56473797 L10.5127448,11.9269583 L4.1505244,18.2891787 C3.75242093,18.6872822 3.75825945,19.3146086 4.14878374,19.7051329 C4.54203069,20.0983799 5.17325233,20.0948779 5.56473797,19.7033923 L11.9269583,13.3411719 L18.2891787,19.7033923 C18.6872822,20.1014957 19.3146086,20.0956572 19.7051329,19.7051329 C20.0983799,19.311886 20.0948779,18.6806643 19.7033923,18.2891787 L13.3411719,11.9269583 L19.7033923,5.56473797 C20.1014957,5.16663449 20.0956572,4.53930803 19.7051329,4.14878374 C19.311886,3.75553678 18.6806643,3.75903877 18.2891787,4.1505244 L11.9269583,10.5127448 Z" id="Hamburger-menu" fill="#6E7278"></path>
            </g>
        </g>
    </g>
</svg>