<?xml version="1.0" encoding="UTF-8" standalone="no"?>
<svg width="16px" height="14px" viewBox="0 0 16 14" version="1.1" xmlns="http://www.w3.org/2000/svg" xmlns:xlink="http://www.w3.org/1999/xlink">
    <!-- Generator: sketchtool 39 (31667) - http://www.bohemiancoding.com/sketch -->
    <title>000099E8-69C6-40D2-A54D-91E9F90F9865</title>
    <desc>Created with sketchtool.</desc>
    <defs></defs>
    <g id="Symbols" stroke="none" stroke-width="1" fill="none" fill-rule="evenodd" opacity="0.8">
        <g id="Elements/footer/mobile/footer" transform="translate(-153.000000, -1384.000000)" fill="#FF0000">
            <g id="footer">
                <g id="social-icons" transform="translate(16.000000, 1208.000000)">
                    <g transform="translate(4.000000, 163.000000)" id="facebook-copy-2">
                        <g transform="translate(120.000000, 0.000000)">
                            <path d="M27.1151611,15.2133468 C27.7932148,14.776542 28.3134942,14.0839232 28.5576686,13.2588473 C27.922815,13.6643074 27.2212831,13.9575329 26.4727945,14.1162791 C25.8755063,13.4287159 25.0218348,13 24.0770676,13 C22.2645419,13 20.7957387,14.5824065 20.7957387,16.5338726 C20.7957387,16.8109201 20.8229735,17.0808898 20.8793215,17.338726 C18.1520808,17.1911021 15.7338146,15.7856421 14.1138111,13.6461072 C13.8311322,14.1698686 13.6696015,14.776542 13.6696015,15.4236603 C13.6696015,16.6491405 14.2490462,17.7310415 15.1299525,18.3660263 C14.5918295,18.3478261 14.0856371,18.1870576 13.6423666,17.9241658 L13.6423666,17.9676441 C13.6423666,19.6804853 14.7730821,21.1092012 16.2766332,21.4327604 C16.0005283,21.5156724 15.7112755,21.5571284 15.4107531,21.5571284 C15.1994483,21.5571284 14.9928391,21.5358948 14.793743,21.4944388 C15.2107178,22.8978766 16.4231379,23.9211325 17.8600106,23.9484328 C16.735869,24.8968655 15.3205963,25.4610718 13.7832365,25.4610718 C13.5184011,25.4610718 13.2563832,25.445905 13,25.4125379 C14.4528379,26.4145602 16.1780243,27 18.0318718,27 C24.0704936,27 27.3706052,21.6147624 27.3706052,16.9443883 C27.3706052,16.7906977 27.3687269,16.6380182 27.362153,16.487361 C28.0035804,15.9888777 28.5614251,15.3660263 29,14.6572295 C28.4111639,14.9383215 27.7781886,15.1284125 27.1151611,15.2133468 Z" id="twitter"></path>
                        </g>
                    </g>
                </g>
            </g>
        </g>
    </g>
</svg>