<?xml version="1.0" encoding="UTF-8"?>
<svg width="45px" height="45px" viewBox="0 0 45 45" version="1.1" xmlns="http://www.w3.org/2000/svg" xmlns:xlink="http://www.w3.org/1999/xlink">
    <!-- Generator: Sketch 42 (36781) - http://www.bohemiancoding.com/sketch -->
    <title>Icons/onboarding/unchained</title>
    <desc>Created with Sketch.</desc>
    <defs></defs>
    <g id="Symbols" stroke="none" stroke-width="1" fill="none" fill-rule="evenodd">
        <g id="Icons/onboarding/unchained">
            <g id="Group-2">
                <rect id="Rectangle-4" x="0" y="0" width="45" height="45"></rect>
                <g id="safety" transform="translate(7.500000, 3.750000)">
                    <g id="shield" stroke-width="1.4" stroke-linecap="round">
                        <path d="M17.7655133,0.569225771 C17.7655133,0.569225771 14.819073,1.47844935 14.4764869,1.56438206 L1.32746829,4.8604188 C0.545956933,5.05639936 0,5.6769145 0,6.36941515 L0,15.155877 C0,19.7987628 1.6523746,24.2519666 4.7782083,28.0342655 C7.20171928,30.9670454 10.4400898,33.3883681 14.1430054,35.0366564 C14.4112727,35.1561524 14.7055834,35.2158104 15,35.2158104" id="Shape" stroke="#061122"></path>
                        <path d="M29.7733014,0.533180189 C29.7733014,0.533180189 26.3986315,1.47844935 26.0560453,1.56438206 L12.9070267,4.8604188 C12.1255154,5.05639936 11.5795584,5.6769145 11.5795584,6.36941515 L11.5795584,15.155877 C11.5795584,19.7987628 13.231933,24.2519666 16.3577667,28.0342655 C18.7812777,30.9670454 22.0196482,33.3883681 25.7225638,35.0366564 C25.9908312,35.1561524 26.2851419,35.2158104 26.5795584,35.2158104" id="Shape-Copy" stroke="#11D392" transform="translate(20.676430, 17.874495) scale(-1, 1) translate(-20.676430, -17.874495) "></path>
                    </g>
                    <g id="lock" transform="translate(7.500000, 9.750000)">
                        <path d="M0,6.47327227 L0,6.47327227 L0,3.70924558 L0,3.70924558 C0,1.66068581 1.66334467,0 3.70588235,0 L3.70588235,0 C5.75258466,0 7.41176471,1.65862248 7.41176471,3.70924558 L7.41176471,6.47327227 L7.41176471,6.47327227" id="Rectangle-5" stroke="#061122" stroke-width="1.4" stroke-linecap="round"></path>
                        <ellipse id="Oval-4" fill="#11D392" cx="9.75" cy="9.75795756" rx="5.25" ry="5.24204244"></ellipse>
                        <path d="M9.09392274,9.87594777 C8.95465378,10.0313748 8.86985294,10.2365207 8.86985294,10.4613934 C8.86985294,10.9457608 9.2639082,11.3402064 9.75,11.3402064 C10.2351027,11.3402064 10.6301471,10.9467484 10.6301471,10.4613934 C10.6301471,10.2368009 10.5454248,10.0315418 10.4060891,9.8759745 C10.4087461,9.85200421 10.4101103,9.82764631 10.4101103,9.80297139 L10.4101103,9.14248617 C10.4101103,8.78009032 10.1145688,8.48406416 9.75,8.48406416 C9.38617298,8.48406416 9.08988971,8.77884973 9.08988971,9.14248617 L9.08988971,9.80297139 C9.08988971,9.8276282 9.09125783,9.85197777 9.09392274,9.87594777 L9.09392274,9.87594777 Z" id="Combined-Shape" fill="#FFFFFF"></path>
                    </g>
                </g>
            </g>
        </g>
    </g>
</svg>