<?xml version="1.0" encoding="UTF-8" standalone="no"?>
<svg width="43px" height="49px" viewBox="0 0 43 49" version="1.1" xmlns="http://www.w3.org/2000/svg" xmlns:xlink="http://www.w3.org/1999/xlink">
    <!-- Generator: Sketch 39.1 (31720) - http://www.bohemiancoding.com/sketch -->
    <title>icon</title>
    <desc>Created with Sketch.</desc>
    <defs></defs>
    <g id="Desktop" stroke="none" stroke-width="1" fill="none" fill-rule="evenodd">
        <g id="Desktop-1" transform="translate(-658.000000, -1050.000000)">
            <g id="Virtual-card" transform="translate(0.000000, 530.000000)">
                <g id="Securit-Copy" transform="translate(658.000000, 518.000000)">
                    <g id="icon" transform="translate(0.000000, 2.000000)">
                        <path d="M42.9897559,10.4439592 C42.9897559,8.52838428 41.8321775,7.23435226 39.8858066,6.98981077 C39.5170205,6.93886463 39.1379904,6.89810771 38.7692043,6.8573508 C37.6730902,6.72489083 36.6384404,6.61280932 35.6447668,6.39883552 C31.762269,5.55312955 28.0027,3.81077147 23.8436127,0.917030568 C23.1572608,0.438136827 22.3992006,0 21.5079676,0 C20.6269787,0 19.8689184,0.438136827 19.1825666,0.906841339 C13.6200434,4.70742358 8.61069935,6.643377 3.42720631,6.96943231 C1.18375774,7.11208151 0.00569114299,8.37554585 0.00569114299,10.6273654 L0.00569114299,14.6622999 L0.00569114299,14.6826783 C-0.00455291439,18.4221252 -0.00455291439,22.2838428 0.0364233152,26.0946143 C0.0466673725,27.510917 0.231060406,28.9781659 0.569114299,30.4657933 C1.36815078,33.9505095 3.19159299,37.0887918 6.14188152,40.0538574 C9.81949812,43.7525473 14.4293239,46.6055313 20.2274604,48.775837 C20.6167346,48.9184862 21.036741,49 21.4772354,49 C22.0099264,49 22.5426174,48.8879185 23.013844,48.6841339 C23.3314098,48.5414847 23.6592197,48.4090247 23.9767854,48.2765648 L24.0075176,48.2663755 C25.4109535,47.6652111 26.8553656,47.0436681 28.2690455,46.3100437 C32.9813119,43.8340611 36.5462438,40.9097525 39.1687225,37.363901 C41.5248557,34.1848617 42.7438986,30.985444 42.8873154,27.5822416 C42.9180475,26.930131 42.9385357,26.2372635 42.9487797,25.4526929 L43,19.1557496 L43,19.0436681 L43,16.5982533 C43,14.5400291 43,12.4919942 42.9897559,10.4439592 L42.9897559,10.4439592 Z M40.5311822,19.0334789 L40.5311822,19.1048035 L40.4799619,25.4221252 C40.4697178,26.1761281 40.4492297,26.8384279 40.4287416,27.4701601 C40.3058129,30.3740902 39.2404309,33.1353712 37.1813754,35.9068413 C34.784266,39.147016 31.4856795,41.8369723 27.111467,44.139738 C25.7899836,44.8326055 24.3865477,45.43377 23.0240881,46.014556 L22.9933559,46.0247453 C22.6655461,46.1673945 22.3479803,46.2998544 22.0201705,46.4425036 C21.8562656,46.5138282 21.6616285,46.5545852 21.4669914,46.5545852 C21.3235746,46.5545852 21.1904018,46.5342067 21.0777172,46.4934498 C15.6176346,44.4454148 11.2946424,41.775837 7.87312722,38.342067 C5.27113664,35.7030568 3.66281963,32.9519651 2.96622373,29.9257642 C2.65890201,28.6113537 2.50524115,27.3173217 2.49499709,26.0742358 C2.45402086,22.2838428 2.46426492,18.4221252 2.46426492,14.6928675 L2.46426492,14.6724891 L2.46426492,10.6375546 C2.46426492,10.1688501 2.53597332,9.8224163 2.67939012,9.6797671 C2.81256287,9.5371179 3.13012865,9.44541485 3.59111123,9.41484716 C9.23558685,9.04803493 14.6342051,6.98981077 20.5757584,2.91411936 C21.036741,2.59825328 21.3440627,2.44541485 21.5079676,2.44541485 C21.6718725,2.44541485 21.9791942,2.6084425 22.4401768,2.92430859 C26.8758537,6.0014556 30.9120123,7.86608443 35.1223199,8.78311499 C36.2286781,9.02765648 37.3247922,9.14992722 38.4926147,9.28238719 C38.8614008,9.3231441 39.2199428,9.36390102 39.5887289,9.41484716 C40.3058129,9.50655022 40.5414262,9.76128093 40.5414262,10.4439592 L40.5414262,16.588064 L40.5311822,19.0334789 L40.5311822,19.0334789 Z" id="shield" fill="#061122"></path>
                        <path d="M23.2084811,23.2518195 L19.7767219,23.2518195 C18.3835301,23.2518195 17.2464397,22.1208151 17.2464397,20.7350801 C17.2464397,19.349345 18.3835301,18.2183406 19.7767219,18.2183406 L25.8207158,18.2183406 C26.4968235,18.2183406 27.0500026,17.6681223 27.0500026,16.9956332 C27.0500026,16.3231441 26.4968235,15.7729258 25.8207158,15.7729258 L22.7270104,15.7729258 L22.7270104,13.4294032 C22.7270104,12.7569141 22.1738313,12.2066958 21.4977235,12.2066958 C20.8216158,12.2066958 20.2684367,12.7569141 20.2684367,13.4294032 L20.2684367,15.7729258 L19.786966,15.7729258 C17.0415586,15.7729258 14.79811,17.9941776 14.79811,20.7350801 C14.79811,23.4657933 17.0313145,25.6972344 19.786966,25.6972344 L23.2187252,25.6972344 C24.611917,25.6972344 25.7490074,26.8282387 25.7490074,28.2139738 C25.7490074,29.5997089 24.611917,30.7307132 23.2187252,30.7307132 L17.0620467,30.7307132 C16.3859389,30.7307132 15.8327598,31.2809316 15.8327598,31.9534207 C15.8327598,32.6259098 16.3859389,33.1761281 17.0620467,33.1761281 L20.2684367,33.1761281 L20.2684367,35.5604076 C20.2684367,36.2328967 20.8216158,36.783115 21.4977235,36.783115 C22.1738313,36.783115 22.7270104,36.2328967 22.7270104,35.5604076 L22.7270104,33.1761281 L23.2494574,33.1761281 L23.2801895,33.1761281 C25.9948647,33.1455604 28.1973371,30.9243086 28.1973371,28.2139738 C28.1973371,25.4730713 25.9641326,23.2518195 23.2084811,23.2518195 L23.2084811,23.2518195 Z" id="Shape" fill="#00A9FF"></path>
                    </g>
                </g>
            </g>
        </g>
    </g>
</svg>