<?xml version="1.0" encoding="UTF-8" standalone="no"?>
<svg width="48px" height="32px" viewBox="0 0 48 32" version="1.1" xmlns="http://www.w3.org/2000/svg" xmlns:xlink="http://www.w3.org/1999/xlink">
    <!-- Generator: sketchtool 39 (31667) - http://www.bohemiancoding.com/sketch -->
    <title>4D0BDB1D-6E9A-47F3-9F95-F87A7B2EE64A</title>
    <desc>Created with sketchtool.</desc>
    <defs></defs>
    <g id="Mobile-payment" stroke="none" stroke-width="1" fill="none" fill-rule="evenodd">
        <g id="PaymentDesktop-1" transform="translate(-289.000000, -487.000000)" fill="#00A9FF">
            <g id="search" transform="translate(267.000000, -64.000000)">
                <g id="payments" transform="translate(0.000000, 476.000000)">
                    <g id="transfer" transform="translate(0.000000, 49.000000)">
                        <g id="utilities" transform="translate(22.000000, 26.000000)">
                            <g id="Group">
                                <path d="M46.9650777,20.0064852 L39.5499354,14.460788 L39.5499354,12.2336149 C39.5499354,11.9282924 39.4054664,11.6407583 39.1596869,11.4568977 L24.5645323,0.541303598 C24.2147799,0.279757374 23.7330297,0.279757374 23.3832773,0.541303598 L8.78812278,11.4568977 C8.54234328,11.6407583 8.39787426,11.9282924 8.39787426,12.2336149 L8.39787426,14.460788 L0.982731975,20.0064852 C0.736952476,20.1903458 0.592483454,20.4778799 0.592483454,20.7832024 L0.592483454,30.6116148 C0.592483454,31.1488824 1.03163565,31.5844222 1.57335945,31.5844222 L9.37875025,31.5844222 L17.1841411,31.5844222 L30.7636686,31.5844222 L38.5690594,31.5844222 L46.3744502,31.5844222 C46.916174,31.5844222 47.3553262,31.1488824 47.3553262,30.6116148 L47.3553262,20.7832024 C47.3553262,20.4778799 47.2108572,20.1903458 46.9650777,20.0064852 L46.9650777,20.0064852 Z M20.8230665,30.2140691 L15.8731682,30.2140691 L9.78154747,30.2140691 L9.78154747,12.5752945 L23.9739048,1.96085297 L38.1662622,12.5752945 L38.1662622,30.2140691 L32.0744954,30.2140691 L27.1245971,30.2140691 L20.8230665,30.2140691 Z M1.59356861,20.8078217 L8.6152168,15.9497691 L8.6152168,30.1125497 L1.59356861,30.1125497 L1.59356861,20.8078217 L1.59356861,20.8078217 Z M46.354241,30.1125497 L39.3325928,30.1125497 L39.3325928,15.9497691 L46.354241,20.8078217 L46.354241,30.1125497 L46.354241,30.1125497 Z" id="Shape"></path>
                            </g>
                        </g>
                    </g>
                </g>
            </g>
        </g>
    </g>
</svg>