<?xml version="1.0" encoding="UTF-8" standalone="no"?>
<svg width="53px" height="38px" viewBox="0 0 53 38" version="1.1" xmlns="http://www.w3.org/2000/svg" xmlns:xlink="http://www.w3.org/1999/xlink">
    <!-- Generator: Sketch 40.1 (33804) - http://www.bohemiancoding.com/sketch -->
    <title>Group 6@1x</title>
    <desc>Created with Sketch.</desc>
    <defs></defs>
    <g id="UI-Kit" stroke="none" stroke-width="1" fill="none" fill-rule="evenodd">
        <g id="Elements" transform="translate(-600.000000, -868.000000)">
            <g id="transfer-copy-14" transform="translate(585.000000, 844.000000)">
                <g id="Group-6" transform="translate(16.481013, 24.727273)">
                    <g id="Group-8">
                        <g id="Group-9">
                            <path d="M44.061552,21.6744451 L44.061552,21.6180017 C44.0543407,21.6365979 44.0469292,21.6554158 44.0393125,21.6744451 L44.061552,21.6744451 Z M5.508,25.2312689 C1.84160769,25.0677968 0.478983379,22.8550653 0,21.6204692 L0,21.9807198 C0,25.0576554 2.271744,27.5744752 5.047776,27.5744752 L5.508,27.5744585 L5.508,25.2312689 Z" id="Combined-Shape" fill="#FFFFFF"></path>
                            <path d="M5.049,30.5477772 C2.272968,30.5483941 0.001224,28.2585815 0.001224,25.4604701 L0,5.1167935 C0,2.31868206 2.271744,0.0288695283 5.047776,0.0288695283 L39.013776,0.0276357931 C41.79042,0.0270189255 44.061552,2.31683146 44.062164,5.1149429" id="Stroke-204-Copy" stroke="#FFFFFF" stroke-linecap="round" stroke-linejoin="round"></path>
                            <path d="M5.508,25.1070048 L4.284,25.1070048 C3.6108,25.1070048 3.06,25.6621857 3.06,26.34074 C3.06,27.0192944 3.6108,27.5744752 4.284,27.5744752 L5.508,27.5744752 L5.508,25.1070048 Z" id="Combined-Shape" fill="#FFFFFF"></path>
                            <polygon id="Fill-187-Copy" fill-opacity="0" fill="#00A9FF" points="0 14.6906612 6 14.6906612 6 10 0 10"></polygon>
                            <polygon id="Stroke-188-Copy" stroke="#FFFFFF" points="0 14.6906612 6 14.6906612 6 10 0 10"></polygon>
                            <path d="M6.26977508,32.1025569 L6.2696952,29.4470839 C6.2696952,26.6489725 8.5408272,24.3591599 11.3168592,24.3591599 L45.5319432,24.3579262 C48.3085872,24.3573093 50.5797192,26.6471219 50.5803312,29.4452333 C50.5803312,29.4452333 50.5803796,31.0536619 50.5804038,31.8578761" id="Stroke-201" stroke="#FFFFFF" stroke-linecap="round" stroke-linejoin="round" transform="translate(28.425049, 28.230241) scale(1, -1) translate(-28.425049, -28.230241) "></path>
                            <path d="M11.3180832,36.3587316 C8.5420512,36.3593484 6.2703072,34.0695359 6.2703072,31.2714245 L6.2696952,10.9277479 C6.2696952,8.12963642 8.5408272,5.83982389 11.3168592,5.83982389 L45.5319432,5.83859015 C48.3085872,5.83797329 50.5797192,8.12778582 50.5803312,10.9258973 L50.5809432,31.2695739 C50.5809432,34.0676853 48.3091992,36.3574978 45.5331672,36.3574978 L11.3180832,36.3587316 Z" id="Stroke-201" stroke="#FFFFFF" stroke-linecap="round" stroke-linejoin="round"></path>
                            <g id="Group-8-Copy" transform="translate(9.792000, 15.772503)">
                                <path d="M7.83593313,8.80819452 C7.20109757,9.15904005 6.47223692,9.35856006 5.697108,9.35856006 C3.236868,9.35856006 1.24236,7.34757168 1.24236,4.86776392 C1.24236,2.38795617 3.236868,0.376967791 5.697108,0.376967791 C6.55624496,0.376967791 7.35854112,0.622079116 8.03896843,1.04667777" id="Stroke-210" stroke="#FFFFFF" stroke-linecap="round" stroke-linejoin="round"></path>
                                <path d="M15.966468,4.86776392 C15.966468,7.34757168 13.97196,9.35856006 11.511108,9.35856006 C9.050868,9.35856006 7.05636,7.34757168 7.05636,4.86776392 C7.05636,2.38795617 9.050868,0.376967791 11.511108,0.376967791 C13.97196,0.376967791 15.966468,2.38795617 15.966468,4.86776392 L15.966468,4.86776392 Z" id="Stroke-208" stroke="#FFFFFF" stroke-linecap="round" stroke-linejoin="round"></path>
                                <rect id="Rectangle-2" fill="#FFFFFF" x="0" y="15.42169" width="14.688" height="1.8506028" rx="0.925301401"></rect>
                                <ellipse id="Oval-1" fill="#FFFFFF" cx="17.1400392" cy="16.3469914" rx="0.918" ry="0.925301401"></ellipse>
                            </g>
                        </g>
                    </g>
                </g>
            </g>
        </g>
    </g>
</svg>