<?xml version="1.0" encoding="UTF-8" standalone="no"?>
<svg width="39px" height="39px" viewBox="0 0 39 39" version="1.1" xmlns="http://www.w3.org/2000/svg" xmlns:xlink="http://www.w3.org/1999/xlink">
    <!-- Generator: sketchtool 40.1 (33804) - http://www.bohemiancoding.com/sketch -->
    <title>C41956A9-D8F4-4F38-82E9-9AEA509FA328</title>
    <desc>Created with sketchtool.</desc>
    <defs></defs>
    <g id="UI-KIt" stroke="none" stroke-width="1" fill="none" fill-rule="evenodd">
        <g id="Elements" transform="translate(-999.000000, -757.000000)" fill="#FFFFFF">
            <g id="transfer-copy-15" transform="translate(975.000000, 734.000000)">
                <g id="mobile-payments" transform="translate(24.000000, 23.000000)">
                    <g id="Capa_1">
                        <g id="Group">
                            <path d="M27.68675,0 L11.31325,0 C9.73505,0 8.45,1.28505 8.45,2.86325 L8.45,36.1361 C8.45,37.71495 9.73505,39 11.31325,39 L27.6861,39 C29.26495,39 30.55,37.71495 30.55,36.13675 L30.55,2.86325 C30.55,1.28505 29.26495,0 27.68675,0 L27.68675,0 Z M9.75,5.2 L29.25,5.2 L29.25,29.9 L9.75,29.9 L9.75,5.2 L9.75,5.2 Z M11.31325,1.3 L27.6861,1.3 C28.54865,1.3 29.25,2.00135 29.25,2.86325 L29.25,3.9 L9.75,3.9 L9.75,2.86325 C9.75,2.00135 10.45135,1.3 11.31325,1.3 L11.31325,1.3 Z M27.68675,37.7 L11.31325,37.7 C10.45135,37.7 9.75,36.99865 9.75,36.13675 L9.75,31.2 L29.25,31.2 L29.25,36.13675 C29.25,36.99865 28.54865,37.7 27.68675,37.7 L27.68675,37.7 Z" id="Shape"></path>
                            <path d="M19.5,31.85 C18.0661,31.85 16.9,33.0161 16.9,34.45 C16.9,35.8839 18.0661,37.05 19.5,37.05 C20.9339,37.05 22.1,35.8839 22.1,34.45 C22.1,33.0161 20.9339,31.85 19.5,31.85 L19.5,31.85 Z M19.5,35.75 C18.78305,35.75 18.2,35.16695 18.2,34.45 C18.2,33.73305 18.78305,33.15 19.5,33.15 C20.21695,33.15 20.8,33.73305 20.8,34.45 C20.8,35.16695 20.21695,35.75 19.5,35.75 L19.5,35.75 Z" id="Shape"></path>
                            <path d="M16.9,3.25 L19.5,3.25 C19.85945,3.25 20.15,2.95945 20.15,2.6 C20.15,2.24055 19.85945,1.95 19.5,1.95 L16.9,1.95 C16.54055,1.95 16.25,2.24055 16.25,2.6 C16.25,2.95945 16.54055,3.25 16.9,3.25 L16.9,3.25 Z" id="Shape"></path>
                            <path d="M21.45,3.25 L22.1,3.25 C22.45945,3.25 22.75,2.95945 22.75,2.6 C22.75,2.24055 22.45945,1.95 22.1,1.95 L21.45,1.95 C21.09055,1.95 20.8,2.24055 20.8,2.6 C20.8,2.95945 21.09055,3.25 21.45,3.25 L21.45,3.25 Z" id="Shape"></path>
                            <path d="M36.7978,2.96985 C36.54365,2.7157 36.13285,2.7157 35.8787,2.96985 C35.62455,3.224 35.62455,3.6348 35.8787,3.88895 C38.3071,6.31735 38.3071,10.2687 35.8787,12.69775 C35.62455,12.9519 35.62455,13.3627 35.8787,13.61685 C36.00545,13.7436 36.17185,13.8073 36.33825,13.8073 C36.50465,13.8073 36.67105,13.7436 36.7978,13.61685 C39.7332,10.6821 39.7332,5.90525 36.7978,2.96985 L36.7978,2.96985 Z" id="Shape"></path>
                            <path d="M34.06065,4.44925 C33.8065,4.1951 33.3957,4.1951 33.14155,4.44925 C32.8874,4.7034 32.8874,5.1142 33.14155,5.36835 C33.9456,6.1724 34.38825,7.2436 34.38825,8.3837 C34.38825,9.5238 33.9456,10.59435 33.14155,11.3984 C32.8874,11.65255 32.8874,12.06335 33.14155,12.3175 C33.2683,12.44425 33.4347,12.50795 33.6011,12.50795 C33.7675,12.50795 33.9339,12.44425 34.06065,12.3175 C35.1104,11.2684 35.68825,9.8709 35.68825,8.3837 C35.68825,6.8965 35.11105,5.49835 34.06065,4.44925 L34.06065,4.44925 Z" id="Shape"></path>
                            <path d="M3.1213,3.88895 C3.37545,3.6348 3.37545,3.224 3.1213,2.96985 C2.86715,2.7157 2.45635,2.7157 2.2022,2.96985 C-0.7332,5.90525 -0.7332,10.68145 2.2022,13.61685 C2.32895,13.7436 2.49535,13.8073 2.66175,13.8073 C2.82815,13.8073 2.99455,13.7436 3.1213,13.61685 C3.37545,13.3627 3.37545,12.9519 3.1213,12.69775 C0.69225,10.26935 0.69225,6.318 3.1213,3.88895 L3.1213,3.88895 Z" id="Shape"></path>
                            <path d="M5.85845,4.26985 C5.6043,4.0157 5.1935,4.0157 4.93935,4.26985 C3.8896,5.31895 3.31175,6.71645 3.31175,8.20365 C3.31175,9.69085 3.8896,11.08835 4.93935,12.1381 C5.0661,12.26485 5.2325,12.32855 5.3989,12.32855 C5.5653,12.32855 5.7317,12.26485 5.85845,12.1381 C6.1126,11.88395 6.1126,11.47315 5.85845,11.219 C5.0544,10.41495 4.61175,9.34375 4.61175,8.20365 C4.61175,7.06355 5.05375,5.993 5.85845,5.18895 C6.11195,4.93545 6.11195,4.524 5.85845,4.26985 L5.85845,4.26985 Z" id="Shape"></path>
                        </g>
                    </g>
                </g>
            </g>
        </g>
    </g>
</svg>