<?xml version="1.0" encoding="UTF-8" standalone="no"?>
<svg width="42px" height="42px" viewBox="0 0 42 42" version="1.1" xmlns="http://www.w3.org/2000/svg" xmlns:xlink="http://www.w3.org/1999/xlink">
    <!-- Generator: sketchtool 39 (31667) - http://www.bohemiancoding.com/sketch -->
    <title>73DDE7EC-B3BE-4B5C-8FCE-BCD7C832877B</title>
    <desc>Created with sketchtool.</desc>
    <defs></defs>
    <g id="Mobile-payment" stroke="none" stroke-width="1" fill="none" fill-rule="evenodd">
        <g id="PaymentDesktop-1" transform="translate(-1068.000000, -483.000000)">
            <g id="search" transform="translate(267.000000, -64.000000)">
                <g id="payments" transform="translate(0.000000, 476.000000)">
                    <g id="transfer-copy-10" transform="translate(780.000000, 49.000000)">
                        <g id="Onai" transform="translate(21.000000, 22.000000)">
                            <g id="Group">
                                <path d="M34.2744863,4.26536306 C34.2744863,3.89601274 33.9764017,3.59657325 33.6085243,3.59657325 L8.36181818,3.59657325 C7.9939408,3.59657325 7.69585624,3.89601274 7.69585624,4.26536306 C7.69585624,4.63471338 7.9939408,4.93415287 8.36181818,4.93415287 L33.6085243,4.93415287 C33.9764017,4.93415287 34.2744863,4.63471338 34.2744863,4.26536306 L34.2744863,4.26536306 Z" id="Shape" fill="#061122"></path>
                                <path d="M25.3033573,27.7956178 L16.6669852,27.7956178 C16.2991078,27.7956178 16.0010233,28.0950573 16.0010233,28.4644076 C16.0010233,28.833758 16.2991078,29.1331975 16.6669852,29.1331975 L25.3033573,29.1331975 C25.6712347,29.1331975 25.9693192,28.833758 25.9693192,28.4644076 C25.9693192,28.0950573 25.6711459,27.7956178 25.3033573,27.7956178 L25.3033573,27.7956178 Z" id="Shape" fill="#061122"></path>
                                <path d="M40.1500465,7.16345223 L37.8262833,7.16345223 L37.8262833,4.71122293 C37.8262833,2.12978344 35.7349852,0.0296942675 33.1645497,0.0296942675 L8.80579281,0.0296942675 C6.23535729,0.0296942675 4.1440592,2.12978344 4.1440592,4.71122293 L4.1440592,7.16345223 L1.82029598,7.16345223 C0.81655814,7.16345223 0,7.98347771 0,8.99147771 L0,14.4203567 C0,15.4283567 0.81655814,16.2483822 1.82029598,16.2483822 L2.14617336,16.2483822 C2.51405074,16.2483822 2.81213531,15.9489427 2.81213531,15.5795924 C2.81213531,15.210242 2.51405074,14.9108025 2.14617336,14.9108025 L1.82029598,14.9108025 C1.55106977,14.9108025 1.33192389,14.6908153 1.33192389,14.4203567 L1.33192389,8.99147771 C1.33192389,8.72101911 1.55106977,8.50103185 1.82029598,8.50103185 L4.1440592,8.50103185 L4.1440592,35.7207771 C4.1440592,36.3416815 4.5079408,36.8775159 5.03200846,37.128535 L5.03200846,41.2717325 C5.03200846,41.6410828 5.33009302,41.9405223 5.6979704,41.9405223 L11.3937209,41.9405223 C11.7615983,41.9405223 12.0596829,41.6410828 12.0596829,41.2717325 L12.0596829,39.2876561 C12.0596829,38.9183057 11.7615983,38.6188662 11.3937209,38.6188662 C11.0258436,38.6188662 10.727759,38.9183057 10.727759,39.2876561 L10.727759,40.6029427 L6.36393235,40.6029427 L6.36393235,37.2812866 L35.6064101,37.2812866 L35.6064101,40.6029427 L31.2426723,40.6029427 L31.2426723,39.2876561 C31.2426723,38.9183057 30.9445877,38.6188662 30.5767104,38.6188662 C30.208833,38.6188662 29.9107484,38.9183057 29.9107484,39.2876561 L29.9107484,41.2717325 C29.9107484,41.6410828 30.208833,41.9405223 30.5767104,41.9405223 L36.2723721,41.9405223 C36.6402495,41.9405223 36.938334,41.6410828 36.938334,41.2717325 L36.938334,37.128535 C37.4624017,36.8774268 37.8262833,36.3416815 37.8262833,35.7207771 L37.8262833,8.50103185 L40.1500465,8.50103185 C40.4192727,8.50103185 40.6384186,8.72101911 40.6384186,8.99147771 L40.6384186,14.4203567 C40.6384186,14.6908153 40.4192727,14.9108025 40.1500465,14.9108025 L39.8241691,14.9108025 C39.4562918,14.9108025 39.1582072,15.210242 39.1582072,15.5795924 C39.1582072,15.9489427 39.4562918,16.2483822 39.8241691,16.2483822 L40.1500465,16.2483822 C41.1537844,16.2483822 41.9703425,15.4283567 41.9703425,14.4203567 L41.9703425,8.99147771 C41.9703425,7.98347771 41.1537844,7.16345223 40.1500465,7.16345223 L40.1500465,7.16345223 Z M5.47598309,4.71122293 C5.47598309,2.86732484 6.96969133,1.36727389 8.80579281,1.36727389 L33.1645497,1.36727389 C35.0006512,1.36727389 36.4943594,2.86732484 36.4943594,4.71122293 L36.4943594,7.16345223 L5.47598309,7.16345223 L5.47598309,4.71122293 L5.47598309,4.71122293 Z M36.4943594,32.2542166 L30.1869894,32.2542166 C29.3302072,32.2542166 28.6330782,31.5541274 28.6330782,30.693707 L28.6330782,29.1331975 L34.4964736,29.1331975 C34.864351,29.1331975 35.1624355,28.833758 35.1624355,28.4644076 C35.1624355,28.0950573 34.864351,27.7956178 34.4964736,27.7956178 L27.9671163,27.7956178 C27.5992389,27.7956178 27.3011543,28.0950573 27.3011543,28.4644076 L27.3011543,30.693707 C27.3011543,32.2916688 28.5956956,33.5917962 30.1869894,33.5917962 L36.4943594,33.5917962 L36.4943594,35.7207771 C36.4943594,35.8416051 36.3926892,35.943707 36.2723721,35.943707 L5.6979704,35.943707 C5.57765328,35.943707 5.47598309,35.8416051 5.47598309,35.7207771 L5.47598309,33.5917962 L11.7833531,33.5917962 C13.3746469,33.5917962 14.6691882,32.2916688 14.6691882,30.693707 L14.6691882,28.4644076 C14.6691882,28.0950573 14.3711036,27.7956178 14.0032262,27.7956178 L7.47386892,27.7956178 C7.10599154,27.7956178 6.80790698,28.0950573 6.80790698,28.4644076 C6.80790698,28.833758 7.10599154,29.1331975 7.47386892,29.1331975 L13.3372643,29.1331975 L13.3372643,30.693707 C13.3372643,31.5541274 12.6401353,32.2542166 11.7833531,32.2542166 L5.47598309,32.2542166 L5.47598309,8.50103185 L20.3192093,8.50103185 L20.3192093,24.9978471 L7.47386892,24.9978471 C7.10599154,24.9978471 6.80790698,25.2972866 6.80790698,25.6666369 C6.80790698,26.0359873 7.10599154,26.3354268 7.47386892,26.3354268 L34.4964736,26.3354268 C34.864351,26.3354268 35.1624355,26.0359873 35.1624355,25.6666369 C35.1624355,25.2972866 34.864351,24.9978471 34.4964736,24.9978471 L21.6511332,24.9978471 L21.6511332,8.50103185 L36.4943594,8.50103185 L36.4943594,32.2542166 L36.4943594,32.2542166 Z" id="Shape" fill="#00A9FF"></path>
                            </g>
                        </g>
                    </g>
                </g>
            </g>
        </g>
    </g>
</svg>