<?xml version="1.0" encoding="UTF-8" standalone="no"?>
<svg width="42px" height="42px" viewBox="0 0 42 42" version="1.1" xmlns="http://www.w3.org/2000/svg" xmlns:xlink="http://www.w3.org/1999/xlink">
    <!-- Generator: sketchtool 40.1 (33804) - http://www.bohemiancoding.com/sketch -->
    <title>893C8C3D-BC90-45F3-BE4F-6987495E8E98</title>
    <desc>Created with sketchtool.</desc>
    <defs></defs>
    <g id="UI-KIt" stroke="none" stroke-width="1" fill="none" fill-rule="evenodd">
        <g id="Elements" transform="translate(-1386.000000, -756.000000)" fill="#FFFFFF">
            <g id="transfer-copy-17" transform="translate(1103.000000, 734.000000)">
                <g id="Onai" transform="translate(283.000000, 22.000000)">
                    <g id="Group">
                        <path d="M34.57863,4.66878981 C34.57863,4.29943949 34.2805455,4 33.9126681,4 L8.66596195,4 C8.29808457,4 8,4.29943949 8,4.66878981 C8,5.03814013 8.29808457,5.33757962 8.66596195,5.33757962 L33.9126681,5.33757962 C34.2805455,5.33757962 34.57863,5.03814013 34.57863,4.66878981 L34.57863,4.66878981 Z" id="Shape"></path>
                        <path d="M25.302334,28 L16.6659619,28 C16.2980846,28 16,28.2994395 16,28.6687898 C16,29.0381401 16.2980846,29.3375796 16.6659619,29.3375796 L25.302334,29.3375796 C25.6702114,29.3375796 25.968296,29.0381401 25.968296,28.6687898 C25.968296,28.2994395 25.6701226,28 25.302334,28 L25.302334,28 Z" id="Shape"></path>
                        <path d="M40.1500465,7.13375796 L37.8262833,7.13375796 L37.8262833,4.68152866 C37.8262833,2.10008917 35.7349852,0 33.1645497,0 L8.80579281,0 C6.23535729,0 4.1440592,2.10008917 4.1440592,4.68152866 L4.1440592,7.13375796 L1.82029598,7.13375796 C0.81655814,7.13375796 0,7.95378344 0,8.96178344 L0,14.3906624 C0,15.3986624 0.81655814,16.2186879 1.82029598,16.2186879 L2.14617336,16.2186879 C2.51405074,16.2186879 2.81213531,15.9192484 2.81213531,15.5498981 C2.81213531,15.1805478 2.51405074,14.8811083 2.14617336,14.8811083 L1.82029598,14.8811083 C1.55106977,14.8811083 1.33192389,14.661121 1.33192389,14.3906624 L1.33192389,8.96178344 C1.33192389,8.69132484 1.55106977,8.47133758 1.82029598,8.47133758 L4.1440592,8.47133758 L4.1440592,35.6910828 C4.1440592,36.3119873 4.5079408,36.8478217 5.03200846,37.0988408 L5.03200846,41.2420382 C5.03200846,41.6113885 5.33009302,41.910828 5.6979704,41.910828 L11.3937209,41.910828 C11.7615983,41.910828 12.0596829,41.6113885 12.0596829,41.2420382 L12.0596829,39.2579618 C12.0596829,38.8886115 11.7615983,38.589172 11.3937209,38.589172 C11.0258436,38.589172 10.727759,38.8886115 10.727759,39.2579618 L10.727759,40.5732484 L6.36393235,40.5732484 L6.36393235,37.2515924 L35.6064101,37.2515924 L35.6064101,40.5732484 L31.2426723,40.5732484 L31.2426723,39.2579618 C31.2426723,38.8886115 30.9445877,38.589172 30.5767104,38.589172 C30.208833,38.589172 29.9107484,38.8886115 29.9107484,39.2579618 L29.9107484,41.2420382 C29.9107484,41.6113885 30.208833,41.910828 30.5767104,41.910828 L36.2723721,41.910828 C36.6402495,41.910828 36.938334,41.6113885 36.938334,41.2420382 L36.938334,37.0988408 C37.4624017,36.8477325 37.8262833,36.3119873 37.8262833,35.6910828 L37.8262833,8.47133758 L40.1500465,8.47133758 C40.4192727,8.47133758 40.6384186,8.69132484 40.6384186,8.96178344 L40.6384186,14.3906624 C40.6384186,14.661121 40.4192727,14.8811083 40.1500465,14.8811083 L39.8241691,14.8811083 C39.4562918,14.8811083 39.1582072,15.1805478 39.1582072,15.5498981 C39.1582072,15.9192484 39.4562918,16.2186879 39.8241691,16.2186879 L40.1500465,16.2186879 C41.1537844,16.2186879 41.9703425,15.3986624 41.9703425,14.3906624 L41.9703425,8.96178344 C41.9703425,7.95378344 41.1537844,7.13375796 40.1500465,7.13375796 L40.1500465,7.13375796 Z M5.47598309,4.68152866 C5.47598309,2.83763057 6.96969133,1.33757962 8.80579281,1.33757962 L33.1645497,1.33757962 C35.0006512,1.33757962 36.4943594,2.83763057 36.4943594,4.68152866 L36.4943594,7.13375796 L5.47598309,7.13375796 L5.47598309,4.68152866 L5.47598309,4.68152866 Z M36.4943594,32.2245223 L30.1869894,32.2245223 C29.3302072,32.2245223 28.6330782,31.5244331 28.6330782,30.6640127 L28.6330782,29.1035032 L34.4964736,29.1035032 C34.864351,29.1035032 35.1624355,28.8040637 35.1624355,28.4347134 C35.1624355,28.0653631 34.864351,27.7659236 34.4964736,27.7659236 L27.9671163,27.7659236 C27.5992389,27.7659236 27.3011543,28.0653631 27.3011543,28.4347134 L27.3011543,30.6640127 C27.3011543,32.2619745 28.5956956,33.5621019 30.1869894,33.5621019 L36.4943594,33.5621019 L36.4943594,35.6910828 C36.4943594,35.8119108 36.3926892,35.9140127 36.2723721,35.9140127 L5.6979704,35.9140127 C5.57765328,35.9140127 5.47598309,35.8119108 5.47598309,35.6910828 L5.47598309,33.5621019 L11.7833531,33.5621019 C13.3746469,33.5621019 14.6691882,32.2619745 14.6691882,30.6640127 L14.6691882,28.4347134 C14.6691882,28.0653631 14.3711036,27.7659236 14.0032262,27.7659236 L7.47386892,27.7659236 C7.10599154,27.7659236 6.80790698,28.0653631 6.80790698,28.4347134 C6.80790698,28.8040637 7.10599154,29.1035032 7.47386892,29.1035032 L13.3372643,29.1035032 L13.3372643,30.6640127 C13.3372643,31.5244331 12.6401353,32.2245223 11.7833531,32.2245223 L5.47598309,32.2245223 L5.47598309,8.47133758 L20.3192093,8.47133758 L20.3192093,24.9681529 L7.47386892,24.9681529 C7.10599154,24.9681529 6.80790698,25.2675924 6.80790698,25.6369427 C6.80790698,26.006293 7.10599154,26.3057325 7.47386892,26.3057325 L34.4964736,26.3057325 C34.864351,26.3057325 35.1624355,26.006293 35.1624355,25.6369427 C35.1624355,25.2675924 34.864351,24.9681529 34.4964736,24.9681529 L21.6511332,24.9681529 L21.6511332,8.47133758 L36.4943594,8.47133758 L36.4943594,32.2245223 L36.4943594,32.2245223 Z" id="Shape"></path>
                    </g>
                </g>
            </g>
        </g>
    </g>
</svg>