<?xml version="1.0" encoding="UTF-8" standalone="no"?>
<svg width="47px" height="37px" viewBox="0 0 47 37" version="1.1" xmlns="http://www.w3.org/2000/svg" xmlns:xlink="http://www.w3.org/1999/xlink">
    <!-- Generator: sketchtool 40.1 (33804) - http://www.bohemiancoding.com/sketch -->
    <title>6916919E-2448-4C9B-B08E-F13A02DF4108</title>
    <desc>Created with sketchtool.</desc>
    <defs></defs>
    <g id="UI-KIt" stroke="none" stroke-width="1" fill="none" fill-rule="evenodd">
        <g id="Elements" transform="translate(-995.000000, -868.000000)">
            <g id="transfer-copy-16" transform="translate(975.000000, 844.000000)">
                <g id="pdd" transform="translate(20.000000, 24.000000)">
                    <g id="Layer_1">
                        <g id="Group">
                            <path d="M44.2174621,14.3446688 L42.2727653,12.9904688 L40.3124401,4.3914375 C39.7307433,1.839825 37.507379,0.0578125 34.9056015,0.0578125 L12.0277482,0.0578125 C9.42597066,0.0578125 7.20260636,1.839825 6.62090954,4.3914375 L4.66058435,12.9904688 L2.71588753,14.3446688 C1.01526895,15.5289 0,17.4783375 0,19.5592406 L0,28.4346156 C0,29.8762281 1.11754279,31.0594188 2.52662347,31.1551563 L2.52662347,35.0026938 C2.52662347,36.0989344 3.41295844,36.99075 4.5024621,36.99075 L8.77118826,36.99075 C9.86069193,36.99075 10.7470269,36.0989344 10.7470269,35.0026938 L10.7470269,31.1620938 L16.9262054,31.1620938 C17.0760538,32.8853688 18.5171956,34.2419969 20.2681467,34.2419969 L28.379956,34.2419969 C30.1309071,34.2419969 31.5721638,32.8854844 31.7220122,31.1620938 L36.1863227,31.1620938 L36.1863227,35.0026938 C36.1863227,36.0989344 37.0726577,36.99075 38.1621614,36.99075 L42.4308875,36.99075 C43.5203912,36.99075 44.4067262,36.0989344 44.4067262,35.0026938 L44.4067262,31.1551563 C45.8158068,31.0595344 46.9333496,29.8762281 46.9333496,28.4346156 L46.9333496,19.5592406 C46.9334645,17.4783375 45.9181956,15.5289 44.2174621,14.3446688 L44.2174621,14.3446688 Z M1.72371638,19.5592406 C1.72371638,18.0473281 2.46135208,16.6310375 3.69691198,15.7706719 L5.91636919,14.2251125 C6.09322249,14.1019719 6.21790465,13.9167406 6.26593888,13.7059563 L8.30095844,4.77912813 C8.70200978,3.02047188 10.2345086,1.7921875 12.0277482,1.7921875 L34.9056015,1.7921875 C36.6988411,1.7921875 38.2313399,3.02047188 38.6323912,4.77924375 L40.6674108,13.7060719 C40.715445,13.9169719 40.8401271,14.1022031 41.0169804,14.2252281 L43.2364377,15.7707875 C44.4719976,16.6311531 45.2096333,18.0474438 45.2096333,19.5593563 L45.2096333,25.5705844 L1.72371638,25.5705844 L1.72371638,19.5592406 L1.72371638,19.5592406 Z M9.02342543,35.0028094 L9.02342543,35.0028094 C9.02331051,35.1427156 8.91023472,35.2564906 8.77118826,35.2564906 L4.5024621,35.2564906 C4.36341565,35.2564906 4.25033985,35.1427156 4.25033985,35.0028094 L4.25033985,31.1620938 L9.02342543,31.1620938 L9.02342543,35.0028094 L9.02342543,35.0028094 Z M28.3800709,32.5077375 L20.2682616,32.5077375 C19.4691467,32.5077375 18.8036773,31.926375 18.664401,31.1622094 L29.9841614,31.1622094 C29.8447702,31.926375 29.1791858,32.5077375 28.3800709,32.5077375 L28.3800709,32.5077375 Z M42.6832396,35.0028094 C42.6832396,35.1426 42.5700489,35.2564906 42.4310024,35.2564906 L38.1622763,35.2564906 C38.0232298,35.2564906 37.910154,35.1427156 37.910154,35.0028094 L37.910154,31.1622094 L42.6832396,31.1622094 L42.6832396,35.0028094 L42.6832396,35.0028094 Z M45.2097482,28.4347313 C45.2097482,28.9823313 44.7669829,29.4278344 44.2227482,29.4278344 L2.71071638,29.4278344 C2.16648166,29.4278344 1.72371638,28.9823313 1.72371638,28.4347313 L1.72371638,27.3049594 L45.2097482,27.3049594 L45.2097482,28.4347313 L45.2097482,28.4347313 Z" id="Shape" fill="#FFFFFF"></path>
                            <circle id="Oval-2" stroke="#FFFFFF" stroke-width="1.5" cx="39" cy="20" r="3"></circle>
                            <circle id="Oval-2-Copy" stroke="#FFFFFF" stroke-width="1.5" cx="8" cy="20" r="3"></circle>
                            <path d="M32.3377739,22.6252404 C32.5427739,22.7607404 32.1377739,22.4902404 32.3377739,22.6252404 L32.3377739,22.6252404 L32.3377739,22.6252404 Z" id="Shape" fill="#00A9FF"></path>
                            <path d="M14.3433658,20.5870724 C14.2483658,20.3615724 14.4383658,20.8160724 14.3433658,20.5870724 L14.3433658,20.5870724 L14.3433658,20.5870724 Z" id="Shape" fill="#00A9FF"></path>
                        </g>
                    </g>
                </g>
            </g>
        </g>
    </g>
</svg>