<?xml version="1.0" encoding="UTF-8" standalone="no"?>
<svg width="45px" height="39px" viewBox="0 0 45 39" version="1.1" xmlns="http://www.w3.org/2000/svg" xmlns:xlink="http://www.w3.org/1999/xlink">
    <!-- Generator: sketchtool 40.1 (33804) - http://www.bohemiancoding.com/sketch -->
    <title>4C86F7CE-9B2F-4659-822B-C13D5620F097</title>
    <desc>Created with sketchtool.</desc>
    <defs></defs>
    <g id="UI-KIt" stroke="none" stroke-width="1" fill="none" fill-rule="evenodd">
        <g id="Elements" transform="translate(-1385.000000, -870.000000)" fill="#FFFFFF">
            <g id="transfer-copy-18" transform="translate(1365.000000, 844.000000)">
                <g id="tv" transform="translate(20.000000, 26.000000)">
                    <g id="Capa_1">
                        <g id="Group">
                            <path d="M13.64625,38.625 L31.353,38.625 L22.5,24.45975 L13.64625,38.625 L13.64625,38.625 Z M16.35375,37.125 L22.5,27.29025 L28.64625,37.125 L16.35375,37.125 L16.35375,37.125 Z" id="Shape"></path>
                            <path d="M0,28.383383 C0,29.4833227 0.887111664,30.375 1.99028552,30.375 L16.5,30.375 C16.91475,30.375 17.25,30.03975 17.25,29.625 C17.25,29.21025 16.91475,28.875 16.5,28.875 L2.50748397,28.875 C1.95106594,28.875 1.5,28.4288914 1.5,27.8820346 L1.5,2.86796544 C1.5,2.31956577 1.94326177,1.875 2.49678245,1.875 L42.5032175,1.875 C43.0537253,1.875 43.5,2.32110862 43.5,2.86796544 L43.5,27.8820346 C43.5,28.4304342 43.0510798,28.875 42.492516,28.875 L28.5,28.875 C28.08525,28.875 27.75,29.21025 27.75,29.625 C27.75,30.03975 28.08525,30.375 28.5,30.375 L43.0097145,30.375 C44.1089188,30.375 45,29.4771596 45,28.383383 L45,2.36661703 C45,1.26667732 44.1011079,0.375 43.0083425,0.375 L1.99165754,0.375 C0.891695454,0.375 0,1.27284041 0,2.36661703 L0,28.383383 Z" id="Shape"></path>
                        </g>
                    </g>
                </g>
            </g>
        </g>
    </g>
</svg>