<?xml version="1.0" encoding="UTF-8"?>
<svg width="45px" height="45px" viewBox="0 0 45 45" version="1.1" xmlns="http://www.w3.org/2000/svg" xmlns:xlink="http://www.w3.org/1999/xlink">
    <!-- Generator: sketchtool 42 (36781) - http://www.bohemiancoding.com/sketch -->
    <title>3EE424ED-8F4F-45BA-A3E0-CE8CA4C2E9C6</title>
    <desc>Created with sketchtool.</desc>
    <defs></defs>
    <g id="Symbols" stroke="none" stroke-width="1" fill="none" fill-rule="evenodd">
        <g id="Icons/cards/limits-rounded">
            <rect id="BG-container" x="0" y="0" width="45" height="45"></rect>
            <g id="Page-1" transform="translate(6.000000, 2.000000)">
                <g id="bag" transform="translate(0.000000, 0.000000)">
                    <path d="M19.8541347,5.95889038 C20.3206026,4.79575874 21.2657672,2.767758 22.4830445,1.86843258 C22.7433128,1.67615399 22.756157,1.29259666 22.5098097,1.08262844 C21.7260822,0.414575712 20.7103128,0.0108675859 19.5997117,0.0108675859 C18.0506385,0.0108675859 16.6848452,0.795133497 15.8775059,1.98818369 C15.0700896,0.795133497 13.7042963,0.0108675859 12.1553,0.0108675859 C11.1408382,0.0108675859 10.2055182,0.347662763 9.45378584,0.915115336 C9.17513571,1.12546811 9.18759536,1.54217427 9.47709,1.73745241 C10.8181178,2.64208472 11.866113,4.79122097 12.3694984,5.98557865 C12.583466,6.49350177 13.0824674,6.82229816 13.6335378,6.82229816 L18.579097,6.82229816 C19.1408581,6.82229816 19.6450125,6.48027301 19.8541347,5.95889038" id="Fill-4" stroke="#00A9FF" stroke-width="1.4"></path>
                    <path d="M13.0888022,9.06660165 L19.6871137,9.09556749 C19.6871137,9.09556749 19.7955676,12.3498117 23.135029,12.2215872" id="Line" stroke="#061122" stroke-width="1.4" stroke-linecap="round" stroke-linejoin="round"></path>
                    <path d="M13.0888022,11.081402 L19.1332033,11.081402" id="Line-Copy" stroke="#061122" stroke-width="1.4" stroke-linecap="round"></path>
                    <path d="M29.2701935,35.9507095 C29.5563053,35.4413703 29.816169,34.9098272 30.0472471,34.3569526 C33.2117641,26.7853783 29.7957891,18.1427087 22.3145367,14.7703483 C14.7103704,11.3425577 5.76699789,14.7273681 2.33801784,22.3312965 C0.289162408,26.8746693 0.673129509,31.8960582 2.93593439,35.9340567 C3.87055567,37.6019584 5.62838275,38.6400652 7.54036763,38.6400652 L24.6750383,38.6400652 C26.5802034,38.6400652 28.3370789,37.6117915 29.2701935,35.9507095" id="Fill-1" stroke="#00A9FF" stroke-width="1.4"></path>
                    <ellipse id="Oval-Copy" fill="#FFCC01" cx="27.1110607" cy="35.4533529" rx="5.23082256" ry="5.23082256"></ellipse>
                </g>
                <g id="tg" transform="translate(12.193530, 22.387059)" stroke="#061122" stroke-linecap="square">
                    <path d="M0.559676487,1.67902946 L7.27579434,1.67902946" id="Line"></path>
                    <path d="M0.559676487,3.91773541 L7.27579434,3.91773541" id="Line-Copy-2"></path>
                    <path d="M3.91773541,3.91773541 L3.91773541,8.39514731" id="Line-Copy-3"></path>
                </g>
            </g>
        </g>
    </g>
</svg>