<?xml version="1.0" encoding="UTF-8"?>
<svg width="45px" height="45px" viewBox="0 0 45 45" version="1.1" xmlns="http://www.w3.org/2000/svg" xmlns:xlink="http://www.w3.org/1999/xlink">
    <!-- Generator: sketchtool 42 (36781) - http://www.bohemiancoding.com/sketch -->
    <title>2E5FBA43-6425-4D93-BD63-FC0630AB1C75</title>
    <desc>Created with sketchtool.</desc>
    <defs>
        <rect id="path-1" x="4" y="5" width="13" height="17" rx="0.5"></rect>
        <mask id="mask-2" maskContentUnits="userSpaceOnUse" maskUnits="objectBoundingBox" x="-1.4" y="-1.4" width="15.8" height="19.8">
            <rect x="2.6" y="3.6" width="15.8" height="19.8" fill="white"></rect>
            <use xlink:href="#path-1" fill="black"></use>
        </mask>
    </defs>
    <g id="Symbols" stroke="none" stroke-width="1" fill="none" fill-rule="evenodd">
        <g id="Icons/cards/online-payments2">
            <rect id="BG-container" x="0" y="0" width="45" height="45"></rect>
            <rect id="Rectangle-24" stroke="#00A9FF" stroke-width="1.4" fill="#FFFFFF" x="28" y="21" width="14" height="21" rx="7"></rect>
            <path d="M35,25 L35,27" id="Path-13" stroke="#061122" stroke-width="1.4" stroke-linecap="round"></path>
            <path d="M35.0732666,20.274337 L35.0732666,10.9132428 C35.0732666,7.59500256 32.3824038,4.90503738 29.0740796,4.90503738 L28.0857049,4.90503738 C24.7724454,4.90503738 22.0865178,7.585359 22.0865178,10.8987972 L22.0865178,33.9632724 C22.0865178,37.825939 18.960263,40.957249 15.0845278,40.957249 L15.00199,40.957249 C11.1348977,40.957249 8,37.8263874 8,33.951106 L8,21.9972295" id="Path-14" stroke="#061122" stroke-width="1.4"></path>
            <path d="M8,5.5 L8,21.5" id="Line" stroke="#061122" stroke-width="1.4" stroke-linecap="square"></path>
            <use id="Rectangle-25" stroke="#00A9FF" mask="url(#mask-2)" stroke-width="2.8" xlink:href="#path-1"></use>
        </g>
    </g>
</svg>