<?xml version="1.0" encoding="UTF-8"?>
<svg width="45px" height="45px" viewBox="0 0 45 45" version="1.1" xmlns="http://www.w3.org/2000/svg" xmlns:xlink="http://www.w3.org/1999/xlink">
    <!-- Generator: sketchtool 42 (36781) - http://www.bohemiancoding.com/sketch -->
    <title>FA70F881-1381-4C40-B502-DBB1B0D99058</title>
    <desc>Created with sketchtool.</desc>
    <defs>
        <path d="M0.140636116,6.98445281 C0.062964934,6.44075454 0.453230292,6 0.996875402,6 L37.0031246,6 C37.5536837,6 37.9379508,6.43434405 37.8593639,6.98445281 L36.1406361,19.0155472 C36.0629649,19.5592455 35.5450757,20 35.0008579,20 L2.99914214,20 C2.44733117,20 1.93795085,19.5656559 1.85936388,19.0155472 L0.140636116,6.98445281 Z" id="path-1"></path>
        <mask id="mask-2" maskContentUnits="userSpaceOnUse" maskUnits="objectBoundingBox" x="0" y="0" width="38" height="14" fill="white">
            <use xlink:href="#path-1"></use>
        </mask>
        <path d="M0.498515069,1.27240099 C0.223192799,0.790587017 0.453230292,0.399999619 0.996875402,0.399999619 L37.0031246,0.399999619 C37.5536837,0.399999619 37.7734818,0.796406388 37.5014849,1.27240099 L34,7.39999962 L4,7.39999962 L0.498515069,1.27240099 Z" id="path-3"></path>
        <mask id="mask-4" maskContentUnits="userSpaceOnUse" maskUnits="objectBoundingBox" x="0" y="0" width="37.2361642" height="7" fill="white">
            <use xlink:href="#path-3"></use>
        </mask>
    </defs>
    <g id="Symbols" stroke="none" stroke-width="1" fill="none" fill-rule="evenodd">
        <g id="Icons/cards/multi-currency">
            <rect id="BG-container" x="0" y="0" width="45" height="45"></rect>
            <g id="multicurrency" transform="translate(4.000000, 6.000000)">
                <g id="wrapper" transform="translate(0.000000, 12.000000)">
                    <use id="Rectangle" stroke="#00A9FF" mask="url(#mask-2)" stroke-width="2.8" fill="#FFFFFF" xlink:href="#path-1"></use>
                    <path d="M28.6696858,15.2925454 C28.2991165,15.4937298 27.8736624,15.6081401 27.4212003,15.6081401 C25.985097,15.6081401 24.820853,14.4549842 24.820853,13.0329944 C24.820853,11.6110046 25.985097,10.4578488 27.4212003,10.4578488 C27.9227,10.4578488 28.3910202,10.5984023 28.7882026,10.8418788" id="Stroke-210" stroke="#00A9FF" stroke-width="1.4" stroke-linecap="round" stroke-linejoin="round"></path>
                    <path d="M33.4156814,13.0329944 C33.4156814,14.4549842 32.2514374,15.6081401 30.8149768,15.6081401 C29.3788735,15.6081401 28.2146296,14.4549842 28.2146296,13.0329944 C28.2146296,11.6110046 29.3788735,10.4578488 30.8149768,10.4578488 C32.2514374,10.4578488 33.4156814,11.6110046 33.4156814,13.0329944 L33.4156814,13.0329944 Z" id="Stroke-208" stroke="#00A9FF" stroke-width="1.4" stroke-linecap="round" stroke-linejoin="round"></path>
                    <path d="M5,12 L11,12" id="Line" stroke="#00A9FF" stroke-width="1.4" stroke-linecap="round"></path>
                    <path d="M5,15 L18,15" id="Line-Copy" stroke="#061122" stroke-width="1.4" stroke-linecap="round"></path>
                    <use id="Rectangle-Copy" stroke="#00A9FF" mask="url(#mask-4)" stroke-width="2.8" fill="#FFFFFF" transform="translate(18.999888, 3.900000) scale(1, -1) translate(-18.999888, -3.900000) " xlink:href="#path-3"></use>
                </g>
                <g id="dollar" transform="translate(23.000000, 6.000000)">
                    <path d="M3.0343141,12 C1.21102216,10.8486843 0,8.81576684 0,6.5 C0,2.91014913 2.91014913,0 6.5,0 C10.0898509,0 13,2.91014913 13,6.5 C13,8.81576684 11.7889778,10.8486843 9.9656859,12 L3.0343141,12 Z" id="Combined-Shape" fill="#11D392"></path>
                    <text id="$" font-family="GothamPro-Medium, Gotham Pro" font-size="8" font-weight="400" fill="#FFFFFF">
                        <tspan x="4" y="9">$</tspan>
                    </text>
                </g>
                <g id="euro" transform="translate(2.000000, 6.000000)">
                    <path d="M3.0343141,12 C1.21102216,10.8486843 0,8.81576684 0,6.5 C0,2.91014913 2.91014913,0 6.5,0 C10.0898509,0 13,2.91014913 13,6.5 C13,8.81576684 11.7889778,10.8486843 9.9656859,12 L3.0343141,12 Z" id="Combined-Shape" fill="#2A4EA7"></path>
                    <path d="M6.83441026,9.78287179 C7.8545641,9.78287179 8.48992308,9.26384615 9,8.52110256 L8.21251282,7.94838462 C7.80087179,8.48530769 7.44292308,8.79851282 6.84335897,8.79851282 C6.14535897,8.79851282 5.62633333,8.36002564 5.38471795,7.66202564 L7.31764103,7.66202564 L7.31764103,6.90138462 L5.22364103,6.90138462 C5.21469231,6.78505128 5.20574359,6.66871795 5.20574359,6.5434359 C5.20574359,6.39130769 5.21469231,6.25707692 5.22364103,6.14074359 L7.31764103,6.14074359 L7.31764103,5.38010256 L5.39366667,5.38010256 C5.64423077,4.70894872 6.13641026,4.28835897 6.77176923,4.28835897 C7.39817949,4.28835897 7.76507692,4.57471795 8.14987179,5.10269231 L8.98210256,4.48523077 C8.50782051,3.80512821 7.89035897,3.304 6.79861538,3.304 C5.53684615,3.304 4.61512821,4.17202564 4.25717949,5.38010256 L3.416,5.38010256 L3.416,6.14074359 L4.114,6.14074359 C4.09610256,6.26602564 4.09610256,6.40920513 4.09610256,6.5434359 C4.09610256,6.67766667 4.09610256,6.78505128 4.10505128,6.90138462 L3.416,6.90138462 L3.416,7.66202564 L4.23033333,7.66202564 C4.57038462,8.92379487 5.51,9.78287179 6.83441026,9.78287179 Z" id="€" fill="#FFFFFF"></path>
                </g>
                <g id="tg" transform="translate(12.000000, 0.000000)">
                    <circle id="Oval-14" fill="#00A9FF" cx="6.5" cy="6.5" r="6.5"></circle>
                    <g transform="translate(3.000000, 3.000000)" stroke="#FFFFFF" stroke-linecap="square">
                        <path d="M0.5,1.5 L6.5,1.5" id="Line"></path>
                        <path d="M0.5,3.5 L6.5,3.5" id="Line-Copy-2"></path>
                        <path d="M3.5,3.5 L3.5,7.5" id="Line-Copy-3"></path>
                    </g>
                </g>
                <g id="gold" transform="translate(13.000000, 10.000000)" fill="#FFCC01">
                    <path d="M0.173931839,8 C0.0601886947,7.51848065 0,7.01626924 0,6.5 C0,2.91014913 2.91014913,0 6.5,0 C10.0898509,0 13,2.91014913 13,6.5 C13,7.01626924 12.9398113,7.51848065 12.8260682,8 L0.173931839,8 Z" id="Combined-Shape"></path>
                </g>
            </g>
        </g>
    </g>
</svg>