<?xml version="1.0" encoding="UTF-8"?>
<svg width="45px" height="45px" viewBox="0 0 45 45" version="1.1" xmlns="http://www.w3.org/2000/svg" xmlns:xlink="http://www.w3.org/1999/xlink">
    <!-- Generator: Sketch 42 (36781) - http://www.bohemiancoding.com/sketch -->
    <title>Icons/onboarding/payments</title>
    <desc>Created with Sketch.</desc>
    <defs>
        <rect id="path-1" x="0" y="0" width="28.5" height="17.3076923" rx="1"></rect>
        <mask id="mask-2" maskContentUnits="userSpaceOnUse" maskUnits="objectBoundingBox" x="0" y="0" width="28.5" height="17.3076923" fill="white">
            <use xlink:href="#path-1"></use>
        </mask>
    </defs>
    <g id="Symbols" stroke="none" stroke-width="1" fill="none" fill-rule="evenodd">
        <g id="Icons/onboarding/payments">
            <g id="payments">
                <rect id="Rectangle-4" x="0" y="0" width="45" height="45"></rect>
                <g id="tenge" transform="translate(8.250000, 12.000000)">
                    <g id="bg" transform="translate(0.000000, 1.500000)" stroke="#00A9FF" stroke-width="2.8" stroke-linecap="round" stroke-linejoin="round">
                        <use id="1" mask="url(#mask-2)" xlink:href="#path-1"></use>
                    </g>
                    <g id="corners-left" transform="translate(0.000000, 1.500000)" stroke-width="1.4">
                        <path d="M5.36583851,0.8439221 L0.865961306,5.21627242" id="Line" stroke="#00A9FF" stroke-linecap="square"></path>
                        <path d="M6.77497503,12.114951 L0.865961306,18.0239647" id="Line-Copy" stroke="#061122" stroke-linecap="round" stroke-linejoin="round" transform="translate(4.125000, 15.057692) scale(1, -1) translate(-4.125000, -15.057692) "></path>
                    </g>
                    <g id="corners-righ" transform="translate(24.375000, 9.750000) scale(-1, 1) translate(-24.375000, -9.750000) translate(20.250000, 0.000000)" stroke-width="1.4">
                        <path d="M7.54946186,0.0327718632 L0.865961306,6.71627242" id="Line" stroke="#061122" stroke-linecap="round" stroke-linejoin="round"></path>
                        <path d="M5.36583851,13.5939221 L0.865961306,17.9662724" id="Line-Copy" stroke="#00A9FF" stroke-linecap="square" transform="translate(3.117188, 15.778846) scale(1, -1) translate(-3.117188, -15.778846) "></path>
                    </g>
                    <g id="sign" transform="translate(9.796875, 5.826923)" stroke="#061122" stroke-width="1.4" stroke-linecap="square">
                        <path d="M0.456758855,0.686538462 L7.76490054,0.686538462" id="Line"></path>
                        <path d="M0.456758855,3.28269231 L7.76490054,3.28269231" id="Line-Copy-2"></path>
                        <path d="M4.1859375,3.54683434 L4.1859375,8.2246117" id="Line"></path>
                    </g>
                </g>
                <path d="M37.4025797,35.0769482 C40.2709408,31.681647 42,27.2927452 42,22.5 C42,11.7304474 33.2695526,3 22.5,3 C19.2816618,3 16.2454226,3.77965872 13.5698553,5.16040335" id="Path" stroke="#00A9FF" stroke-width="1.4" stroke-linecap="round"></path>
                <g id="black-line" transform="translate(3.000000, 2.250000)" stroke-linecap="round" stroke-width="1.4">
                    <g id="arrow" transform="translate(12.000000, 1.875000) rotate(-180.000000) translate(-12.000000, -1.875000) translate(9.750000, -0.750000)" stroke="#00A9FF">
                        <path d="M4.125,1.125 L0.375,0.375" id="Line"></path>
                        <path d="M4.125,1.125 L3.375,4.875" id="Line-Copy-3"></path>
                    </g>
                    <path d="M5.32260044,6.8614497 C2.02298661,10.354233 0,15.0658696 0,20.25 C0,31.0195526 8.73044738,39.75 19.5,39.75 L19.5,39.75 C22.8281921,39.75 25.9616415,38.9162076 28.7028582,37.4461129" id="Oval-7" stroke="#061122"></path>
                    <g id="arrow" transform="translate(24.750000, 36.000000)" stroke="#061122">
                        <path d="M4.125,1.125 L0.375,0.375" id="Line"></path>
                        <path d="M4.125,1.125 L3.375,4.875" id="Line-Copy-3"></path>
                    </g>
                </g>
            </g>
        </g>
    </g>
</svg>