<?xml version="1.0" encoding="UTF-8"?>
<svg width="45px" height="45px" viewBox="0 0 45 45" version="1.1" xmlns="http://www.w3.org/2000/svg" xmlns:xlink="http://www.w3.org/1999/xlink">
    <!-- Generator: sketchtool 42 (36781) - http://www.bohemiancoding.com/sketch -->
    <title>B42CC702-2EE9-4357-81F7-470C3865C4FA</title>
    <desc>Created with sketchtool.</desc>
    <defs></defs>
    <g id="Symbols" stroke="none" stroke-width="1" fill="none" fill-rule="evenodd">
        <g id="Icons/cards/paypass">
            <rect id="BG-container" x="0" y="0" width="45" height="45"></rect>
            <g id="paypass" transform="translate(5.000000, 4.000000)" stroke-linecap="round" stroke-width="1.4" stroke-linejoin="round">
                <g id="waves" transform="translate(28.677670, 18.384776) rotate(-315.000000) translate(-28.677670, -18.384776) translate(16.177670, 5.884776)">
                    <path d="M1.77635684e-14,16.1375 C2.121,16.1375 4.157,16.9805 5.657,18.4805 C7.157,19.9805 8,22.0165 8,24.1375" id="Stroke-3" stroke="#1D1D1B"></path>
                    <path d="M2.59348099e-13,8.0688 C4.26,8.0688 8.35,9.7628 11.362,12.7748 C14.375,15.7878 16.069,19.8778 16.069,24.1378" id="Stroke-7" stroke="#00A9FF"></path>
                    <path d="M-6.39488462e-14,-5.68434189e-14 C6.399,-5.68434189e-14 12.543,2.545 17.068,7.07 C21.593,11.595 24.137,17.738 24.137,24.137" id="Stroke-11" stroke="#1D1D1B"></path>
                </g>
                <g id="card" transform="translate(0.000000, 6.000000)" stroke="#00A9FF">
                    <g id="Group-2">
                        <path d="M0.360000134,0 L11.4999607,0 C12.3257597,0 12.9952021,0.668689609 12.9952021,1.50756198 L12.9952021,23.492438 C12.9952021,24.3250415 12.3176123,25 11.4910647,25 L0.360000134,25" id="Rectangle"></path>
                        <path d="M4.6696858,19.2925454 C4.29911648,19.4937298 3.87366238,19.6081401 3.42120033,19.6081401 C1.98509701,19.6081401 0.820853041,18.4549842 0.820853041,17.0329944 C0.820853041,15.6110046 1.98509701,14.4578488 3.42120033,14.4578488 C3.92269996,14.4578488 4.3910202,14.5984023 4.78820256,14.8418788" id="Stroke-210"></path>
                        <path d="M9.41568138,17.0329944 C9.41568138,18.4549842 8.25143741,19.6081401 6.81497685,19.6081401 C5.37887352,19.6081401 4.21462956,18.4549842 4.21462956,17.0329944 C4.21462956,15.6110046 5.37887352,14.4578488 6.81497685,14.4578488 C8.25143741,14.4578488 9.41568138,15.6110046 9.41568138,17.0329944 L9.41568138,17.0329944 Z" id="Stroke-208"></path>
                    </g>
                </g>
            </g>
        </g>
    </g>
</svg>