<?xml version="1.0" encoding="UTF-8"?>
<svg width="45px" height="45px" viewBox="0 0 45 45" version="1.1" xmlns="http://www.w3.org/2000/svg" xmlns:xlink="http://www.w3.org/1999/xlink">
    <!-- Generator: sketchtool 42 (36781) - http://www.bohemiancoding.com/sketch -->
    <title>8601532C-D4C7-47AC-B8FC-740F996DA2FF</title>
    <desc>Created with sketchtool.</desc>
    <defs>
        <rect id="path-1" x="4" y="15" width="6" height="6" rx="3"></rect>
        <mask id="mask-2" maskContentUnits="userSpaceOnUse" maskUnits="objectBoundingBox" x="0" y="0" width="6" height="6" fill="white">
            <use xlink:href="#path-1"></use>
        </mask>
        <rect id="path-3" x="14.5" y="15" width="6" height="6" rx="3"></rect>
        <mask id="mask-4" maskContentUnits="userSpaceOnUse" maskUnits="objectBoundingBox" x="0" y="0" width="6" height="6" fill="white">
            <use xlink:href="#path-3"></use>
        </mask>
        <rect id="path-5" x="25" y="15" width="6" height="6" rx="3"></rect>
        <mask id="mask-6" maskContentUnits="userSpaceOnUse" maskUnits="objectBoundingBox" x="0" y="0" width="6" height="6" fill="white">
            <use xlink:href="#path-5"></use>
        </mask>
    </defs>
    <g id="Symbols" stroke="none" stroke-width="1" fill="none" fill-rule="evenodd">
        <g id="Icons/cards/no-fee-Copy-2">
            <rect id="BG-container" x="0" y="0" width="45" height="45"></rect>
            <g id="Page-1" transform="translate(5.000000, 6.000000)">
                <path d="M0,31.0018463 C0,31.5531114 0.442529321,32 1.00973606,32 L33.9902639,32 C34.5479258,32 35,31.5526348 35,31.0018463 L35,2.99815369 C35,2.44688863 34.5574707,2 33.9902639,2 L1.00973606,2 C0.452074233,2 0,2.44736519 0,2.99815369 L0,31.0018463 Z" id="Stroke-1" stroke="#00A9FF" stroke-width="1.4"></path>
                <use id="Rectangle" stroke="#00A9FF" mask="url(#mask-2)" stroke-width="2.8" xlink:href="#path-1"></use>
                <use id="Rectangle-Copy" stroke="#00A9FF" mask="url(#mask-4)" stroke-width="2.8" xlink:href="#path-3"></use>
                <use id="Rectangle-Copy-2" stroke="#061122" mask="url(#mask-6)" stroke-width="2.8" xlink:href="#path-5"></use>
                <path d="M6,-1.98482151e-05 L6,4.14998025" id="Stroke-3" stroke="#000000" stroke-width="1.4" stroke-linecap="round"></path>
                <path d="M28,-1.98482151e-05 L28,4.14998025" id="Stroke-4" stroke="#000000" stroke-width="1.4" stroke-linecap="round"></path>
            </g>
        </g>
    </g>
</svg>