<?xml version="1.0" encoding="UTF-8"?>
<svg width="45px" height="45px" viewBox="0 0 45 45" version="1.1" xmlns="http://www.w3.org/2000/svg" xmlns:xlink="http://www.w3.org/1999/xlink">
    <!-- Generator: Sketch 42 (36781) - http://www.bohemiancoding.com/sketch -->
    <title>Icons/onboarding/Guarding</title>
    <desc>Created with Sketch.</desc>
    <defs></defs>
    <g id="Symbols" stroke="none" stroke-width="1" fill="none" fill-rule="evenodd">
        <g id="Icons/onboarding/Guarding">
            <g id="Group-2">
                <rect id="Rectangle-4" x="0" y="0" width="45" height="45"></rect>
                <g id="safety" transform="translate(7.500000, 3.750000)">
                    <g id="shield" stroke-width="1.4" stroke-linecap="round">
                        <path d="M17.7655133,0.569225771 C17.7655133,0.569225771 14.819073,1.47844935 14.4764869,1.56438206 L1.32746829,4.8604188 C0.545956933,5.05639936 0,5.6769145 0,6.36941515 L0,15.155877 C0,19.7987628 1.6523746,24.2519666 4.7782083,28.0342655 C7.20171928,30.9670454 10.4400898,33.3883681 14.1430054,35.0366564 C14.4112727,35.1561524 14.7055834,35.2158104 15,35.2158104" id="Shape" stroke="#061122"></path>
                        <path d="M29.7733014,0.533180189 C29.7733014,0.533180189 26.3986315,1.47844935 26.0560453,1.56438206 L12.9070267,4.8604188 C12.1255154,5.05639936 11.5795584,5.6769145 11.5795584,6.36941515 L11.5795584,15.155877 C11.5795584,19.7987628 13.231933,24.2519666 16.3577667,28.0342655 C18.7812777,30.9670454 22.0196482,33.3883681 25.7225638,35.0366564 C25.9908312,35.1561524 26.2851419,35.2158104 26.5795584,35.2158104" id="Shape-Copy" stroke="#00A9FF" transform="translate(20.676430, 17.874495) scale(-1, 1) translate(-20.676430, -17.874495) "></path>
                    </g>
                    <g id="lock" transform="translate(9.750000, 9.750000)">
                        <rect id="Rectangle-5" stroke="#061122" stroke-width="1.4" x="1.54411765" y="0" width="7.41176471" height="10.1757294" rx="3.70588235"></rect>
                        <ellipse id="Oval-4" fill="#00A9FF" cx="5.25" cy="9.75795756" rx="5.25" ry="5.24204244"></ellipse>
                        <path d="M4.59392274,9.87594777 C4.45465378,10.0313748 4.36985294,10.2365207 4.36985294,10.4613934 C4.36985294,10.9457608 4.7639082,11.3402064 5.25,11.3402064 C5.7351027,11.3402064 6.13014706,10.9467484 6.13014706,10.4613934 C6.13014706,10.2368009 6.04542478,10.0315418 5.90608911,9.8759745 C5.90874608,9.85200421 5.91011029,9.82764631 5.91011029,9.80297139 L5.91011029,9.14248617 C5.91011029,8.78009032 5.61456885,8.48406416 5.25,8.48406416 C4.88617298,8.48406416 4.58988971,8.77884973 4.58988971,9.14248617 L4.58988971,9.80297139 C4.58988971,9.8276282 4.59125783,9.85197777 4.59392274,9.87594777 L4.59392274,9.87594777 Z" id="Combined-Shape" fill="#FFFFFF"></path>
                    </g>
                </g>
            </g>
        </g>
    </g>
</svg>