<?xml version="1.0" encoding="UTF-8"?>
<svg width="45px" height="45px" viewBox="0 0 45 45" version="1.1" xmlns="http://www.w3.org/2000/svg" xmlns:xlink="http://www.w3.org/1999/xlink">
    <!-- Generator: sketchtool 42 (36781) - http://www.bohemiancoding.com/sketch -->
    <title>64A4D7A8-7F4C-4B69-8999-B4F782AC6D1A</title>
    <desc>Created with sketchtool.</desc>
    <defs>
        <path d="M5.35755992,4.93029733 C5.16008503,4.4165083 5.43981314,4 5.99653482,4 L32.0034652,4 C32.5538362,4 32.9228275,4.43731068 32.8257402,4.98747201 L30.1742598,20.012528 C30.0780188,20.5578937 29.5447371,21 29.004543,21 L5.99545703,21 C5.44568129,21 5.07596016,20.5519713 5.16707888,20.0145344 L7,9.20358841 L5.35755992,4.93029733 Z" id="path-1"></path>
        <mask id="mask-2" maskContentUnits="userSpaceOnUse" maskUnits="objectBoundingBox" x="0" y="0" width="27.6879639" height="17" fill="white">
            <use xlink:href="#path-1"></use>
        </mask>
    </defs>
    <g id="Symbols" stroke="none" stroke-width="1" fill="none" fill-rule="evenodd">
        <g id="Icons/cards/online-payments">
            <rect id="BG-container" x="0" y="0" width="45" height="45"></rect>
            <g id="cart" transform="translate(5.000000, 8.000000)">
                <use id="Rectangle-23" stroke="#00A9FF" mask="url(#mask-2)" stroke-width="2.8" fill="#FFFFFF" xlink:href="#path-1"></use>
                <polyline id="Path-10" stroke="#061122" stroke-width="1.4" stroke-linecap="round" stroke-linejoin="round" points="0 0 3.9740805 0 6.1118809 4.93605147"></polyline>
                <path d="M14.0090499,4.98006972 L11.2387716,20.1540206" id="Path-11" stroke="#00A9FF" stroke-width="1.4"></path>
                <path d="M20.0090499,4.98006972 L17.2387716,20.1540206" id="Path-11-Copy" stroke="#00A9FF" stroke-width="1.4"></path>
                <path d="M26.0090499,4.98006972 L23.2387716,20.1540206" id="Path-11-Copy-2" stroke="#00A9FF" stroke-width="1.4"></path>
                <circle id="Oval-15" stroke="#061122" stroke-width="1.4" cx="26.5" cy="25.5" r="2.5"></circle>
                <circle id="Oval-15-Copy" stroke="#061122" stroke-width="1.4" cx="6.5" cy="25.5" r="2.5"></circle>
                <path d="M7.05988382,12.5 L30.6964947,12.5" id="Path-12" stroke="#00A9FF" stroke-width="1.4"></path>
            </g>
        </g>
    </g>
</svg>