<?xml version="1.0" encoding="UTF-8"?>
<svg width="45px" height="45px" viewBox="0 0 45 45" version="1.1" xmlns="http://www.w3.org/2000/svg" xmlns:xlink="http://www.w3.org/1999/xlink">
    <!-- Generator: sketchtool 42 (36781) - http://www.bohemiancoding.com/sketch -->
    <title>3E9E02DF-C5BB-441A-9E5C-4E2EB3ECF8AF</title>
    <desc>Created with sketchtool.</desc>
    <defs></defs>
    <g id="Symbols" stroke="none" stroke-width="1" fill="none" fill-rule="evenodd">
        <g id="Icons/cards/avia-Copy">
            <rect id="BG-container" x="0" y="0" width="45" height="45"></rect>
            <g id="Page-1" transform="translate(1.000000, 11.000000)" stroke-width="1.4" stroke-linecap="round">
                <path d="M21.5402898,0.501277942 L21.5402898,5.24736822" id="Path-2" stroke="#061122"></path>
                <path d="M15.0758763,5.25082237 L28.0040616,5.25082237" id="Path-3" stroke="#061122"></path>
                <path d="M28.4917008,12.6953679 C28.4917008,16.4809622 25.3577029,19.5497484 21.4916647,19.5497484 C17.6256266,19.5497484 14.4915358,16.4809622 14.4915358,12.6953679 C14.4915358,8.9097736 17.6256266,5.84098739 21.4916647,5.84098739 C25.3577029,5.84098739 28.4917008,8.9097736 28.4917008,12.6953679 Z" id="Stroke-1" stroke="#00A9FF"></path>
                <path d="M17.5087544,12.3284207 C17.5087544,10.1889478 19.3067207,8.42839329 21.4916574,8.42839329 C23.6765941,8.42839329 25.4744822,10.1889478 25.4744822,12.3284207" id="Stroke-3" stroke="#000000"></path>
                <polyline id="Stroke-7" stroke="#00A9FF" points="14.4915637 14.800631 1.67644738 14.800631 0.0347674991 12.9815521"></polyline>
                <polyline id="Stroke-9" stroke="#00A9FF" points="28.4917008 14.800631 41.3068171 14.800631 42.948497 12.9815521"></polyline>
                <path d="M11.6753033,16.9607873 C11.6753033,18.1538302 10.6876388,19.1209436 9.46924374,19.1209436 C8.25084864,19.1209436 7.26318415,18.1538302 7.26318415,16.9607873 C7.26318415,15.7677444 8.25084864,14.800631 9.46924374,14.800631 C10.6876388,14.800631 11.6753033,15.7677444 11.6753033,16.9607873 Z" id="Stroke-13" stroke="#000000"></path>
                <path d="M35.7200803,16.9607873 C35.7200803,18.1538302 34.7324158,19.1209436 33.5140207,19.1209436 C32.2956256,19.1209436 31.3079611,18.1538302 31.3079611,16.9607873 C31.3079611,15.7677444 32.2956256,14.800631 33.5140207,14.800631 C34.7324158,14.800631 35.7200803,15.7677444 35.7200803,16.9607873 Z" id="Stroke-15" stroke="#000000"></path>
            </g>
        </g>
    </g>
</svg>