<?xml version="1.0" encoding="UTF-8"?>
<svg width="45px" height="45px" viewBox="0 0 45 45" version="1.1" xmlns="http://www.w3.org/2000/svg" xmlns:xlink="http://www.w3.org/1999/xlink">
    <!-- Generator: sketchtool 42 (36781) - http://www.bohemiancoding.com/sketch -->
    <title>227AF325-62D2-4476-9FC9-44BC24490D30</title>
    <desc>Created with sketchtool.</desc>
    <defs></defs>
    <g id="Symbols" stroke="none" stroke-width="1" fill="none" fill-rule="evenodd">
        <g id="Icons/cards/no-fee">
            <rect id="BG-container" x="0" y="0" width="45" height="45"></rect>
            <g id="p2hb" transform="translate(8.000000, 5.000000)">
                <rect id="Rectangle" stroke="#00A9FF" stroke-width="1.4" x="0.391666667" y="0" width="21.0050725" height="35.1304348" rx="10.5025362"></rect>
                <g id="percent" transform="translate(17.000000, 21.000000)">
                    <path d="M5.64114632,2.5 C5.64114632,3.88049451 4.52190736,5 3.14097461,5 C1.76038528,5 0.641146322,3.88049451 0.641146322,2.5 C0.641146322,1.11950549 1.76038528,0 3.14097461,0 C4.52190736,0 5.64114632,1.11950549 5.64114632,2.5 L5.64114632,2.5 Z" id="Stroke-208" fill="#061122"></path>
                    <path d="M14.8184174,12.4472923 C14.8184174,13.8277869 13.6991785,14.9472923 12.3182457,14.9472923 C10.9376564,14.9472923 9.81841744,13.8277869 9.81841744,12.4472923 C9.81841744,11.0667978 10.9376564,9.94729235 12.3182457,9.94729235 C13.6991785,9.94729235 14.8184174,11.0667978 14.8184174,12.4472923 L14.8184174,12.4472923 Z" id="Stroke-208-Copy" fill="#00A9FF" transform="translate(12.318417, 12.447292) rotate(-1.000000) translate(-12.318417, -12.447292) "></path>
                    <path d="M12.5,1.5 L2.5,13.5" id="Line" stroke="#061122" stroke-width="1.4" stroke-linecap="round"></path>
                </g>
            </g>
        </g>
    </g>
</svg>