<?xml version="1.0" encoding="UTF-8" standalone="no"?>
<svg width="138px" height="41px" viewBox="0 0 138 41" version="1.1" xmlns="http://www.w3.org/2000/svg" xmlns:xlink="http://www.w3.org/1999/xlink">
    <!-- Generator: sketchtool 39 (31667) - http://www.bohemiancoding.com/sketch -->
    <title>90D53592-CB1D-4BAB-AF52-F9293C1DC725</title>
    <desc>Created with sketchtool.</desc>
    <defs>
        <linearGradient x1="91.5361538%" y1="4.8388%" x2="-37.5592308%" y2="71.9684%" id="linearGradient-1">
            <stop stop-color="#00A0FF" offset="0%"></stop>
            <stop stop-color="#00A1FF" offset="0.657445%"></stop>
            <stop stop-color="#00BEFF" offset="26.01%"></stop>
            <stop stop-color="#00D2FF" offset="51.22%"></stop>
            <stop stop-color="#00DFFF" offset="76.04%"></stop>
            <stop stop-color="#00E3FF" offset="100%"></stop>
        </linearGradient>
        <linearGradient x1="107.728079%" y1="49.4282353%" x2="-130.665025%" y2="49.4282353%" id="linearGradient-2">
            <stop stop-color="#FFE000" offset="0%"></stop>
            <stop stop-color="#FFBD00" offset="40.87%"></stop>
            <stop stop-color="#FFA500" offset="77.54%"></stop>
            <stop stop-color="#FF9C00" offset="100%"></stop>
        </linearGradient>
        <linearGradient x1="86.3892216%" y1="17.8150459%" x2="-49.888024%" y2="194.392791%" id="linearGradient-3">
            <stop stop-color="#FF3A44" offset="0%"></stop>
            <stop stop-color="#C31162" offset="100%"></stop>
        </linearGradient>
        <linearGradient x1="-18.5790419%" y1="-54.5266535%" x2="42.2748503%" y2="24.6901019%" id="linearGradient-4">
            <stop stop-color="#32A071" offset="0%"></stop>
            <stop stop-color="#2DA771" offset="6.85%"></stop>
            <stop stop-color="#15CF74" offset="47.62%"></stop>
            <stop stop-color="#06E775" offset="80.09%"></stop>
            <stop stop-color="#00F076" offset="100%"></stop>
        </linearGradient>
    </defs>
    <g id="Symbols" stroke="none" stroke-width="1" fill="none" fill-rule="evenodd">
        <g id="Elements/footer/mobile/footer" transform="translate(-167.000000, -71.000000)">
            <g id="footer">
                <g id="apps" transform="translate(15.000000, 15.000000)">
                    <g id="Google-play-badge" transform="translate(152.806936, 57.000000)">
                        <g id="artwork">
                            <path d="M130.932546,38.72671 L5.22975875,38.72671 C2.41401631,38.72671 0.201647249,36.611036 0.201647249,33.9183601 L0.201647249,5.0682607 C0.201647249,2.37558476 2.41401631,0.259910805 5.22975875,0.259910805 L130.932546,0.259910805 C133.748289,0.259910805 135.960658,2.37558476 135.960658,5.0682607 L135.960658,33.9183601 C135.960658,36.514869 133.748289,38.72671 130.932546,38.72671 L130.932546,38.72671 Z" id="Shape" stroke="#A6A6A6" fill="#000000"></path>
                            <path d="M65.4294911,21.2243164 C63.1307125,21.2243164 61.3108461,22.9553223 61.3108461,25.3594973 C61.3108461,27.6675052 63.1307125,29.4946782 65.4294911,29.4946782 C67.7282698,29.4946782 69.5481362,27.7636722 69.5481362,25.3594973 C69.5481362,22.8591553 67.7282698,21.2243164 65.4294911,21.2243164 L65.4294911,21.2243164 Z M65.4294911,27.7636722 C64.1843194,27.7636722 63.1307125,26.7058353 63.1307125,25.2633303 C63.1307125,23.8208253 64.1843194,22.7629883 65.4294911,22.7629883 C66.6746629,22.7629883 67.7282698,23.7246583 67.7282698,25.2633303 C67.7282698,26.7058353 66.6746629,27.7636722 65.4294911,27.7636722 L65.4294911,27.7636722 Z M56.5217239,21.2243164 C54.2229453,21.2243164 52.4030788,22.9553223 52.4030788,25.3594973 C52.4030788,27.6675052 54.2229453,29.4946782 56.5217239,29.4946782 C58.8205025,29.4946782 60.640369,27.7636722 60.640369,25.3594973 C60.640369,22.8591553 58.8205025,21.2243164 56.5217239,21.2243164 L56.5217239,21.2243164 Z M56.5217239,27.7636722 C55.2765521,27.7636722 54.2229453,26.7058353 54.2229453,25.2633303 C54.2229453,23.8208253 55.2765521,22.7629883 56.5217239,22.7629883 C57.7668957,22.7629883 58.8205025,23.7246583 58.8205025,25.2633303 C58.8205025,26.7058353 57.7668957,27.7636722 56.5217239,27.7636722 L56.5217239,27.7636722 Z M45.8898727,22.4744873 L45.8898727,24.2054933 L50.0085178,24.2054933 C49.9127353,25.1671633 49.5296055,25.9364993 49.0506933,26.4173343 C48.4759987,26.9943362 47.5181742,27.6675052 45.8898727,27.6675052 C43.3037467,27.6675052 41.3880979,25.6479983 41.3880979,23.0514893 C41.3880979,20.4549804 43.3995292,18.4354734 45.8898727,18.4354734 C47.2308269,18.4354734 48.2844338,19.0124754 49.0506933,19.6856444 L50.2958651,18.4354734 C49.2422582,17.4738034 47.901304,16.7044675 45.9856551,16.7044675 C42.5374872,16.7044675 39.5682314,19.5894774 39.5682314,23.0514893 C39.5682314,26.5135013 42.5374872,29.3985112 45.9856551,29.3985112 C47.901304,29.3985112 49.2422582,28.8215092 50.3916475,27.5713382 C51.5410369,26.4173343 51.9241666,24.7824953 51.9241666,23.5323243 C51.9241666,23.1476563 51.9241666,22.7629883 51.8283842,22.4744873 L45.8898727,22.4744873 L45.8898727,22.4744873 Z M89.3751019,23.8208253 C88.9919722,22.8591553 88.0341477,21.2243164 85.926934,21.2243164 C83.8197202,21.2243164 82.0956363,22.8591553 82.0956363,25.3594973 C82.0956363,27.6675052 83.8197202,29.4946782 86.1184989,29.4946782 C87.9383653,29.4946782 89.0877546,28.3406742 89.4708844,27.6675052 L88.1299302,26.7058353 C87.651018,27.3790042 87.0763233,27.8598392 86.1184989,27.8598392 C85.1606744,27.8598392 84.5859798,27.4751712 84.1070676,26.6096683 L89.5666668,24.3016603 L89.3751019,23.8208253 L89.3751019,23.8208253 Z M83.8197202,25.1671633 C83.8197202,23.6284913 85.064892,22.7629883 85.926934,22.7629883 C86.5974111,22.7629883 87.2678882,23.1476563 87.4594531,23.6284913 L83.8197202,25.1671633 L83.8197202,25.1671633 Z M79.3179454,29.1100102 L81.1378118,29.1100102 L81.1378118,17.0891355 L79.3179454,17.0891355 L79.3179454,29.1100102 L79.3179454,29.1100102 Z M76.4444721,22.0898193 L76.4444721,22.0898193 C75.9655599,21.6089844 75.1993003,21.1281494 74.2414759,21.1281494 C72.2300446,21.1281494 70.3143957,22.9553223 70.3143957,25.2633303 C70.3143957,27.5713382 72.1342622,29.3023442 74.2414759,29.3023442 C75.1993003,29.3023442 75.9655599,28.8215092 76.3486897,28.3406742 L76.4444721,28.3406742 L76.4444721,28.9176762 C76.4444721,30.4563482 75.5824301,31.3218512 74.2414759,31.3218512 C73.187869,31.3218512 72.4216095,30.5525152 72.2300446,29.8793462 L70.6975255,30.5525152 C71.1764377,31.6103521 72.325827,32.9566901 74.3372584,32.9566901 C76.4444721,32.9566901 78.1685561,31.7065191 78.1685561,28.7253422 L78.1685561,21.4166504 L76.4444721,21.4166504 L76.4444721,22.0898193 L76.4444721,22.0898193 Z M74.3372584,27.7636722 C73.0920866,27.7636722 72.0384797,26.7058353 72.0384797,25.2633303 C72.0384797,23.8208253 73.0920866,22.7629883 74.3372584,22.7629883 C75.5824301,22.7629883 76.5402545,23.8208253 76.5402545,25.2633303 C76.5402545,26.7058353 75.5824301,27.7636722 74.3372584,27.7636722 L74.3372584,27.7636722 Z M97.7081745,17.0891355 L93.3979646,17.0891355 L93.3979646,29.1100102 L95.217831,29.1100102 L95.217831,24.5901613 L97.7081745,24.5901613 C99.7196058,24.5901613 101.635255,23.1476563 101.635255,20.8396484 C101.635255,18.5316404 99.7196058,17.0891355 97.7081745,17.0891355 L97.7081745,17.0891355 Z M97.803957,22.8591553 L95.217831,22.8591553 L95.217831,18.7239744 L97.803957,18.7239744 C99.1449112,18.7239744 99.9111707,19.8779784 99.9111707,20.7434814 C99.8153883,21.8013184 99.0491287,22.8591553 97.803957,22.8591553 L97.803957,22.8591553 Z M108.818938,21.1281494 C107.477984,21.1281494 106.13703,21.7051514 105.658117,22.9553223 L107.286419,23.6284913 C107.669549,22.9553223 108.244243,22.7629883 108.91472,22.7629883 C109.872545,22.7629883 110.734587,23.3399903 110.830369,24.3016603 L110.830369,24.3978273 C110.543022,24.2054933 109.776762,23.9169923 109.010503,23.9169923 C107.286419,23.9169923 105.562335,24.8786623 105.562335,26.6096683 C105.562335,28.2445072 106.999072,29.3023442 108.531591,29.3023442 C109.776762,29.3023442 110.351457,28.7253422 110.830369,28.1483402 L110.926152,28.1483402 L110.926152,29.1100102 L112.650236,29.1100102 L112.650236,24.4939943 C112.458671,22.3783203 110.830369,21.1281494 108.818938,21.1281494 L108.818938,21.1281494 Z M108.627373,27.7636722 C108.052678,27.7636722 107.190636,27.4751712 107.190636,26.7058353 C107.190636,25.7441653 108.244243,25.4556643 109.106285,25.4556643 C109.872545,25.4556643 110.255675,25.6479983 110.734587,25.8403323 C110.543022,26.9943362 109.585197,27.7636722 108.627373,27.7636722 L108.627373,27.7636722 Z M118.68453,21.4166504 L116.673098,26.6096683 L116.577316,26.6096683 L114.470102,21.4166504 L112.554453,21.4166504 L115.715274,28.7253422 L113.895407,32.7643561 L115.715274,32.7643561 L120.600178,21.4166504 L118.68453,21.4166504 L118.68453,21.4166504 Z M102.593079,29.1100102 L104.412946,29.1100102 L104.412946,17.0891355 L102.593079,17.0891355 L102.593079,29.1100102 L102.593079,29.1100102 Z" id="Shape" fill="#FFFFFF"></path>
                            <g id="Group" transform="translate(9.603450, 6.991601)">
                                <path d="M0.559571116,0.48083499 C0.272223786,0.769335984 0.0806588996,1.25017097 0.0806588996,1.82717296 L0.0806588996,23.0800795 C0.0806588996,23.6570815 0.272223786,24.1379165 0.559571116,24.4264175 L0.655353559,24.5225845 L12.5323765,12.5978767 L12.5323765,12.5017097 L12.5323765,12.4055427 L0.559571116,0.48083499 L0.559571116,0.48083499 L0.559571116,0.48083499 Z" id="Shape" fill="url(#linearGradient-1)"></path>
                                <path d="M16.4594567,16.6368907 L12.5323765,12.6940437 L12.5323765,12.5017097 L12.5323765,12.4055427 L16.4594567,8.46269582 L16.5552391,8.55886282 L21.2485789,11.2515388 C22.5895331,12.0208747 22.5895331,13.2710457 21.2485789,14.0403817 L16.4594567,16.6368907 L16.4594567,16.6368907 L16.4594567,16.6368907 Z" id="Shape" fill="url(#linearGradient-2)"></path>
                                <path d="M16.5552391,16.5407237 L12.5323765,12.5017097 L0.559571116,24.5225845 C1.03848333,25.0034195 1.70896044,25.0034195 2.57100243,24.6187515 L16.5552391,16.5407237" id="Shape" fill="url(#linearGradient-3)"></path>
                                <path d="M16.5552391,8.46269582 L2.57100243,0.48083499 C1.70896044,4.13002965e-14 1.03848333,0.096166998 0.559571116,0.577001988 L12.5323765,12.5017097 L16.5552391,8.46269582 L16.5552391,8.46269582 Z" id="Shape" fill="url(#linearGradient-4)"></path>
                                <g transform="translate(0.176441, 16.348390)" id="Shape" fill="#000000">
                                    <path d="M16.2830154,0.096166998 L2.39456108,7.98186083 C1.62830154,8.46269582 0.957824433,8.36652882 0.478912216,7.98186083 L0.478912216,7.98186083 L0.383129773,8.07802783 L0.383129773,8.07802783 L0.478912216,8.17419483 L0.478912216,8.17419483 C0.957824433,8.55886282 1.62830154,8.65502982 2.39456108,8.17419483 L16.2830154,0.096166998 L16.2830154,0.096166998 L16.2830154,0.096166998 Z" opacity="0.2"></path>
                                    <path d="M0.4,7.98186083 C0.1,7.69335984 0,7.21252485 0,6.63552286 L0,6.73168986 C0,7.30869185 0.2,7.78952684 0.5,8.07802783 L0.5,7.98186083 L0.4,7.98186083 L0.4,7.98186083 Z" opacity="0.12"></path>
                                </g>
                                <path d="M21.2485789,13.7518807 L16.4594567,16.4445567 L16.5552391,16.5407237 L21.2485789,13.8480477 C21.919056,13.4633797 22.2064033,12.9825447 22.2064033,12.5017097 L22.2064033,12.5017097 C22.2064033,12.9825447 21.8232735,13.3672127 21.2485789,13.7518807 L21.2485789,13.7518807 Z" id="Shape" fill="#000000" opacity="0.12"></path>
                                <path d="M2.57100243,0.577001988 L21.2485789,11.2515388 C21.8232735,11.6362068 22.2064033,12.0208747 22.2064033,12.5017097 L22.2064033,12.5017097 C22.2064033,12.0208747 21.919056,11.5400398 21.2485789,11.1553718 L2.57100243,0.48083499 C1.23004822,-0.288500994 0.176441343,0.384667992 0.176441343,1.92333996 L0.176441343,2.01950696 C0.176441343,0.48083499 1.23004822,-0.192333996 2.57100243,0.577001988 L2.57100243,0.577001988 Z" id="Shape" fill="#FFFFFF" opacity="0.25"></path>
                            </g>
                            <path d="M40.5260559,14.0117915 L39.8555788,14.0117915 L39.8555788,12.0884516 L40.4302734,12.0884516 C40.9091856,11.7037836 41.196533,10.9344476 41.196533,9.8766106 L41.196533,6.99160066 L45.0278307,6.99160066 L45.0278307,12.0884516 L45.6983078,12.0884516 L45.6983078,14.0117915 L45.0278307,14.0117915 L45.0278307,12.7616205 L40.6218383,12.7616205 L40.6218383,14.0117915 L40.5260559,14.0117915 Z M41.8670101,9.8766106 C41.8670101,10.7421136 41.6754452,11.5114496 41.2923154,12.0884516 L44.1657887,12.0884516 L44.1657887,7.76093665 L41.7712276,7.76093665 L41.7712276,9.8766106 L41.8670101,9.8766106 Z" id="Shape" stroke="#FFFFFF" stroke-width="0.2" fill="#FFFFFF"></path>
                            <path d="M51.349472,11.9922846 C50.7747773,12.5692865 50.1043002,12.8577875 49.2422582,12.8577875 C48.3802162,12.8577875 47.7097391,12.5692865 47.1350445,11.9922846 C46.5603498,11.4152826 46.2730025,10.7421136 46.2730025,9.8766106 C46.2730025,9.01110762 46.5603498,8.33793864 47.1350445,7.76093665 C47.7097391,7.18393466 48.3802162,6.89543367 49.2422582,6.89543367 C50.1043002,6.89543367 50.7747773,7.18393466 51.349472,7.76093665 C51.9241666,8.33793864 52.211514,9.01110762 52.211514,9.8766106 C52.211514,10.7421136 51.9241666,11.4152826 51.349472,11.9922846 L51.349472,11.9922846 Z M47.7097391,11.5114496 C48.0928689,11.8961176 48.6675636,12.1846186 49.2422582,12.1846186 C49.8169529,12.1846186 50.3916475,11.9922846 50.7747773,11.5114496 C51.1579071,11.1267816 51.4452544,10.5497796 51.4452544,9.8766106 C51.4452544,9.20344162 51.2536895,8.62643963 50.7747773,8.24177164 C50.3916475,7.85710365 49.8169529,7.56860265 49.2422582,7.56860265 C48.6675636,7.56860265 48.0928689,7.76093665 47.7097391,8.24177164 C47.3266093,8.62643963 47.039262,9.20344162 47.039262,9.8766106 C47.039262,10.5497796 47.2308269,11.1267816 47.7097391,11.5114496 L47.7097391,11.5114496 Z" id="Shape" stroke="#FFFFFF" stroke-width="0.2" fill="#FFFFFF"></path>
                            <path d="M55.9470292,12.8577875 C55.0849873,12.8577875 54.4145101,12.5692865 53.8398155,11.9922846 C53.2651208,11.4152826 52.9777735,10.7421136 52.9777735,9.8766106 C52.9777735,9.01110762 53.2651208,8.33793864 53.8398155,7.76093665 C54.4145101,7.18393466 55.0849873,6.89543367 55.9470292,6.89543367 C56.8090712,6.89543367 57.4795483,7.18393466 58.054243,7.85710365 L57.5753308,8.33793864 C57.192201,7.85710365 56.6175063,7.56860265 55.9470292,7.56860265 C55.2765521,7.56860265 54.7976399,7.76093665 54.3187277,8.24177164 C53.8398155,8.62643963 53.6482506,9.20344162 53.6482506,9.8766106 C53.6482506,10.5497796 53.8398155,11.1267816 54.3187277,11.5114496 C54.7018575,11.8961176 55.2765521,12.1846186 55.9470292,12.1846186 C56.6175063,12.1846186 57.192201,11.8961176 57.6711132,11.3191156 L58.1500254,11.7999506 C57.8626781,12.0884516 57.5753308,12.3769526 57.192201,12.5692865 C56.8090712,12.7616205 56.4259415,12.8577875 55.9470292,12.8577875 L55.9470292,12.8577875 Z" id="Shape" stroke="#FFFFFF" stroke-width="0.2" fill="#FFFFFF"></path>
                            <polygon id="Shape" stroke="#FFFFFF" stroke-width="0.2" fill="#FFFFFF" points="61.2150636 12.7616205 60.4488041 12.7616205 60.4488041 7.66476965 58.8205025 7.66476965 58.8205025 6.99160066 62.7475827 6.99160066 62.7475827 7.66476965 61.1192812 7.66476965 61.1192812 12.7616205"></polygon>
                            <path d="M67.8240522,6.99160066 L65.621056,11.8961176 C65.3337087,12.5692865 64.8547965,12.9539545 64.2801018,12.9539545 C64.0885369,12.9539545 63.896972,12.9539545 63.7054071,12.8577875 L63.896972,12.1846186 C63.9927545,12.2807856 64.1843194,12.2807856 64.2801018,12.2807856 C64.4716667,12.2807856 64.5674491,12.2807856 64.6632316,12.1846186 C64.759014,12.0884516 64.8547965,11.9922846 64.9505789,11.7999506 L65.1421438,11.3191156 L63.2264949,7.08776766 L64.0885369,7.08776766 L65.5252736,10.3574456 L65.5252736,10.3574456 L66.8662278,7.08776766 L67.8240522,7.08776766 L67.8240522,6.99160066 Z" id="Shape" stroke="#FFFFFF" stroke-width="0.2" fill="#FFFFFF"></path>
                            <polygon id="Shape" stroke="#FFFFFF" stroke-width="0.2" fill="#FFFFFF" points="68.6860942 12.7616205 68.6860942 6.99160066 72.8047393 6.99160066 72.8047393 12.7616205 72.0384797 12.7616205 72.0384797 7.66476965 69.3565713 7.66476965 69.3565713 12.7616205"></polygon>
                            <polygon id="Shape" stroke="#FFFFFF" stroke-width="0.2" fill="#FFFFFF" points="74.1456935 12.7616205 74.1456935 6.99160066 74.911953 6.99160066 74.911953 9.49194261 77.7854263 9.49194261 77.7854263 6.99160066 78.5516859 6.99160066 78.5516859 12.7616205 77.7854263 12.7616205 77.7854263 10.1651116 74.911953 10.1651116 74.911953 12.7616205"></polygon>
                            <path d="M84.5859798,11.9922846 C84.0112851,12.5692865 83.340808,12.8577875 82.478766,12.8577875 C81.616724,12.8577875 80.9462469,12.5692865 80.3715523,11.9922846 C79.7968576,11.4152826 79.5095103,10.7421136 79.5095103,9.8766106 C79.5095103,9.01110762 79.7968576,8.33793864 80.3715523,7.76093665 C80.9462469,7.18393466 81.616724,6.89543367 82.478766,6.89543367 C83.340808,6.89543367 84.0112851,7.18393466 84.5859798,7.76093665 C85.1606744,8.33793864 85.4480218,9.01110762 85.4480218,9.8766106 C85.3522393,10.7421136 85.064892,11.4152826 84.5859798,11.9922846 L84.5859798,11.9922846 Z M80.8504645,11.5114496 C81.2335943,11.8961176 81.8082889,12.1846186 82.3829836,12.1846186 C82.9576782,12.1846186 83.5323729,11.9922846 83.9155027,11.5114496 C84.2986325,11.1267816 84.5859798,10.5497796 84.5859798,9.8766106 C84.5859798,9.20344162 84.3944149,8.62643963 83.9155027,8.24177164 C83.5323729,7.85710365 82.9576782,7.56860265 82.3829836,7.56860265 C81.8082889,7.56860265 81.2335943,7.76093665 80.8504645,8.24177164 C80.4673347,8.62643963 80.1799874,9.20344162 80.1799874,9.8766106 C80.1799874,10.5497796 80.4673347,11.1267816 80.8504645,11.5114496 L80.8504645,11.5114496 Z" id="Shape" stroke="#FFFFFF" stroke-width="0.2" fill="#FFFFFF"></path>
                            <path d="M88.4172775,12.7616205 L88.4172775,6.99160066 L90.5244913,6.99160066 C91.0034035,6.99160066 91.3865333,7.18393466 91.6738806,7.47243565 C91.9612279,7.76093665 92.1527928,8.14560464 92.1527928,8.62643963 C92.1527928,8.91494062 92.0570104,9.10727462 91.9612279,9.39577561 C91.8654455,9.58810961 91.6738806,9.78044361 91.3865333,9.8766106 L91.3865333,9.8766106 C91.6738806,9.9727776 91.8654455,10.1651116 92.0570104,10.3574456 C92.2485752,10.5497796 92.3443577,10.8382806 92.3443577,11.2229486 C92.3443577,11.7037836 92.1527928,12.0884516 91.8654455,12.3769526 C91.4823157,12.6654535 91.0991859,12.8577875 90.6202737,12.8577875 L88.4172775,12.8577875 L88.4172775,12.7616205 Z M89.1835371,9.49194261 L90.5244913,9.49194261 C90.8118386,9.49194261 91.0034035,9.39577561 91.1949684,9.20344162 C91.3865333,9.01110762 91.4823157,8.81877363 91.4823157,8.62643963 C91.4823157,8.43410563 91.3865333,8.24177164 91.1949684,8.04943764 C91.0034035,7.85710365 90.8118386,7.76093665 90.5244913,7.76093665 L89.1835371,7.76093665 L89.1835371,9.49194261 L89.1835371,9.49194261 Z M89.1835371,12.0884516 L90.7160562,12.0884516 C91.0034035,12.0884516 91.1949684,11.9922846 91.3865333,11.7999506 C91.5780981,11.6076166 91.6738806,11.4152826 91.6738806,11.1267816 C91.6738806,10.9344476 91.5780981,10.6459466 91.3865333,10.4536126 C91.1949684,10.2612786 91.0034035,10.1651116 90.7160562,10.1651116 L89.2793195,10.1651116 L89.2793195,12.0884516 L89.1835371,12.0884516 Z" id="Shape" stroke="#FFFFFF" stroke-width="0.2" fill="#FFFFFF"></path>
                        </g>
                    </g>
                </g>
            </g>
        </g>
    </g>
</svg>