<?xml version="1.0" encoding="UTF-8" standalone="no"?>
<svg width="44px" height="43px" viewBox="0 0 44 43" version="1.1" xmlns="http://www.w3.org/2000/svg" xmlns:xlink="http://www.w3.org/1999/xlink">
    <!-- Generator: sketchtool 39 (31667) - http://www.bohemiancoding.com/sketch -->
    <title>2A72EACA-3E14-4F31-9772-99BF23860DF7</title>
    <desc>Created with sketchtool.</desc>
    <defs></defs>
    <g id="Symbols" stroke="none" stroke-width="1" fill="none" fill-rule="evenodd" opacity="0.8">
        <g id="Elements/footer/mobile/footer" transform="translate(-16.000000, -1209.000000)">
            <g id="footer">
                <g id="social-icons" transform="translate(16.000000, 1208.000000)">
                    <g id="license">
                        <g id="kkb-logo" transform="translate(0.000000, 1.000000)">
                            <polygon id="Fill-1" fill="#FEFEFE" points="0 42.9266663 43.7454624 42.9266663 43.7454624 4.67391305e-05 0 4.67391305e-05"></polygon>
                            <polygon id="Fill-2" fill="#007DA6" points="2.39208602 40.5724163 41.3533763 40.5724163 41.3533763 2.35429674 2.39208602 2.35429674"></polygon>
                            <polygon id="Fill-3" fill="#FEFEFE" points="28.2886882 7.42334239 28.2886882 5.44020109 38.4635699 5.44020109 38.4635699 7.16020109 31.5314409 14.4183207 38.7904946 14.4183207 38.7904946 16.4042663 28.292 16.4042663 28.292 14.7043641 35.2548817 7.42334239"></polygon>
                            <polygon id="Fill-4" fill="#FEFEFE" points="33.3750409 25.5443837 30.0192129 21.077525 30.0192129 28.6787098 27.9389118 28.6787098 27.9389118 17.7132424 29.9179656 17.7132424 33.4048473 22.3731337 36.8950409 17.7132424 38.7903527 17.7132424 38.7903527 28.6787098 36.703428 28.6787098 36.703428 21.1270685"></polygon>
                            <polygon id="Fill-5" fill="#FEFEFE" points="15.8515441 16.4040793 12.599329 16.4040793 7.23511398 11.5670467 7.23511398 16.4040793 4.9632 16.4040793 4.9632 5.44048152 7.23511398 5.44048152 7.23511398 10.2620902 12.7195011 5.44048152 15.8704688 5.44048152 9.5988129 10.8977424"></polygon>
                            <polygon id="Fill-6" fill="#FEFEFE" points="15.8515441 28.6807663 12.599329 28.6807663 7.23511398 23.8432663 7.23511398 28.6807663 4.9632 28.6807663 4.9632 17.7167011 7.23511398 17.7167011 7.23511398 22.5383098 12.7195011 17.7167011 15.8704688 17.7167011 9.5988129 23.1744293"></polygon>
                            <g id="Group-11" transform="translate(14.666667, 5.067971)">
                                <path d="M6.3379871,23.8991196 C9.52538495,23.8991196 12.3030624,21.6032935 12.3030624,18.1310435 C12.3030624,14.6569239 9.52538495,12.3625 6.3379871,12.3625 C3.14964301,12.3625 0.37243871,14.6569239 0.37243871,18.1310435 C0.37243871,21.6032935 3.14964301,23.8991196 6.3379871,23.8991196 M6.3379871,21.916913 C4.20043871,21.916913 2.61265376,20.2315 2.61265376,18.1310435 C2.61265376,16.0301196 4.20043871,14.3442391 6.3379871,14.3442391 C8.47553548,14.3442391 10.0623742,16.0301196 10.0623742,18.1310435 C10.0623742,20.2315 8.47553548,21.916913 6.3379871,21.916913" id="Fill-7" fill="#F9B106"></path>
                                <path d="M9.81592688,10.216613 L9.81592688,11.3360152 L12.036271,11.3360152 L12.036271,0.372417391 L9.81592688,0.372417391 L9.81498065,1.48995 C8.99743226,0.685569565 7.64809892,0.0849717391 5.9988086,0.0849717391 C4.49287312,0.0849717391 3.08156129,0.67295 2.04590538,1.69233043 C0.949690323,2.77153696 0.372486022,4.28448261 0.372486022,5.85304783 C0.372486022,7.42301522 0.949690323,8.93549348 2.04590538,10.0161022 C3.08156129,11.0340804 4.49287312,11.6211239 5.9988086,11.6211239 C7.64809892,11.6211239 8.99790538,11.0209935 9.81592688,10.216613 M9.92095914,5.85304783 C9.92095914,8.13017826 8.33412043,9.6435913 6.27274409,9.6435913 C4.13756129,9.6435913 2.61364731,8.01426522 2.61364731,5.85304783 C2.61364731,3.69276522 4.09308817,2.06110217 6.27274409,2.06110217 C8.35683011,2.06110217 9.92095914,3.57124348 9.92095914,5.85304783" id="Fill-9" fill="#FEFEFE"></path>
                            </g>
                        </g>
                    </g>
                </g>
            </g>
        </g>
    </g>
</svg>