<?xml version="1.0" encoding="UTF-8" standalone="no"?>
<svg width="100px" height="16px" viewBox="0 0 100 16" version="1.1" xmlns="http://www.w3.org/2000/svg" xmlns:xlink="http://www.w3.org/1999/xlink">
    <!-- Generator: sketchtool 39 (31667) - http://www.bohemiancoding.com/sketch -->
    <title>C9A65528-8200-4163-83F6-5796544D3292</title>
    <desc>Created with sketchtool.</desc>
    <defs></defs>
    <g id="Symbols" stroke="none" stroke-width="1" fill="none" fill-rule="evenodd">
        <g id="Elements/nav/mobile/top-menu-white-" transform="translate(-18.000000, -18.000000)">
            <g id="top-menu">
                <g id="logo" transform="translate(18.000000, 18.000000)">
                    <path d="M0.36,15 L2.9,15 L2.9,10.26 C2.9,8.32 4.06,6.88 5.84,6.88 C7.12,6.88 7.44,7.72 7.44,8.96 L7.44,15 L9.98,15 L9.98,8.44 C9.98,5.74 8.68,4.56 6.42,4.56 C4.66,4.56 3.38,5.64 2.88,6.62 L2.84,6.62 C2.84,6.62 2.9,6.26 2.9,5.76 L2.9,0.8 L0.36,0.8 L0.36,15 Z M25.28,15 L27.82,15 L27.82,10.42 C27.82,8.72 28.66,6.88 30.44,6.88 C31.64,6.88 31.82,7.82 31.82,8.92 L31.82,15 L34.36,15 L34.36,10.42 C34.36,8.64 35.22,6.88 36.96,6.88 C38.12,6.88 38.36,7.76 38.36,8.92 L38.36,15 L40.88,15 L40.88,8.44 C40.88,5.76 39.68,4.56 37.54,4.56 C35.94,4.56 34.62,5.6 34.06,6.66 L34.02,6.66 C33.6,5.28 32.6,4.56 31.06,4.56 C29.46,4.56 28.2,5.72 27.72,6.72 L27.68,6.72 C27.68,6.72 27.72,6.4 27.72,6 L27.72,4.8 L25.28,4.8 L25.28,15 Z M42.9,9.9 C42.9,12.8 45.02,15.24 48.4,15.24 C49.86,15.24 51.46,14.7 52.5,13.78 L51.5,11.96 C50.68,12.62 49.62,13.08 48.58,13.08 C47.04,13.08 45.68,12.16 45.52,10.38 L52.54,10.38 C52.58,10.06 52.62,9.72 52.62,9.4 C52.62,6.7 51.02,4.56 48.1,4.56 C45.04,4.56 42.9,6.76 42.9,9.9 L42.9,9.9 Z M45.58,8.64 C45.82,7.34 46.74,6.48 48.04,6.48 C49.18,6.48 50.06,7.28 50.08,8.64 L45.58,8.64 Z M54.74,15 L57.1,15 L57.1,14.34 C57.1,13.94 57.06,13.66 57.06,13.66 L57.1,13.66 C57.76,14.68 58.98,15.24 60.18,15.24 C62.88,15.24 64.86,13.14 64.86,9.9 C64.86,6.74 63.1,4.56 60.34,4.56 C59.08,4.56 57.86,5.16 57.26,6.08 L57.22,6.08 C57.22,6.08 57.28,5.72 57.28,5.22 L57.28,0.8 L54.74,0.8 L54.74,15 Z M57.2,9.96 C57.2,7.7 58.44,6.74 59.78,6.74 C61.26,6.74 62.3,8 62.3,9.94 C62.3,11.96 61.14,13.1 59.74,13.1 C58.04,13.1 57.2,11.54 57.2,9.96 L57.2,9.96 Z M66.24,12.18 C66.24,14.04 67.76,15.24 69.6,15.24 C70.98,15.24 72.2,14.48 72.82,13.4 L72.86,13.4 C72.86,13.4 72.8,13.72 72.8,14.14 L72.8,15 L75.16,15 L75.16,8.62 C75.16,6.04 73.58,4.56 70.92,4.56 C69.4,4.56 67.76,5.14 66.92,5.82 L67.86,7.64 C68.68,7.08 69.7,6.66 70.7,6.66 C71.76,6.66 72.62,7.12 72.62,8.46 L72.62,8.6 L72.18,8.6 C69.92,8.6 66.24,9.12 66.24,12.18 L66.24,12.18 Z M68.76,11.96 C68.76,10.52 70.92,10.34 72.2,10.34 L72.64,10.34 L72.64,10.62 C72.64,11.86 71.72,13.3 70.3,13.3 C69.28,13.3 68.76,12.64 68.76,11.96 L68.76,11.96 Z M77.76,15 L80.3,15 L80.3,10.22 C80.3,8.38 81.44,6.88 83.24,6.88 C84.52,6.88 84.84,7.72 84.84,8.96 L84.84,15 L87.38,15 L87.38,8.44 C87.38,5.74 86.08,4.56 83.82,4.56 C81.76,4.56 80.62,5.86 80.2,6.72 L80.16,6.72 C80.16,6.72 80.2,6.4 80.2,6 L80.2,4.8 L77.76,4.8 L77.76,15 Z M90,15 L92.54,15 L92.54,10.54 L93.86,10.54 L96.56,15 L99.48,15 L95.86,9.4 L95.86,9.36 L99.08,4.8 L96.26,4.8 L93.8,8.4 L92.54,8.4 L92.54,0.8 L90,0.8 L90,15 Z" id="homebank" fill="#061122"></path>
                    <g id="Group-2" transform="translate(11.000000, 4.000000)" fill="#00A9FF">
                        <path d="M0.98,5.9 C0.98,9.04 3.48,11.24 6.58,11.24 C9.68,11.24 12.18,9.04 12.18,5.9 C12.18,2.78 9.68,0.56 6.56,0.56 C3.48,0.56 0.98,2.78 0.98,5.9 Z M3.56,5.9 C3.56,4.02 4.92,2.72 6.58,2.72 C8.24,2.72 9.62,4.02 9.62,5.9 C9.62,7.8 8.24,9.08 6.58,9.08 C4.92,9.08 3.56,7.8 3.56,5.9 Z" id="Combined-Shape"></path>
                    </g>
                </g>
            </g>
        </g>
    </g>
</svg>