<?xml version="1.0" encoding="UTF-8" standalone="no"?>
<svg width="13px" height="12px" viewBox="0 0 13 12" version="1.1" xmlns="http://www.w3.org/2000/svg" xmlns:xlink="http://www.w3.org/1999/xlink">
    <!-- Generator: Sketch 40.1 (33804) - http://www.bohemiancoding.com/sketch -->
    <title>close</title>
    <desc>Created with Sketch.</desc>
    <defs></defs>
    <g id="Cards" stroke="none" stroke-width="1" fill="none" fill-rule="evenodd">
        <g id="Slide-1" transform="translate(-17.000000, -57.000000)" fill="#FFFFFF">
            <g id="Group-3" transform="translate(12.000000, 51.000000)">
                <g id="close" transform="translate(11.313708, 12.000000) rotate(-315.000000) translate(-11.313708, -12.000000) translate(3.313708, 4.000000)">
                    <path d="M9,7 L9,1.00087166 C9,0.444630861 8.55228475,-1.0125234e-13 8,-1.0125234e-13 C7.44386482,-1.0125234e-13 7,0.448105505 7,1.00087166 L7,7 L1.00087166,7 C0.444630861,7 -1.29674049e-13,7.44771525 -1.29674049e-13,8 C-1.29674049e-13,8.55613518 0.448105505,9 1.00087166,9 L7,9 L7,14.9991283 C7,15.5553691 7.44771525,16 8,16 C8.55613518,16 9,15.5518945 9,14.9991283 L9,9 L14.9991283,9 C15.5553691,9 16,8.55228475 16,8 C16,7.44386482 15.5518945,7 14.9991283,7 L9,7 Z" id="Combined-Shape"></path>
                </g>
            </g>
        </g>
    </g>
</svg>