<?xml version="1.0" encoding="UTF-8" standalone="no"?>
<svg width="20px" height="20px" viewBox="0 0 20 20" version="1.1" xmlns="http://www.w3.org/2000/svg" xmlns:xlink="http://www.w3.org/1999/xlink">
    <!-- Generator: sketchtool 39 (31667) - http://www.bohemiancoding.com/sketch -->
    <title>5B1F8625-F6AD-4CB8-885A-C51613B81BFC</title>
    <desc>Created with sketchtool.</desc>
    <defs></defs>
    <g id="Mobile-payment" stroke="none" stroke-width="1" fill="none" fill-rule="evenodd">
        <g id="Payment-mobile-2-provider-detected" transform="translate(-277.000000, -143.000000)" fill="#FFFFFF">
            <g id="City-select" transform="translate(17.000000, 135.000000)">
                <g id="search" transform="translate(252.000000, 0.000000)">
                    <g id="Group-2" transform="translate(7.000000, 7.000000)">
                        <g id="search-">
                            <g id="search-white" transform="translate(1.000000, 1.000000)">
                                <path d="M18.2857143,9.14285714 C18.2857143,4.09339657 14.1923177,0 9.14285714,0 C4.09339657,0 0,4.09339657 0,9.14285714 C0,14.1923177 4.09339657,18.2857143 9.14285714,18.2857143 C14.1923177,18.2857143 18.2857143,14.1923177 18.2857143,9.14285714 Z M2,9.14285714 C2,5.19796607 5.19796607,2 9.14285714,2 C13.0877482,2 16.2857143,5.19796607 16.2857143,9.14285714 C16.2857143,13.0877482 13.0877482,16.2857143 9.14285714,16.2857143 C5.19796607,16.2857143 2,13.0877482 2,9.14285714 Z" id="Oval-16"></path>
                                <rect id="Rectangle-9" transform="translate(16.545601, 16.545601) rotate(-315.000000) translate(-16.545601, -16.545601) " x="13.3789348" y="15.6408395" width="6.33333333" height="1.80952381" rx="0.904761905"></rect>
                            </g>
                        </g>
                    </g>
                </g>
            </g>
        </g>
    </g>
</svg>