<?xml version="1.0" encoding="UTF-8" standalone="no"?>
<svg width="22px" height="22px" viewBox="0 0 22 22" version="1.1" xmlns="http://www.w3.org/2000/svg" xmlns:xlink="http://www.w3.org/1999/xlink">
    <!-- Generator: sketchtool 39 (31667) - http://www.bohemiancoding.com/sketch -->
    <title>B8C861A0-F20C-4FC9-ADA3-54637DD2EE26</title>
    <desc>Created with sketchtool.</desc>
    <defs>
        <rect id="path-1" x="14.6819805" y="17.1819805" width="7" height="2" rx="1"></rect>
        <mask id="mask-2" maskContentUnits="userSpaceOnUse" maskUnits="objectBoundingBox" x="-1" y="-1" width="9" height="4">
            <rect x="13.6819805" y="16.1819805" width="9" height="4" fill="white"></rect>
            <use xlink:href="#path-1" fill="black"></use>
        </mask>
    </defs>
    <g id="Mobile-payment" stroke="none" stroke-width="1" fill="none" fill-rule="evenodd">
        <g id="Mobile-1-Copy" transform="translate(-265.000000, -1338.000000)">
            <g id="search" transform="translate(16.000000, 1193.000000)">
                <g transform="translate(0.000000, 133.000000)">
                    <g transform="translate(249.000000, 12.000000)">
                        <path d="M20,10 C20,4.4771525 15.5228475,0 10,0 C4.4771525,0 0,4.4771525 0,10 C0,15.5228475 4.4771525,20 10,20 C15.5228475,20 20,15.5228475 20,10 Z M2,10 C2,5.581722 5.581722,2 10,2 C14.418278,2 18,5.581722 18,10 C18,14.418278 14.418278,18 10,18 C5.581722,18 2,14.418278 2,10 Z" id="Oval-16" fill="#00A9FF"></path>
                        <g id="Rectangle-9" transform="translate(18.181981, 18.181981) rotate(-315.000000) translate(-18.181981, -18.181981) ">
                            <use fill="#061122" fill-rule="evenodd" xlink:href="#path-1"></use>
                            <use stroke="#FFFFFF" mask="url(#mask-2)" stroke-width="2" xlink:href="#path-1"></use>
                        </g>
                    </g>
                </g>
            </g>
        </g>
    </g>
</svg>