<?xml version="1.0" encoding="UTF-8" standalone="no"?>
<svg width="31px" height="27px" viewBox="0 0 31 27" version="1.1" xmlns="http://www.w3.org/2000/svg" xmlns:xlink="http://www.w3.org/1999/xlink">
    <!-- Generator: sketchtool 39 (31667) - http://www.bohemiancoding.com/sketch -->
    <title>82018B0E-C04C-4385-9C09-45AFA502D526</title>
    <desc>Created with sketchtool.</desc>
    <defs></defs>
    <g id="Symbols" stroke="none" stroke-width="1" fill="none" fill-rule="evenodd">
        <g id="Elements/footer/mobile/footer" transform="translate(-221.000000, -320.000000)" stroke="#00A9FF">
            <g id="footer">
                <g id="support-line" transform="translate(35.000000, 140.000000)">
                    <g id="support">
                        <g id="Group-5" transform="translate(0.000000, 179.000000)">
                            <g id="skype" transform="translate(156.000000, 2.000000)">
                                <g id="Skype" transform="translate(31.000000, 0.000000)">
                                    <g id="Layer_1">
                                        <path d="M27.8256808,14.6751425 C27.3656584,14.0489316 27.1524613,13.2841168 27.1533292,12.5111823 C27.1534015,12.5066952 27.1534015,12.502208 27.1534015,12.4976496 C27.1534015,5.61381766 21.487192,0.0333333333 14.4976135,0.0333333333 C12.9685686,0.0333333333 11.5034539,0.301353276 10.1467456,0.791168091 C9.41277805,1.05612536 8.60873317,1.10705128 7.85625187,0.898290598 C7.19156608,0.713888889 6.48153616,0.636111111 5.74597756,0.685968661 C2.65613965,0.89537037 0.168648379,3.38931624 0.00853366584,6.43554131 C-0.0679077307,7.88952991 0.374830424,9.23831909 1.16947382,10.3200855 C1.62949626,10.9462963 1.84269327,11.7111111 1.84175312,12.4840456 L1.84175312,12.4975783 C1.84175312,19.3814103 7.50789027,24.9618946 14.4975411,24.9618946 C16.0266584,24.9618946 17.4917731,24.6938746 18.848409,24.2040598 C19.5823766,23.9391026 20.3864214,23.8881766 21.1389027,24.0969373 C21.8035885,24.281339 22.5135461,24.3591168 23.2491771,24.3092593 C26.339015,24.0998575 28.8264339,21.6059829 28.9866209,18.5598291 C29.0630623,17.1058405 28.6203242,15.7569801 27.8256808,14.6751425 L27.8256808,14.6751425 Z M14.9608903,10.2630342 C17.5127456,10.8606838 21.3689501,11.7638177 21.3689501,15.9472222 C21.3689501,18.0080484 20.3384738,19.5801282 18.4672145,20.3737892 C17.1319127,20.9401709 15.6206584,21.0165954 14.3184065,21.0165954 C10.3165511,21.0165954 7.78899501,17.9519231 7.68333666,17.8214387 C7.02798005,17.0118946 7.16285536,15.832265 7.98490773,15.1868234 C8.80674314,14.5410969 10.0044938,14.6742877 10.659995,15.4836182 C10.6658529,15.4905271 12.1773965,17.2002137 14.3184065,17.267094 C16.896586,17.3476496 17.4856259,16.5921652 17.5617781,15.9472934 C17.6548529,15.1596866 16.9434489,14.5814815 14.0798978,13.9108262 C11.6527207,13.3423077 7.98432918,12.4831909 7.98432918,8.63041311 C7.98432918,7.43062678 8.47978803,3.51595442 14.8555935,3.51595442 C18.8814589,3.51595442 21.2577955,6.63767806 21.3570175,6.77058405 C21.9796858,7.6048433 21.7978753,8.77834758 20.9508005,9.39152422 C20.107414,10.0020655 18.923404,9.82735043 18.2983491,9.00320513 C18.2535112,8.94643875 16.8932594,7.45598291 14.8555935,7.26545584 C13.3137481,7.12122507 11.7914289,7.66880342 11.7914289,8.47770655 C11.7914289,9.33475783 12.2285985,9.62307692 14.9608903,10.2630342 L14.9608903,10.2630342 Z" id="Shape"></path>
                                    </g>
                                </g>
                            </g>
                        </g>
                    </g>
                </g>
            </g>
        </g>
    </g>
</svg>