<?xml version="1.0" encoding="UTF-8" standalone="no"?>
<svg width="52px" height="39px" viewBox="0 0 52 39" version="1.1" xmlns="http://www.w3.org/2000/svg" xmlns:xlink="http://www.w3.org/1999/xlink">
    <!-- Generator: Sketch 39.1 (31720) - http://www.bohemiancoding.com/sketch -->
    <title>card</title>
    <desc>Created with Sketch.</desc>
    <defs></defs>
    <g id="Desktop" stroke="none" stroke-width="1" fill="none" fill-rule="evenodd">
        <g id="Desktop-1" transform="translate(-268.000000, -1055.000000)">
            <g id="Virtual-card" transform="translate(0.000000, 530.000000)">
                <g id="Securit" transform="translate(268.000000, 518.000000)">
                    <g id="card" transform="translate(0.000000, 7.000000)">
                        <path d="M28.2473605,30.8638485 L3.5788511,30.8638485 C3.01432995,30.8638485 2.55632222,30.4035136 2.55632222,29.8361241 L2.55632222,10.2879495 L46.0670566,10.2879495 L46.0670566,12.8572605 C46.0670566,13.563821 46.6422291,14.141916 47.3452177,14.141916 C48.0482063,14.141916 48.6233788,13.563821 48.6233788,12.8572605 L48.6233788,3.59703541 C48.6233788,1.61652484 47.0150261,0 45.0445277,0 L3.5788511,0 C1.59770138,0 0,1.61652484 0,3.59703541 L0,29.8361241 C0,31.8166346 1.60835273,33.4331595 3.5788511,33.4331595 L28.2580118,33.4331595 C28.9610004,33.4331595 29.5361729,32.8550645 29.5361729,32.148504 C29.5361729,31.4419435 28.9610004,30.8638485 28.2473605,30.8638485 L28.2473605,30.8638485 Z M3.5788511,2.56931101 L45.0445277,2.56931101 C45.6090489,2.56931101 46.0670566,3.0296459 46.0670566,3.59703541 L46.0670566,7.71863848 L2.54567087,7.71863848 L2.54567087,3.59703541 C2.54567087,3.0296459 3.01432995,2.56931101 3.5788511,2.56931101 L3.5788511,2.56931101 Z" id="credit-card" fill="#061122"></path>
                        <g id="lock" transform="translate(7.000000, 13.000000)">
                            <path d="M43.7323446,12.297008 L41.8577084,12.297008 L41.8577084,9.29947845 C41.8577084,5.58468295 38.8433784,2.55503706 35.1473625,2.55503706 C31.4513467,2.55503706 28.4370167,5.58468295 28.4370167,9.29947845 L28.4370167,12.297008 L26.5623804,12.297008 C25.8593918,12.297008 25.2842193,12.8751029 25.2842193,13.5816635 L25.2842193,24.7153445 C25.2842193,25.421905 25.8593918,26 26.5623804,26 L43.7216933,26 C44.4246819,26 44.9998544,25.421905 44.9998544,24.7153445 L44.9998544,13.5816635 C45.0105058,12.8643975 44.4353333,12.297008 43.7323446,12.297008 L43.7323446,12.297008 Z" id="Shape" fill="#00A9FF"></path>
                            <polygon id="Shape" fill="#FFFFFF" points="42.4541835 23.4199835 27.8405415 23.4199835 27.8405415 14.8556135 42.4435322 14.8556135 42.4435322 23.4199835"></polygon>
                            <path d="M30.9933389,9.28877299 C30.9933389,6.98709855 32.8573239,5.1136426 35.1473625,5.1136426 C37.4374012,5.1136426 39.3013861,6.98709855 39.3013861,9.28877299 L39.3013861,12.2863025 L30.9933389,12.2863025 L30.9933389,9.28877299 L30.9933389,9.28877299 Z" id="Shape" fill="#FFFFFF"></path>
                            <path d="M1.79800896,3.45429591 L17.1572449,3.45429591 C17.8602335,3.45429591 18.435406,2.87620093 18.435406,2.16964041 C18.435406,1.46307988 17.8602335,0.884984903 17.1572449,0.884984903 L1.79800896,0.884984903 C1.09502035,0.884984903 0.519847852,1.46307988 0.519847852,2.16964041 C0.519847852,2.87620093 1.08436901,3.45429591 1.79800896,3.45429591 L1.79800896,3.45429591 Z" id="Shape" fill="#00A9FF"></path>
                            <path d="M1.94712776,10.14521 C1.24413915,10.14521 0.668966648,10.723305 0.668966648,11.4298655 C0.668966648,12.136426 1.24413915,12.714521 1.94712776,12.714521 L8.09295242,12.714521 C8.79594103,12.714521 9.37111352,12.136426 9.37111352,11.4298655 C9.37111352,10.723305 8.79594103,10.14521 8.09295242,10.14521 L1.94712776,10.14521 L1.94712776,10.14521 Z" id="Shape" fill="#00A9FF"></path>
                            <path d="M18.5845248,6.82651661 C18.5845248,6.11995608 18.0093523,5.5418611 17.3063637,5.5418611 L1.94712776,5.5418611 C1.24413915,5.5418611 0.668966648,6.11995608 0.668966648,6.82651661 C0.668966648,7.53307713 1.24413915,8.11117211 1.94712776,8.11117211 L17.3063637,8.11117211 C18.0200037,8.11117211 18.5845248,7.53307713 18.5845248,6.82651661 L18.5845248,6.82651661 Z" id="Shape" fill="#00A9FF"></path>
                        </g>
                    </g>
                </g>
            </g>
        </g>
    </g>
</svg>