<?xml version="1.0" encoding="UTF-8" standalone="no"?>
<svg width="19px" height="11px" viewBox="0 0 19 11" version="1.1" xmlns="http://www.w3.org/2000/svg" xmlns:xlink="http://www.w3.org/1999/xlink">
    <!-- Generator: sketchtool 39 (31667) - http://www.bohemiancoding.com/sketch -->
    <title>52DDCA82-A211-4DFD-8983-BEE263476D78</title>
    <desc>Created with sketchtool.</desc>
    <defs></defs>
    <g id="Symbols" stroke="none" stroke-width="1" fill="none" fill-rule="evenodd" opacity="0.8">
        <g id="Elements/footer/mobile/footer" transform="translate(-91.000000, -1386.000000)" fill="#00A9FF">
            <g id="footer">
                <g id="social-icons" transform="translate(16.000000, 1208.000000)">
                    <g transform="translate(4.000000, 163.000000)" id="facebook-copy">
                        <g transform="translate(60.000000, 0.000000)">
                            <g id="flaticon1468402321-svg" transform="translate(11.000000, 15.000000)">
                                <g id="Layer_1">
                                    <g id="XMLID_1_">
                                        <path d="M16.3178852,6.96726012 C16.9468164,7.59400578 17.6106328,8.18368208 18.1747148,8.87363006 C18.4238951,9.18023121 18.6598066,9.49662428 18.8402754,9.85243931 C19.0959967,10.3582486 18.8643836,10.9148613 18.4200328,10.9450636 L15.6578689,10.9437919 C14.9454623,11.0041329 14.3771443,10.7113931 13.8992787,10.2142312 C13.5168492,9.81664162 13.1627016,9.39349133 12.7949738,8.98248555 C12.6442197,8.81449711 12.4864262,8.65642775 12.2979213,8.53148555 C11.9208492,8.28166474 11.5935508,8.35815607 11.3780721,8.75956069 C11.1586066,9.16783237 11.1088328,9.61991329 11.0872787,10.0749191 C11.0576885,10.7387977 10.8610852,10.9133353 10.2077344,10.9437283 C8.81145246,11.0109364 7.48631148,10.7953237 6.25529836,10.0763815 C5.16999344,9.44257803 4.32838689,8.54782659 3.59585902,7.53487283 C2.16961311,5.56243931 1.07739344,3.3950578 0.095747541,1.16695376 C-0.125213115,0.664959538 0.0363803279,0.395491329 0.579032787,0.385953757 C1.48013115,0.368086705 2.38110492,0.369358382 3.2832623,0.384682081 C3.64949508,0.390150289 3.89194754,0.604554913 4.03335738,0.957699422 C4.52087869,2.18124277 5.11741639,3.34533526 5.86620328,4.4243526 C6.06560984,4.71162428 6.26894098,4.99889595 6.55848852,5.20109249 C6.87880984,5.4249711 7.12269508,5.35076879 7.27338689,4.98656069 C7.36900984,4.75562428 7.41087213,4.50688439 7.43242623,4.25954335 C7.50381639,3.40860116 7.51322295,2.55912139 7.38800984,1.71116763 C7.3111377,1.18195954 7.01909836,0.839369942 6.5017377,0.739225434 C6.23773115,0.68816763 6.27703934,0.587895954 6.40486885,0.434086705 C6.62688852,0.168815029 6.83570164,0.00368786127 7.25195738,0.00368786127 L10.3736262,0.00368786127 C10.8650721,0.102687861 10.9742131,0.328028902 11.0414918,0.832757225 L11.0441705,4.37202312 C11.0388131,4.56741618 11.1397934,5.14723699 11.4845967,5.27656647 C11.7605639,5.36863584 11.9424656,5.1432948 12.1080459,4.96468786 C12.8554623,4.15501156 13.3888951,3.19813873 13.8654525,2.20731214 C14.0769443,1.77163584 14.2587836,1.31917341 14.4350164,0.867092486 C14.5655869,0.531624277 14.7704754,0.366560694 15.1406951,0.373872832 L18.1451246,0.376606936 C18.2342066,0.376606936 18.3243475,0.377942197 18.4106262,0.393011561 C18.9168984,0.481075145 19.0556295,0.703364162 18.8992689,1.20796532 C18.6528918,1.9996474 18.1735311,2.65939306 17.704823,3.32219075 C17.2037836,4.02981503 16.6679213,4.71321387 16.1710557,5.42503468 C15.7145574,6.07505202 15.7508131,6.40269942 16.3178852,6.96726012 L16.3178852,6.96726012 L16.3178852,6.96726012 Z" id="VK"></path>
                                    </g>
                                </g>
                            </g>
                        </g>
                    </g>
                </g>
            </g>
        </g>
    </g>
</svg>